<mxfile host="Electron" agent="Mozilla/5.0 (Windows NT 10.0; Win64; x64) AppleWebKit/537.36 (KHTML, like Gecko) draw.io/26.1.1 Chrome/132.0.6834.210 Electron/34.3.3 Safari/537.36" version="26.1.1">
  <diagram name="Page-1" id="7ph1N0jTAxuv5ESpVxjX">
    <mxGraphModel dx="794" dy="518" grid="1" gridSize="10" guides="1" tooltips="1" connect="1" arrows="1" fold="1" page="1" pageScale="1" pageWidth="850" pageHeight="1100" math="0" shadow="0">
      <root>
        <mxCell id="0" />
        <mxCell id="1" parent="0" />
        <mxCell id="V_7yEhAnlDN46QahRNtS-2" style="edgeStyle=orthogonalEdgeStyle;rounded=0;orthogonalLoop=1;jettySize=auto;html=1;" edge="1" parent="1" source="V_7yEhAnlDN46QahRNtS-1">
          <mxGeometry relative="1" as="geometry">
            <mxPoint x="350" y="280" as="targetPoint" />
          </mxGeometry>
        </mxCell>
        <mxCell id="V_7yEhAnlDN46QahRNtS-1" value="Messages Stream" style="rounded=1;whiteSpace=wrap;html=1;fillColor=#dae8fc;strokeColor=#6c8ebf;" vertex="1" parent="1">
          <mxGeometry x="150" y="250" width="120" height="60" as="geometry" />
        </mxCell>
        <mxCell id="V_7yEhAnlDN46QahRNtS-5" style="edgeStyle=orthogonalEdgeStyle;rounded=0;orthogonalLoop=1;jettySize=auto;html=1;exitX=1;exitY=0.5;exitDx=0;exitDy=0;" edge="1" parent="1" source="V_7yEhAnlDN46QahRNtS-3">
          <mxGeometry relative="1" as="geometry">
            <mxPoint x="550" y="280" as="targetPoint" />
          </mxGeometry>
        </mxCell>
        <mxCell id="V_7yEhAnlDN46QahRNtS-3" value="Messages Filering" style="rounded=1;whiteSpace=wrap;html=1;fillColor=#dae8fc;strokeColor=#6c8ebf;" vertex="1" parent="1">
          <mxGeometry x="360" y="250" width="120" height="60" as="geometry" />
        </mxCell>
        <mxCell id="V_7yEhAnlDN46QahRNtS-8" style="edgeStyle=orthogonalEdgeStyle;rounded=0;orthogonalLoop=1;jettySize=auto;html=1;exitX=1;exitY=0.5;exitDx=0;exitDy=0;" edge="1" parent="1" source="V_7yEhAnlDN46QahRNtS-6">
          <mxGeometry relative="1" as="geometry">
            <mxPoint x="750" y="280" as="targetPoint" />
          </mxGeometry>
        </mxCell>
        <mxCell id="V_7yEhAnlDN46QahRNtS-6" value="Find Events" style="rounded=1;whiteSpace=wrap;html=1;fillColor=#dae8fc;strokeColor=#6c8ebf;" vertex="1" parent="1">
          <mxGeometry x="560" y="250" width="120" height="60" as="geometry" />
        </mxCell>
        <mxCell id="V_7yEhAnlDN46QahRNtS-7" value="Find Events" style="rounded=1;whiteSpace=wrap;html=1;fillColor=#dae8fc;strokeColor=#6c8ebf;" vertex="1" parent="1">
          <mxGeometry x="760" y="250" width="120" height="60" as="geometry" />
        </mxCell>
        <mxCell id="V_7yEhAnlDN46QahRNtS-10" value="" style="shape=image;verticalLabelPosition=bottom;labelBackgroundColor=default;verticalAlign=top;aspect=fixed;imageAspect=0;image=data:image/png,iVBORw0KGgoAAAANSUhEUgAAAKoAAAB5CAYAAACp3LoDAAAAAXNSR0IArs4c6QAAAARnQU1BAACxjwv8YQUAAAAJcEhZcwAADsMAAA7DAcdvqGQAAB1eSURBVHhe7V0HmBzFlX7TPTO7q7xapVVaSSiiHMjYxsI4cIeNMWCCMeHAcGffkWw448Rh0gHGnM2BDwz2fWdjbEyw4c5gcDhAQghQzmGFwirtSquwknZmumf8/9XTq9nR7O6E7p6ZVf/ShO2Z6e6q+uvVe69evQokAPHho8ShJV99+Chp+ET1URbwieqjLOAT1UdZwCeqj7KAT1QfZQGfqD7KAj5RfZQFfKL6KAv4RPVRFvCJ6sM5uDgZ7xPVh3MIJF+zQY6k9onqw3uQpLmQGvCJ6qNLZBJ+9jH1aj9l+mImpJI0y9/4YX4+3AFZ1YXUzOIrbfAlqg9HcIy0y4KBuYz+PlF9OAKbdDkNzzl82R/6fWSNpkhCftdgyrt74rI7YkLKBUQDQ8f00uS0AbrMqdZkRA+LsjapUqXmYVNkX1RkaFXyQA7widpNEIlbrxUOjpEkBom2P5aQn39oyO9B0rUH4rLjSELiZvLTQEKqQgGprdJkYp+AXDsmJJ8dqouewtCmiMhPNsZkbzQhN48PtZE5F/hE7SZYti8uz2wx5bQaTT43TE8ezRNgRIIcxNudrQm5d1VMfrHZkGZIVB6kFE2lWpzf50c4OKZXQC6rC6l72NASh/Q1ZeGehKw/GJfPDdfliTkVyV/lBp+o3QSPbTDkqx9E5JzBuvx4doVM6J1KpfywGyS9b3VMHt8QkwgkqE6GdgISKQ7JXg0uju6pSTMkaAOkbxTnmT1El2dOrZTxyfvid3O5Q9+Y6gY4At1vNYZkwRD9VpMpNy2OyPympC6QJ2L4+a+3mmrIhjoqwaQYTZdqqX+TeDoY1Qw9dNFeUza1gKT47Sm1QXkcnYdD/ovbTPnjTjMnkhI+UbsBth5OyOZDYBYUw1YQ47Udpty6JCr/h9d8sWw/VInNMWkF6YJgSYKUxP8A/pGciqDq72NB/ZTSN4Df1VQGIF0D8txWQ859s1VewT2N75077XyidgPsgyTdC0KRNbYRQ93w5sVReWSdoaztXLEcRF0AqawFbalpUzKh3qm/7EMZQGJDr1QqA6X8D9bGZDM61OV1uowCcXOFT9RuAI7KHHKTjLKMHTzWQR24e1VU/gm66zsgbiqSX82IgzGRFTDOBCTLnVLWLyh5A7iJQ4ZIw8GEkqI/mR2WuYPyM/R8onYDDKwIyGA8lOmdBOlC8u6BIfMMLPbr3ovI7UujsupAe/mYCdtgAK3h97ownhSO+UryHng7fML/OQM1+eHMsHwSBlU7dNZb0nAcErV97eRQVyWLOhgpk/tmbkqSlS7Plc1xeXR9TK58NyK3QH99fZcpByA5M6EVP2gxsqyZjr6G4/F4Qib30eT7U8Py6SRJ+fW2n2TRD2wch0Rl7Ryt3RzqqqTBWaG6PrqYGYx9ljEI5ZXegfebDOVuugn666ULWuWulTF5qcGUJRzqkxgA6dwrxHcdsTBL4Oc8F8lqg/eST50fV35UFjRjJaV9sBK63YeHErL9cFyak1KnXygg1WHOwARkRj9NesHIKCW0QBe8fVlUHlsdFR332hlYXPo7+aYXyjQUZaoOc2ozID1BaP56zcG4vAe9tivfaUbwJzi3iY5x/ghdXjyz0jpeAIpA1DRWlAgaIwk1RTgPjUOf5H5Y0QdgTR9SBkVAqjByVaER+0DSUCec1V+Tc2uDcmaNpgyXbMGpzhWwqHmOkXlMJWZCK85ZCaG1viUh/7AwIm/tMCQIstoN21mNW7NKfMIfnI7Cew2/JWGtsucCZeu3/cZE57lsdFB+eVp+s1Gp8ISoGSsq40HvYF/+ACqTPr6XtpmyCHrc9iNodUobfph6f221hDckBiTR2F6anD1Yl2vHBGVKBzqiDZ6Sju6n6g2ZgKHw5vFBqcE5nACJ/wLuvwfIRX30l5tjshxDufIE5AEWlazIR5imtiuJetGooPzm9DIhKrEWQ8kHIMKnoFQ71UDZI6X2FKy/aQE/vC4mLzcYshuWLqGhcbu6O35OQiTAvgpI2FnVulwFyXHpyKD0TlMJOIX4GghK4+WDvXHZcigu900Ly80TlBLoCN5ujCudk3Pr43prshtim9fRuxL16dVSIHgqqxYtSV2BUejGcSG5fzr0Cht5XtN9oiZv7KG1MfnxOkO+Ni4o/zI+5GiUT6fooGL+v9GU+1bF5E8gkAHC5Sx9kq1iB2TUYCj/xsSQXAPpykCOeSDPYkg1kmcNVInth/ElqBJnDQ/Ko7PCHVrp+WAjhnzORP0OklRoXIOgQdwfi14M8LqsF+q8d04Oy3UnFK7QeyJRqehfOK9VXoMOOBB6GSXKlZBArEwvwYLyksv3J+SWJRF5YyduDEcwYhYMGg5DewZkKgh4EKetB0FJ2DY1Am9r8bkqO4ZDp8HgkTuWRrseEexK6ABdfNwpVDFJJ3QUeh9OhNH58IywGkULhSdyjVKLQz+v1oih8HsrovI/H8akS1ddV5/nCFbkhoMMW4vKm7s5U+MMSYkg2mI7h/ntpszHuUlSNWOkJBweKPslI0Py+WHuuAvoiRgFnTnefgLqWHRR3kKqQzUX1Q2+wYOTENNxX07AE6LSiqaUYS2wQRswVH1neQxkNTrnYiG11gGe3BST38J4inK4d/D8LAfPR2KqB97z9NRl+Xr16JB8fUJQeQ0I6q6McNrNGE8H8LGButKReTFes5hQdYE6mASjcUglS184PCEqg3oZdEsJw0IEUZ8NhyzJevfKmFINjoGqbGdr/G0Q4w87DDHQkk6S1Eb6KUmYShSaOvkj0Et7Qtd5BRL3m8ticvXCiLwH44rHCgVrqQfqlPr/NSdYPaE4ZLUuSm1nMAg60yFpSnhCVK61oYPZbhIWhzMlWyFZH1oTkztBWPox20F92Tk20cP3C6gbq6Cfam6wFEjnBsPjJvXFtfCfnfLSd1rlNuiR90P1YLznJ6C79aRqUCDs0ljGS0huGBtS+r8JtnrL1+Sd4Loje2iqfE7BdaIyylvNG6MMqZXGKuTwQKf6f22MyfXvR+V9SBi38MHehHKP0bdnN6zb4HU4tD+72ZBH0CH/0GDI6iZTZlRrcvdUWP59nL8TBic/MD0sT55UIWfXQtUAY2mBewVeq0+lJp+qzS+cryO4TlTqgnZFHZ0rOQq6hTj0vwi98SvvR+TH6w0V/Os0FqITMMDYKrE3LcdRpOFwXHa1Jp3vuOxokPTbk8NyxgB3qp7z+X/caai5+6FVmvQNZ6p190Df8rjeAblwuHPSlHCdqNRVenAcUrWF1wydjCMx3SqL98TlrpVRuXFxVBbgvZPgTM0uGDC8jmcyFZeh050PEyPHGBgXd0GScpWmW+BU72bo/z/bZMjruww1ouU1w5QHqBf3Rsf4DCR5VzN1ucJ1ohKMoOGVFFfxlFpv6j2e+KrrCWmC9HmqPib/COn6bzC0GBxSKPbF0HiQbBTtqdf2Arx7+linDtDlPgzJl4wISqit1gsvWyZ8GsPuLEjunfvjSu3yrMwozsz+mit+Yk+Iyogj9nR7aiG1edT7tgOQPuj+/HMJhuqH1jA6PSo/gjrAYN58QT2YKojy8XmMONSaMwfr8sjMsHxheDC5/siGO/dDt9A/jwvJGJAm7hFR6eAfgNHzIpRxbC/nr+gJURkrySnG9lTruDD8hIYWdVcaIN+HOnD1uxG5f3VMFjfnTlgmUKDu5jUoSf8eEpRTplyCQRWHd+82cXj+86BeMGB5TB9dDAz/cRcnIDnkc17/IpT1y6PcUWs8Ieq5Q4OwAFMupeqsa9cJG5aEbYrE5Y3thppR4vqfry3izJYh9S3ZVX5I6YnJP7wEWnDuYK3d7IxXt0H14kJItx+hk5xXR0lu6cnsPCRWbki567QC8FQs3aegl359Ykj6dBELmy/0O4Hke9fQA2TjFOrS/dY6b3sEzrZIGn6goaIZd7ntUFzea47L+5CsXLBGl5ZygSUlZt8MFcVV5C+D6PUHbGPKJfDSfLD18JrAPZ2DTno69NNigJ2Ti+pOqdFlEoybIT0DMhhqGInKVas5GVl26pQUsJicsp2q3G0hNY3rFlwPSkm2mQoEuWJBqywFydoilfhBNle3T5KEqiD6vNTxgIxEAwxBAzB8kMHIJ/TSZBheGZVPh0MlWozehD/tMJWEdhUpZTLRgR6cU6EkTTrSiuQJmFaHy6dfaDBl5xGGASY/yANU+RNg/MR+uvw7jEQ3PRmEZ/GoxOMbDfnu8igse6aHSR4sELx5e1mFhYRaXkFPAwOJKTW4hGRjC4Oi3Zk67QidETVf2MXsrBjpnYD6+ZuNpryKjvr8NlO2HY4X5LKyVYczMFJ8ZzKjo9wcpix4SlRa3vSRMso9BonoFmlURapiJS/At6hLdb2Uw26DRH0ARGWcqpPIpghQR2UJRi/Gwv4VJGUAzCaoTREYqIUICRPtRn3389B//3VSWGZVe1OZrhOV+iMtda4x6of2YrYMzns/u8VQOY2cI6uHDMwCvBuqJ4+CqF8d6yxRbTC5Awm4bL+p1kyFUZmMIWjEiLUOIwh90Ez108AZOfxnip18Janq/HiqhVp13ZigXDU6pFL1eAXXicro81sWR5ROc96woBouGKTy/FZTfr01pjLGOUNWFqNUiGoZLNVhEHV2hVzG8DsXwI6+Agbi7xsM+c1WQ60moLpzEOI0wfgKSk4aoqgWPtoa2n6TRXWp5dcoTC/0hAtHBOWC4bp8fJDu+Spc14nKjBsXzW+VFRh+BvXRZCKsUE6rMm3MwmazLfyvu4ENPA1WMB39Hx/srqHBjs+Fg0yK9hYk7BYGqbNZUbFMq6MFsm9i/ox2qjUkiNTAKGUUFKP0P1OrOxZfmitcJyrXI531l1aZx4h69nD20CQKGYpKHfRXnjZQl4dB1FNrWHD3sQujE7PwMXX5202mWs1AvTQO9UtVdGpd873d8m2veIPjw3vrMr2vJif2DagRcGa15tjS7nzhiTF1+YKI/Ao6KYtqFTe1lsofmUpDon4WBseDM8JtyWu9AtUOJpDYBt2Uj3qQlSMbl8dQzaJRy1avhKCn9OQxTn+eAJ2TYYKcnKGLj2F6nPouBXhC1AfXxNSDwdGWPmo3nOuXLhpo8X9reljFnXoJ1mh6tyBxaVjtSdY/PQL8Xhjv+Uphy4mS4SBpV6uDM53fC3hC1FUH4nLx/IhK1GU53O2iun7pooBSihPET5xUAQvZHYv/eIMnytOJMKJoKfZAmylFXRE0RVntZmDXnwg9r66HN7rp8QDPavJLo4Iq4pwR4BaKMYB4BDB1TG9NRqQG4vgoCJ7V5Cn96YezpCp1pm5MUxDVWs8+3oW4zOMVnnb5WyaE5KKRVoR7l8knyhQmpOkgWMsnVWsOTWT4INwnapKQfGGqxe9NDqsZDka6U7J2O5giJ2P0oA/Sh3Nwn6hsr+RQT15yfvieqWH5cl1IGDrKIIejKG/mqrsPBJSDfwJ0VB/OwdPaVGRFa5Ksd04JyW2TQjIMBoeKOldGVnlLIYYbjoUkPbl/iXjJuxFc96Py5On0s48x+zJD0F5u4MOQLVxxig/KVbczoXh/dWJYjRh9ffepo/DE4Z8JzLvEgOYRVQHZCIK+BcIy69+8JlNFVBXlpgoAR4TaHpr856ywfN7h5As+ikhU7sbBVOScsqNhxZzxDUfismhfXK0AKDuiQppePx7SdFpYarydNT0uUDSi/rTekG8sjcq+QxBFtqYMQySgMeyvvMZ+GoRDqjR5fE6FnF/oFuQ+MqJopukXMDyeXqNLAKa/FgyIzgfauNxIqnp5wlqaceZAn6RuoWhEpX7KDRq4elQtzktFGXGVmVCm9dfkkrqgDPCHfNdQNKISHCYvrwtJVdB2TyVhKyMlrqhywqIK5GSupTM8Co4+XlHU2uVU6jcmBlVGD6ZMPzpTlRSppS5ZccMc8i+FNPWnS91FUYlKXg6qCMh3p1gJxBjAa0lWflJiLZ8i3XlntPInVHMztJDUFmkd0fGEohKVzcv2Z/a3u6aE5NYJIalBozOlt5tJvXJG2q1wHVh/WPk3jQvJR1xKyOujPYrmnkoFb4CkVZmnGwz5xYeGvLHLVCkTKWaz2U3PKyi9FOM8OxUTS9i7nJQTWM/cAIT5wLg7CyO+qLrQwB3dU1NJeLNdzHfYtHKLuY2SIGo6uPXjqzsMeasxrnZ6Xo+HYgjdVyCu56TlBXF5W4fmVjz3TgsVbelwvtgfE7WkmrsWMovK2oOm7GPeWapbKEoF1DASlUvaPz5IkwugjnEdVTpYDxQk9YcSapXqNA8ixRwhKk/gxq0yq8pS9PyN6Pl7ogn5y+64LGo21SpKp6/XVRkskgbkohG6WrDn5MrSl7ebahufuSCHW+AKVO6P8OTGmDQycwpvH5dLNQLVWi/SgVISpP3sMGZECbbtvLehJSFrIUTmNRny222myhT49MlhZWe4jZKUqJnwv5AED6yJycI97hC1M9iS9MIRliQd52DkPjfAuPa9iNow7umTKmSiCzulMI/sXati8tyWmBzmdqlZDNWqzKjn6f01uXhkUKULXQwpvAKjW/3+uEpM8aNZzALTxcl4HgeKVHJETS/XFjTkzzcZ8rNNzOcfV5k/WDXu3zSugGsxBJHgygTO4ztJUuLZLabcuiSiNvVlHoD70BG4GLIgpFTiARCTKTd/sBpvcNq2fT+yAL/XFi6sxC1e8XsdYpibvHGf02OQ/I7TKFmJuhJDzJ+hBzGi6rWdhrQmJQHrwP0bTqgOYYCk/TCsUVe7fVLImTVQaQ15Lwj0rSXMqmv9fT6G229PDsns6q7JatfD0dMde+S/0clvwfn3ck1/2ylzq0X7m/TE9A1pSh3gHgEHYOyugnRlwoq27YjSyucUuq4ND3EQBf/zblPuX23IzYujctOiiNraW2X9S44w2VdvIQBJYwnpD5Jyv3kmqnVrod5uptGGtKKkI5jw7MZFURWja6OjMvMn7e+q/ZF10O2f22bIXkjr9qkmc6tF+6zchogGZAUMWo5w3LnmRdxnOPXc7W/IMRRVovLC7JHM4sFhfTmk6PwmU5ZDF6J+FAA5OQngFXgp+kh5YzP662qf+SvqgtLbJRfU7khcblock1/VG6Ins+OpERb3MKmfptJVXj4qqNJ1poL11lm12J//crOh9F92dDvWJ9/q5DnZmZijnxvWtbTE5QRI0cdmV8onyzmR7+s7TdkLS31IpaZyHNEA4t8GLkc/HvOm7jiSUP68DSDpBpCU1iYVUJU8zTpNF+iqybIHz0S/7cAemvzd0KBcg+HtIwOtu3DuKu1BHySl50/Xx9qIaoMzX/1Qd1eAqHzMhlGTKx3uWB6V+zDs6w5Z5aqO+IT7HgWj717o7GpHaw/gGlFfwpDwynZDVoOA7IG8SnMsrhLNHgBRD7biAA+y9unUR11aHlJXbqdD8Gp29BY3ZLjhhJBcAZJWe+TI/+ayqNyPh85EUCngX0q6480cSPeLR+gqNymTl2UDehNux3l/Vc9O0P7c+cJmylRIe2abvqQri99BuEBUns6qGPpAX4VkfWmbKQuYdpKXouMO/y3/HZ9yvPzR0+eE9J/xVhRBcXA8rGz6Chlg8lFI0VTfott4eG1MBZCrPpvhurxvhhJWwMD+xGArTyl3WUk3ttLLx5HqVkjTNxzaYIPnJ07Dte+eEpKzBnlHUsITHXUp9NAXtppqNoPLT1qZTg61qqRorqRIb5EcofyDeOJW6JSgc9H459bqigQOCZ6c8Drq5BYYjiuaUwl17I0o3ZX3jZs8rUaTswdb6gBnkRgrkU7yFahzGqSOEBXnZr31Rp3dcWII0tQabgpsipzgqTH1Pkj6V0hWbsjLbXw2MDMypRqEAwmbSaIUChbO2jXFqtaBVQG1Tyj3XjoT0pOSgfkFigU6+r8OifrEOgzRWRBKFYW6PDACBJ3ZT1eTBJwpo5uoF4jMHWG4E8qdK6Py/IdHDbVCQKIygch3JoeUa8pruEZUixbWczoYCMGNzObvseacuf8RHfs0IBRjkz/JNRjF9kmrJ/XAE9g/Cg3KRhwL6cMcWCSnG/t15ou3m+JyPazzVZCqQRBNlaEL8DvWXlsoB1hEHZd7oNIqJ1GpY3Pr99WQrE5slUSicptQEpUuO6/hEFF5ivwanr4+6rKbDiWkvsXaU5/7QdFDoNb5s4ZsdHQJfgWPIBprYCUbKaDmn2uT2ZNnQvmfgEak1OHuIaWCCIhGb0hvkPOZzZZjfhd9nnkM1awCa+TgI1ln6KRO7efFZhiEuv0uiOrWLi+dwdOh36rFjgnNyrB9qlzbzy1ouCkFVQJuVdME8sYwpNl6Le+8J4Y19nTqlwMquJO1JgNA2OEY4kdBgvb1xnuSFxojIs9tNRRhx8Kap+H5W/xd8E4xnVdzXmBA+2jc4z3TQp65pFLhMVELq8M9UWvLmgB3+bD+q6HO661knAJHDg75rzSYMgsG0iCIe44wHFm89DxkAxJ1OnT7H86sUCGAXsPxK2Zm/dGjhdQ/EzsMrYLUxBBUC4k5FI9yJSlB42Qo4z0xlCyCgflqA3fMjhfF+5AN+nOkyjKg2mk4TtTMxSjRmi8yuLiR0fRBEJazcdRNKUkzd/YiA+oJjTSno8eyhfcy3Ec70E02p1pvczmVIk15R/TfermlZDp8ohYZ9OmeM0SXIAxpa0Fjkgx8WyKcpTehDkM+070XCz5Riwzqo1+qC8rcQZSqaRKreAKsPdBhRvbU5OQiJtnwiVoCoH/3xvEhGQeJZRpKHSwZkvJWNOjOM3BvdKEVCz5RSwSMN+C+qWcmF9Ixt0EpjPyc/eJWk8VOAOe5H9VH5+C28U9tislfdplqOU5LrLi7b6s9XUcE5Wcnh5V7qljwJWoJgYHkjPpnOs6PQWcdVnVsVJSX4Exhr7CoAHKStJgSzSdqCWEvpOdDawy5ZmFEft9gyiHDWkvlJkHYDzrsC7jwRzHkXzjMmlUpYp/xiVpKmNxHk6l9NWlsTcjq/aYK0FEBZcnP3QA7QaaOwClTzppdNiqkos+KrSD6RC0R2DzgZnFzaVCBKMWa71deB4CrCexU7zkHuDsMn6glApsHU/oGVBidclV5ZfmnkZDSc3q1LleNDknP4hr7bfCJWoLgIr57plbIpH66mhWiUeMFyFcO+QMqA/IVdBauHysV+EQtUTAZ23/MDMv5UAX6haycseoBItlDs5P8JUm56rUCEpTLs68cVSKiNAnfj1ri2NUq8uuthry7x5TNh+LSHLUy8zEvQsqqnYKgSAoWMJrriyODcveUsNRlE4BC5jhxA1nAJ2oJI50Hf90dlyfrYyq5RyNzSTlEEu6TFYIAvWB4SL4/1UoE5yEHs4I/9JcwbKJwVQPXlS2AVJ3XFJfGI0dzVRUEnIOqRAVO9sWRICkkaSmSlPAlagmDCxyZvpyS9IVtpixuNpX00x2YrmKjx9EBOPN0Jaz72yaGVDr0UiQp4RO1CKAxxLRGNFeYgI1pjpiPK4oPeJxTqRtarNW5HOa55Jk+IybNcIJEtheBadCvHhOUr40Nqvz9pUpSwidqEUCizGtKyDtNJqRjQg6DnPsgPZk0jStQmdV5PclJRoOcqfkN+Jpvg/F0zBRYic5xzmBdbhgbUlFb5QCfqEXCsn0JtVT65R2GLN0D9jDNETlDJmJod2onGLYuzq6eKoJWgrNPgqTXg6T2zickgN0BnLimG/CJWmSsb0nI07Dk32y0MsZwnl8xBkSlpZvP1CV/TulpMVTU3l3jemsqCuqyuqAKgib4lVIlZjp8opYI1h1MyB+hj74Dy37dgYTsisSVrmrQwZluPKX+qVovSTm+sDmhLjAzNMMEx/XR5NT+uhrqT/Rgmx234BO1yEhSrA3k5SLmjIKeyj22mJBiZys3jbDm/emqasGXqOfSj8pMMRUQkGGQmck4amAUjezJSCxdZlZr6tEudXmZokOi8jA3XPBRXHAIXwp9dkdrXJGT3oEmSFsSNgydlmvtmQ6yKmhJUa6/6g7ETIcvUX2UBbph3zu+0V2lTjui+sK1/NFdlbV2RPV1Uh+liEQiIX8DCisk0BEYRjgAAAAASUVORK5CYII=;" vertex="1" parent="1">
          <mxGeometry x="153.8" y="160" width="112.4" height="80" as="geometry" />
        </mxCell>
        <mxCell id="V_7yEhAnlDN46QahRNtS-11" value="" style="shape=image;verticalLabelPosition=bottom;labelBackgroundColor=default;verticalAlign=top;aspect=fixed;imageAspect=0;image=data:image/png,iVBORw0KGgoAAAANSUhEUgAAAKkAAACdCAYAAADPPliUAAAAAXNSR0IArs4c6QAAAARnQU1BAACxjwv8YQUAAAAJcEhZcwAADsMAAA7DAcdvqGQAAFjRSURBVHhe7b0HlCRXdh340meW91Vdvn0DaHTD24HHYAAMxmg4pIYUPcVDcncl7VLkSiudlXTEPVpKy7PiOokraVdnSWpE0Y/FDDwwGAx8A40G2ntT3pv0mXvv+/EzIrKyuquyq7qrMX2rIiPixzfvv//ivfdNRASKgFzHdWxgBJ39dVzHhsV1Ib2ODY/rQnodGx7XhfQ6NjyuC+l1bHhcF9Lr2PC4LqTXseFxXUivY8PjupBex4bHNSek/ukxnC2ZL7s+gbYuKGernpvApRyv1AaVwlaG69OilUCOBMzhjx2sNKxT/ath7TUvpPO5pCRzKWmPNzsh1eFSzFMm4SewJFIRf4FrQqarERAfLpLBWHpSTs2PyEhyQkZSk5LKZzR+LByVHQ19cnfbbokFI07s1WEDCqklpzI35rKLcmZhWIZSE3J2YVSm03NIUZSacFyaonXSjK0j3iqNkTppidUhrMFJuQwuu+WINclk3bAi6lZRhUwhK6fnh2UmOy+n0BbDi+OSLeQkXcxKJp/V40IBty7yC+AnEYpJLdrnyZ77ZGdDv5PLynH1hfQSzDFCOQKhHMd+VGYyc5IFIzJgBJlVKBY0ObMJB0MSDoQkEgxLCHueR3H31kXi0hVvk7Z4k9SAYV2JVghvveZfNVbRqFcTfjJtU6+O8NHUlCqG6cy8tsV8bhGakrzPSxoak0LJPAMBU1q5XaESKUDMGiO18is7vyStkUsojjJsOE06BwbwLh1WTTkCoZzXu5NCmS5ktLJBMkH/lzKbDLFtocdAEHczhZVCG4TwRiHERngTEN5WaY01QqiDMlDXJQ3QwDxeGUyj2N1Gw3JkXYzcNG58Y7KnZBT70xBOCmIa/M9pG2TFiAyFUncQIh74cy0vg8d5KJRbWnbKVwceMYErxFUXUt6lFMah5LhcgNlI5tNgCoXSbNSUrKI1HVp7C9bce17OGQ+s8Jro5iAYDKrAhrFR4GMhCDIENAZtO1DbCSGuldpQXPrrOqAF6iHgywsv812m6I2DCkTOZBdUSw5DINkWE+kZVQgUyCz4T43JJMp77vXP8pHwnpHL5roPnigh5PPf3vgz0hiuXULLcrjiQuoK5QSEckwW0PHh3anmGwyxqCiUgAZVoFh5iPDSTQ14DpeFq3kD2PGGMMdxaNqQat6gxCG8dB9ioaj01XSoMDfFGqQz1qxuA/3hjQZWifX3AYFnFodVS1JbnkFHJ1fMQTEYk80tp+6T8SeZQwWRWwEs58tbIABftSC/vOMZ2VzXveK8qxLSigwgKlywQsk79XwSQplNQSAzqiXTefoyvPegoZBOkzIPKqxVU7W2ULaQIOwoyLZqFFS6D+EAXQajhdlr7YSf2wDNy85ae6xFGmP10MIxZrUMbI7rB2rJkeSk9rbVp0Qnky5TBoJJhUCLZSiAuOBARRJ+ZVHv9KVgqFKNg5LU2ECirErmkhvIX7prP7/1adnW0ItzT2SgLHkJa65JOfRwePaMMoWdnYUMhZIMoWDmlGhqSMohKxtUZ5vHLhkFMgmb7pVsXHN2CsYtqUxTVTf1+sIwHftSgeYg4vi87LhReKmFKbyN0LRmxKFZGnDcoiMQq+s4rBRGGM0wEJUDO53UjhnrU6KjQ96TX4ah9rcyDHcvD+V5UNx+YdvTsrV+qZAuhzUTUmazf/qYvDX+sUylZ0t+JeH1ZwzVRQmHipLKRmR0pkEW01FZSMNk4nI4mJeG+KLUJdLSVj+n8fPFFXZk1oKrKwSLUcY5ZfqFFz9OBAprREcc6O+GcB6WBNyFO4NJuSWUl2JNvwRirdjaJJDoYuIVgcrgNARyFII5Cm1JS0WBTDlWisemaY0o2DawBCt5Do0KZ88wG7Mc5dF5zs30GpaBjaiglqaQfr4kpL7Ly2BNhHQxl5IXht+RA1Mn4N+ktKHIk9Kdwh3DsAsFCxDImBwe2iSj041w0EOSLwSwGUFkOgpqKFiU2lhKBjvGpKdlUjWu0azlWEk11w5OVXzwhlW6rgJs/nXbIvPyE4sfSpwdMboEEGAJRiWA40CkQYIQ3GBNjxRCNZKOd0pt3UBJS3K04yz8SlooI5DQlEUIJVwnlk2euwJZCaTAuV6JWM91WjcjSBSui+UJeLJdFojDvH4eQrqtvkfzXgkuW0gpoM8NvSX7Jo5A4+WX9IAtH1jhfD4kZyba5MRIh8ynYpLLhVQoFTThFg5DmCYWzklT7bzs7j8nzXXzkkMeLmzu3qMrAa2ROXRA5rtML7vuEMfQjsKCfC1zSBqy01Jg5Uvs5x4btG0gFJdAMAY2BOXPa++Q2XAzhDED7ZnGTV1Qv5K+HbM1/NNBOQ+81DBf/1We2VK9IL+pDNQFwza3WAONTCsA61azqEqCwmoVihe2RG/e5eXwPAWC//bgo7KtcYsT+9K4LCFlz/zVkX3y5tjHqEABlatcqAooKkbhPHiu1xE0VIp1XaZ0BmslwRSmb6pdkJ3dF6SvbQLpw06MjQhLOaE10CP+NhWT8rcyn0hzdtaMI5Qu2zR2jx42muVHie3ycqgXN79pTtWQ/Kew4NgYSy9sHqsHLVwa7tf5yWYZmm6SdCaqVq6A7ILINozrFNTOxhnpaaVlK/iFlYINui4GjhvcVRiThwaeksbWW5zQi6chLktID86ckq+ffA6CxLuvcmGsYCYflFOjHfLJuR4VUNtZ4m82X8BWhFNvwsj6SAi9ZySMIs9SvXHQBE16+5aT0gRmseE0Ca5fuppXCSQMNFLHxCUnP509Kr3pC4Lui6n8coSjYu8nBuXl8KCkPVrSZOdkqrhYJhbeOOXxqQAKKC4oR4e75OxYq6RzYRXWpa4V26QgUVi2ukRS+lrHZeumEbWGCidrs2NaHhHucU0xLb+6+I403fCbEmrei0ueMspJ86BqIeW87fcvvCXvTxzS2ZvlymDYyGyDvHNsm1aedyCRxS0agyDe398oD/Y3yJ6OGr1rZ9J5+cHZWXnnwpy8e2FeGmJG69rcO5tm5N6dhxFEBq/AV1pjlCsMX70rMIFBNRDQn8ydgIAOgV47FutA07gJ+Xs61it/HtkiSQlDRHmNwBU2VVn+Bq55tzm5OQI2oAKSmRiUR58MTzdAe4ZVbsjX8kQagh+9SXAQj2SlFxr15v4zJkIleLLIoCY/nzsmW5InJLr7H0uwaQ8LMhdL5dhzP6oW0lPzQ/Ifjn4D5fBOt9RwcwsKQMEnszE5cKZPTo+2SyhkGojC2FkXkV/Z2ymf29osdZEQfE833SwEdXg+I396cFz+8MMxMMRco0BGIjm5oee8mn6/f3r1YblQzo2n8ufk9tQxnRZ0+WNjGfCMV89AQL8V2Swzghvac93NzYDtqy3nD/aB7ULx9cIbnQL36sc3yCx8T5puI5zmCjuzWfi/BMuKBINqFZlWi0VbhMN56Wmeklth3fyuh41lYMz8hDye+kQC8Ktju/+RBJshpBrv0ljqAa8AHG+7kBzTmSItplQ5f6Gol8wl43JmvE19HhJODdpRG5HfurtXfurGNmlNhB0BdStF7bmjNSG/dlun/Fd3dslMKq/hZGIW5ujcRCtcBPqlDOSPl0FXCizY3zTGFBtquMFrkSfy5+Xm1En12c3N7Fz0pQRQt2S0Wb4X6ZfpJQJKOGkdlFSLL9gtn4Ahd44MeNVGp8v13vEtMjVfp6bdCmgO7TOXKcim+oh8bXeHfO2mdvn8thapjQRlIVtw3DITPwc37txEixyDq2DSmzzsjaFl4ae+mJL7U4cl4AxJrhZVCSnHQKcyc85CDBBsaHI5APDuS2WjMgZTrw42zqlB66Mh+ezmJnlqW5P6nS68xwbtNVH5wvYWuaO7TpmnwC6VicjELOfScaLBS9OuL4yOYuH+kg2N5jcgN0N73Jo6IeEiJzE8Al1K5KZeiLTJf4nskHGJSciN6cCW4y2tLI5esiUbeGPzEq9aATqOPgI7Sd7bLIO+AZXDv/v8dvmDp7fJ37tzk/y9u7rlH9zXK//fl3bIP3mgT7pqo2hPtxz2DY5egCKBNrYlWnngjmb+C/kLUotOY7WoTkhxR8xmF0ASiTIz3kqXra/Sau60hVS81FFi3ag5Hxpo1PMSbLoK6K6PyjMQ1Aw6WMpQ5JWBFqWfG1TtfBUAbWJI9omBE1aEkInsLYzLI8lDENBsqXqM7UuBfLROwag8G+6X84EabRAbvwTc8TZvFwHlq90YwzXXFeC0CdssVwhDsLpVg5pw0zaPDDbK7z+xRR7f3CjbmuPaVtw6Yfl2QXhp+X7vs5ulqz5c0uRMzr7GofOci3fAA2xssfvyYzKQOa/uQbWoSkhJYR7+ihFS++sBKkCmZeEzzqUSJeaREe01Ebmvt2wt50XoT4SD2qlK4y5XfcKssBVWOgu1DnD5Xebx4YQ0thbm4X8dkrpCShvKwiG9BBqSfDAmfx3bIUeDDSrcvG5SuDG9skeBDIfyEsE2k0zIrLPNYUtlohJB75uulbmhnUQlmICJuVqdUPFebq0Jyz99oF8GG/3hXrAtbu2slf/lsc06AmPpYvsOTzdJCq5YCbgWk6zcmz0joSrNvEV1Le2rhYeDPoBNaE11yJ0QxvWb+JWhKR6WzY1xmBZqCzQs8mSjMKfV53b58JbJY3KAG2lrLyzIVzOHpSafkryXvYhgLQ/BhuXR6/FtcjDUjmMT183bSYtImneQvCvIdLJG9p8ekBc+2i1vH90ubx3dVtreOLxDfnRoh/qI+WII7phjaTwEs01GZ2DJDBkKNskv7emULnRmV4LbuurkK7vaSjcrd5yoGZ5qRr4mMAv6n4aZr8vNukV5ylwNqhNS5Zo9sKhMAUNdzVM6KMPFqWdna2wR1aYUAGRqPJLRfN2Uy+V9ZcDZoQSa5iczh6QVDZNXf90DpZXUOqIK4t+Mb5W3Ax3+2jt1LNUMpxToBXRA3z+1Wd4+slVOjHTCJ2+AH5hQX5Abe+hTC7XwM1tgenvkBwd3yemxNpOdKdYA+zm4YF7XgKabpnwlsKk+u6XJOXKyx01k/FJj8fbA3dmZOotT65IhlqVhlahOSB2UqklGWgpcicSdn5faaFobxKAIk1BQB90PD/Xll4DJZE6SSEcoQ6AhOF3qj4sTTzbrhSVFODTUFDPy1ewJacvNQIPaYMcdqEDX4Vi/vB7ukzSE2W0ERPTViSFFmV6okbePbZNTI20w7TVwo5AGWpUjACWfVPdMHpA0Opbjc3Vy4GyffHBqUNdB2HwpkJySLgFptsD/rEHv/eIwGdiq7IUL5gMypgvBuyKKm/XR7GkJFdPORaICE1aI6oSU5XmZ6fIAMmqO+BsOFaQunirdTCFwcTyZ1cH6ZVFWl8VsQd4bnofAm3NOCdLnqo17hd+BQ0TV7CjPrwJYhK0rUUAS9sa/lD8j/ZlhMcs8XOiZNwFwKtYr348MSgrsD9qBIidiuS9Jn55mnVqSbo4KJKJQ2DLoF/CmT4JHqVweFoe3BxIjAgUzCaE5M9Yq+04OUnYcMiDE2ageESyqB51TAxPD7vzwEAXE2SDeeOgjkD6a+adg5hthTcrTWJSErmI5S1GdkF4EliwKEGclOhrhk5TMdECG5rPyl4fGtRNVGf4L+0cX5S8PTkBzGt+W8h6GFu1onNbeKcM0dyQrle3sDVbICcK5wVYEFMbY7Ow8jkbZCtNWKHIRt4Ghxc9ehk3FOnSwflZnk2wowMywKV+cjWsU3ju+VTtGFF6HjehEomOEk4cGmuRv3tQuv3xrp/zEDe2yu71WZtI59d2ZntqVyxzPwOwfRm/ejlXXxqjhWAh+sTswtqDHpZvU2V0MUxy7RrxSVBzEohnZUxyTXWmaeTO2TXjZGkH4CG4ulruScojLEFKPgJTgoQYgk6hJW2rnHYGC+UOUt87Pye++cQ4MdCL64OZIAf2/3x+S4YWMPhtD0KQ1xFJSTw2NPJmFGlWE89hHj574Qi4LzEmFBXvWgwL6cHFUbkmd0EYxS7m9cCvINAvRZvnryBaZkghE1FDuAyJZQWQpx+h7ztc5wmVi0z//8q5W+ffPbJN/8pk+Hcv89du65Dfv7pZ/+eigDiG1JCIazybKQcMdH+4odTab0R6mFgbTELjTMxBcN6gMZXQCH4wawS5dAUNqoyl5OMPePKycJzPKPuMFYFKPx3tlPlw2BFkhfy+qE1JTYunQhb+WvBZztGmhwCbl2J7ANBVVm/7WCyfko7FFjevFBHzQ//zxuPyz187IPjX1Jl8KZSycle7WKT2vBKsMtHAvcc6xn8Kl55XgzxJiigPecjcXJuXO5FFoB46FmnA/TADjpsL18meRHXJeahwBrQBPMBeCHxviTI4roMTP7O6Q3763R+7urpOehqi01USkOR7WoT36ll/c0Sz/5+e26FCS11pxLPM4ev30ZRsTSWRolAzBaH90YNScVKRtKZf+aP+oL5S36E83HJFm+OT++Dw2ZRWiTfJd3KTFINwLX5a+kyWoSkhVECrVpSxMhSpC0zwDbeCqfyOoBXnp1Iz845dPyy9+66j8D9j/3pvn5TeePa4bNejh8UX4Of4qxGFSNrVMQQu7TNYY9sTSoOc4sTeTc72c7PLzcrAUbxwec7qTvddHUock4h0L5c6XoUldQKN8Fyb+bKAWDDcR+OuLSjjZ0MKMzHC5nHUJTJn39NTL34XmbIOmXI5yWpy9nbXyTx8cUPfKxmLW5yZbJZMNSzf4x964EX/khEjfOzYtr51Z3o/0ggqEysNLQS3a+ZHQAeTl5FrKhrGKaua/j44iZ9SWo305VCWkWn7px1Mpz6EF2USTT22q06MOaNbInGOTSXnz3Jx89+ik/Okn4/Lq6RnZP7KgQ07saGk8xOfGQez2hjlJQDtT6hhWosCpt7MzoGQ60ml+VwemcfrnDhACgtoL8/JI5qTU5ZNoaE+dSj+EuYnywYR8M7ZDDodaIEBeI+iJqsCZE8ClcyMzjdB6pnRutCa/uLdTGmN20tSfuhx3bKqVRzc3mk4rojJNNhdS4Y/HMuCjRyBxcSaVgwt2Vp49vryVIv4EAvoHUCClaWqAVH6m7pTUFD1WkZed7GnmT8R65ECw1eWW1RorQFVCSpDdfkMElJXLKxTEGmi/3rYJJ6b5tXpQ141CTTCvRWhXe259UEL1ESpF12GwYxSug3tNyzCHCnuFSwK56srOznAmhsccEDfTiJeGN1+DonTm5+RvZI5IfW7ONxbK/Nz4avx1/068Xz4OtWkIg5bmaeFcZDTUVTtLDp3cNtVF5X5oUoLnlwKt1aODDeCrt9CiLHD4Ceeb28e0HAXLweHp6bT8r7Bm/xBW7TvHJ+XQeFLOwFd9e2hehfO//t4J+bcQ0HEoEKbkxqyzxbD8VPM7kDuElMoCnOMCfPFnYeYzfOrABAHeiBdHdUJaQGPnF5G4KCl0HzjsYBvBC1MJ+KEQjJa6eWmDFvRNZyK+JZr75YkpQmgL0ly3II3OYwzLwQrh2GyjPgnAccK3j22VNw7vko/O9MvhoW6Z5MofxLUdkkowtFvwJgroYP3n8+elIzetY6FelPxRJORNxZzfSqDcIB+uc+j11Jfw1cJ7gvot6limEXWa7f4GjkHq1RWBvf9bO+tKdbD3/GImpsLfDhfM9PIJczEUDMqFuQxM/5T86zcvwAU7Jb/5wkn55+gbUHvSylFArQLhDcCj22rOyY3x84ZhDPAoAS6ueS7cK2OBuIZZenxNaAOXQVVCWo/GYi/u51L75cuFC7JXZiRezMhCIKIryTlWaMlUwkBRHXrkvHuNgBmqym+8Us28QARqTvq2A0i/HCiYxOnxNvnRkR3y/slBfVTlJHrIDDs/0YyOQ6ccPr9Jl6j96PAOXULIVDatFwyx5PC4FnX+Su6kdGdGcGTgpkJMpy4mq6IuXP5BqE8W0U0yogaU1c9ND9gT7Gk+fa4RtoQdbPclWh5MU88F4058vYnAez4SQtC69LTCuml7GMJIJ10sDmENQVgPTSTlY3RsT0ylnBk/4/Na8Eagu/Pl5g8k6r1tkSeLo5k/CT4YM68EWHL8rPCdLEVVQsp1+B3FlGzNjcne1HF5JHlQvpb8UH4+/ZE8EZiUHUX0yCGqbCAKrQ7OwL+iNm2tgzZ1GsASrDB1KIU5pwqa7VZo4S7c/Ww8G27BTgAfj94PTfnR6X65MNWkwy1JPqeTR3w2BKSHa1HZy+XCjJHpJl2M/f6JLTKfilfWqkhGDRrC7xP5C7I5PYSbzLycSy+XmGso4jlz4WD9dyODkkRKUltO78WB2xu0Rul3OymZw9iiMwZbKtMDRPOWwiMKJYeVDI1OIuTL6WSeM2Rr14i6QSYFf008/lJYI85GF8wrnCUgWWMoJY+gV6+yXgb25p+NbpU0zDzjuvp1dahKSPVOR3m8d0Lo3Tbl56W/MCM3ZIfljsXD8kTyY/np1AH5Wv6UPBCYlm441GkIbCielb7OCb37LL0lssvOuefGinEKlFqUjWevWTAsmY7KvpOb9TmqRQgmr6vfyc1wx4wSOGH22mI6pguoOSPDGZ3ypX8Ubt6Qj+WH5IbUaQgoa+wp3ZBTQhCSwbHQb8P/moRuCaMMoqRJVwjS1oob2vqM7KOcmk7p0woVgWjqt7unOC7Ke/Al/bJVlIYEOjeIyLgJCGwPevq2nCUVugR4A3+h6UOph6CWw5j5PhlDb15zVxrNtlpUJaTe4igGJDanGrMosfyCtBbmZHNuQm5Kn5J7Fw/JF5IH5Oegab8aOCMPNgxJSz06HZW0KVB+HoDgtCJ+p2d0wMahsGXyEfU1L0w1S55z2o5gcKp/IZuX2UwewhfQscQp9GAZZge6KQx0P/iCigPIg5rWgjGoBW/Nj8ht6RMQQDMWalGuH3llLtoifxnZrgLKPrjb+G66S8OMJbdzpk7Tm7Ssx9cPLO/ulINDdH95kE91Mr2hlaMGHU18n6sLalNaolUDSahFf7b1rSX15O1yJjEgH4Wsmb88VCmkZWy3dGBvhNb4pZLPSA16w135WdmeG5U9yVPy5fz78ssNb6JHCBNQus3d5jd7kyEFKE4t2jFe0nK8brcMhIozKecnWpDEaEeaOa4c31Qflb97V4+uKP9/n9km/+aprfLHOP6te3plsDEu8xBWQvUPMhubq9enWfk0JKkhY7iy/oHUUQmXzaDw0I5OEGyIXCgm34IGPR2oU/fAVMHUY7XgjcaxZRUe56Zjnb6NDs3bF+b1vBKcqGo1/qfXz8Dcp7xUq8tUE/Uu+ihKfTwJN2pa+bYa0IX7QtN+6YgseKrpHIQS8gK0aAacIBhKOrhfZTGKKoWUesRTXJm/Uqowwtm4HKqhlg3yteGFKbmv5oTsrT0PjWYqwSp4hcAe009sbpiHFkVvGlrSlKs7bRH2VE+gM6RTrlqWwZ7OWvnXT2yWX97bIQ/1N8jtm+pkT0etPhHwC3s65Hce7tfV/nPQTiyJGztn52H6+cwOh69689PyaOqw1BbTxj3xwlt1bLlgXL4T3S7HAw1wakC953pVQKZ16HnzNUNebcqe9b94/ax8++gyY5mIdhJuwe8gzreOTOq5JYVNxGfmyUGTmzJRb+xdPeedJjRXVoLGcFp+rvVt1dg2GXMMF/LySqRPzgt7804ZWupqcvejSiFlcR7KzE8JrLC5akgzV7HHhSzurp7ojPxE0z5oU2/xbh5Mq1oUnYedbcOSDIacUQMTn9f5pOjobIMKKs2jTb+9NSH//OEB2dNeo89TlYNL0u6A0P43d2ySxwabdLEGQSrT+bCuweyVGfl89rjU5xdxc3lpNLWyYBqK+XPRLfJxqN29ygN/VAMjCZcGqsJVTHy9EJ/aZIDKKnB0Kin/29vn5bdePCV/DPP/g7Nz8trZWXnl9Kz8z2+ck//+hVPyraPjuhxSkzhsDQbzMtgGdwEZMchaAv421iSlt9TTvzSML7pf2iNzvnoy5zOJfnkvZIfduKE0my8OV1aCH1UKqQfLlGp4473IEHMfx4JZua32jNxTd1LSBfvUp0lB8CgCbXZH/LT8Zuxl+en0UfksPL3tRTMVR6FdyEVkfKYeFUAI0nLYpAV+JxdbbG+OWwKWxY6WhPz67V0w79ZrMk8RZOejcs/CkHTmZyTHXqkPLMscqWuBk3fjm+WDMLQ5BHC5BiiFr8Kmcs6+q3lKElEz4GXZw162Hcv89+8Py+/+8Kz8yx+ek3/1xln584PjcmBsEW6QWVtKqMLAtqlpWmeaLHz6FJnf0HtOwiF3FdfyKEKL0helFoX4OHRpPjDzL0b7JBVAd7NUacBDSzWoUkhtFQ088lURJi5/zRG1ZF90Sn6m9R0w3TFATq2YVQ7alnfpr7X/UAbzU+iAnZO7kofliRRHDfbL1/In5ZZCSs5NNxtfFYnYQdjSEpcn7Ipxk91FsQPxHx5oglambgCQDx/yG5utxSEdlApAIDUG6/CBLlzuVXeAPfvlsPyViyMOAaWGM0N2RgMSdrqYa3Np3rmdmkmr9oyEec1feZK2BR0kO/Rn4KeKA/v97eOVtSmCbGzW9QuN+6UzwoUkBK7gujXz54rGzFeSiQpBK8LlaVKnPrZeKyJCK8yX0OZlT+K8PNH4iSwWvM/WBKQ2mJYH6o/JzbieKkZwx+Ylml+QNnTCtufGZU/6pNy4eFoWc5yVQX4omFOpffXm3MVyFJnwaCgod3XXwe0wIWxbuhTnsw1aNadaPqiooMKnYz1olAH/YP2aAtoQ25bOEV0/S2K89PCYWpVjmHbT615SnDQcTWmuXbrazE91QHZsGnJe4OEtCUBEG8Ie/d9Cj57PUBmgXDTA2USfx8yvLaoWUq2g+6NYEXlOdJqKtvCCfKX5A+kMz6mfQ3DfG52Wn2zZp3FMdL039ZqOGhQyEi2gV8kkiMA4sWBQejl1qLA0WYrsuYUJp/atWbLC3NBmU5aDdAzHN+mqpnkdaloPkCBDATVce/2sLhRxQw2Wo7EEJKDIbe4YQ129lTQoT881FuxE0UqU4DnMgS/PNH4ELTrvT0szH+lXM78eqE5IWYlSncurujLQh2Mvemd8BNr0oCzkYyqEddCiD9Ufle2xUR2msrmbvXtGs6M+kRPEVyEmnWGlcprUnVgGJd/N7DTukt68wmg2DtZTQM1LHCgChhHLl7BaMCfXv6W/uL17RIMZRnNsvvZhSl4iejahA6516IZvu8QboZtVlgEPOXVdz/WmCoQw0Mlza2xcfrYNvijcBpssBCv3Ks18qTe/9qhOSB2GuSjjzArAG5tC1hhOytNNB2RXYljPt8XH5KvN+1RgCVttb/UpSFG4C11Ro4FpppPwK49NLZ35MLErg8vNhhfMnDTz50Y3ZFN4plS+LZhiMxdtk7+KbNMGiaiAuvDSd1lQjUc/3YBUNNcuSEfDjPEXKVwax4DXHUoNygjZ2jWq8/ReaHwKuyelTcZx4q1wMczEiblOYaYW/Zut70KLzmqwiV+UsXiPvFtaRFNW+BqhKiHlHcMHyNzbE/vV0Gfjol6s2s74qHyx6SMISEE+33gA5n5KmbIUDtOwUePuSfARFGOac+g0cOrwzKx3sBpwtI6fPnPCV05+//i0zk8zEwoBhf/22jNGSxN6qaCD9ZzmOxngSxy8mfkyvnxodn6dxPHinT1DtvpLUJEC1KWBQ0stnIb2J9T4jsCbm8LNmmfsrLU1zpkAB7sTQ/I59B8sXxg/FAjL96IDkuKbqoGLWazLQVVCyuV5Y6F6OPQJSRSzuuqaDelU/9LwcETHQ4NZ7Shxiu1JaNWMHZZaApM/hSkRzEDrGpeAoH/JoZn/sM8+BuHAKYtt4gLU4gb7qyMTcnhiUXvLzJo3SW9sWjoi1kc2uiYTTMiz0W1yONikAurLSs+Q2B942fBmR5HlW66pTX3+ImBNvw8gh9p2a+cwbkAqEyfcC1w3KZemj0ZycmfXcUmhHZiUPP719h9IQ9C1VMFCQd6ND8rponnWnqhAyZqgKiFNwkF+N9IrfxzbLX8dv1H2x+A0xzslhjsrBqGln8JlWisFha4/OqkzGPXQkOV3fjnIXvYy7687AWE1c+o0+XwVz8unpuU/rWCO+68OT0KghzUdwTwo+HfXnnRYTqYXlJa34ltkf6gDx9TanhYvkYmDSoKwRmDW9N9v6jun62W94LUl3EIAXzTM94ea2JVoXkqyvcS2+4WaA/JQw1HECegqp7vqTjn1J4oyE2+XH4S69ayUpSfvtURVQsq3dUwG4/JJqFn2RXrk5cig/AV8tT+J3yQvJnbK+Xif5KNN0LLohUNgg9jKWULh0Drhh1eigRx6+/Mw85fuL9PL4CLoAQj2nprzJdeACpGP9P6794fld14/p0+b8qE/gmXxtYU/PDcnv/ej8/Jv3uUK85wO4/Ci0eg5eQaaPAsNQmGkfXgnvlneCnZqY/mNMFB2up4g/ewE8QkHnYoEtHhoRLN3yeF+S6fXFzXxLwonCut5p8zKjtyQ/Fr768oT7umrm+u0OGH5bnSzzMEz98ESsMao6iW6k5lZ+e65N+Tj6RO4s3W22rljA/pW4xZsdAP4HqDe4oIMBtL6Zo9wFkIIAad24hQp0/nB85WRw9QcQ/3m9F75H889A82aLLlZNOWRUFC2NsWlJRHW6VHSx7eg0CXggl4uMFFfFGCJ9EU/23hQfrf3G46ZC8rR+IB8KzzgWxdaTvGVBl+R89JHu9X6LId6+KIP3/iJ+rI+nuqhTVeZz3XFtPxK6kOpyZulgq/M7VBNSjAltey+mm3yndAAzj15rxAUt9V+x6kqTeoFi2EDslnDEIU0GvR8MSZHAvXyQaRbXoNj/c3IVvmT2E3y7cSNaPh+WYRrwA9yGdcgpxU3cHu1lwIFvIbTqzVnZFtszHSgnMT0T9kp4qpyPvLwzaOT8m1sL52clqOTSR0JsAJKUIvSbfhcw0HVUhTQ07FueT4MWh0BJVbG0vUFF55w3DOvi3O83HL0PH52dV/waFFPHBuhtBlQTfGMExlP6kvG5pAbhwiL8ljDYZOz6jKY+Vi7vBbi5200pf6uNy5bSMvBCnGqk0M07GTMSVROS0IOBpvlPfixz8M1+Eu4Bn8au1Fei22Tc3QNYi2S4AA93AL1Z53Ke38rgVc4JMJZK2pVLyiD4RAXTAf10Qu+tpCvhqFw+ofqueq8KAOxCbmr9hRcgrBMRNt1LHSCC7UvUv7VAMdNt3YN6xO4/tvG2KWOplkdFy3vYPmiKlw9ZvzygNxRmJAdmQtSgLVjrZljyeJhH6SZ17evgNdlbFmS/RpizYXUQiuGilgtS6HlvT0qMTkOof0o1C5vQMvyKUK+NOHPEnvk7eigTMY3SSiUkLgzahC8SAeMDVGPHifNUVd41m0Y7lB2iXHKUM81E6Bg7jXoMD1Wf1hqwxmZjTbLd+BvcUW59m3dqBsGNdSmnSO6EswFlEOoIDugRbniySXbObIBJab4g+qLSXkwDbNe8A/hWWeQ7fBebECOwUKqCPuZW8prPbA+Qmrr4BEIGnKeciEGB5ioofh1jQsQhsNlrsGfxnbJ9+M75GjCuAYJiFIMbkGlUQPmuRla8Cl0eBYLzou3WGSJiRYeNnqu8bA7OiN/o3m/jAaa5c+iO+V0oBaUmXLKFdJGAEnq51hmg7vKntqQi5d1DWrBayvskRPTwwYLPqD8ufywNNAP9aQ0YAJj5n+ATjIFxsSw8crjrz3WRUjVkDg+THlljGkxnFLXAFvJNQgY1+DjYIu8FemHTzioMzx/Gr8ZrsFWOR+DLxRp8I0aMCcOW30OnZ7OKD/idQmmWbJ0R782I082fCLN4Xm9CdrRZFxDahurZBSx20gCyze5bN80VNKm9B854E93wMKSq3sQb8/dGIYHtxcmZWfmvDuB4UQw8WHmgxG1eLOOS2Uu49fJsMoP2KwY6yKkOm2nFbBsqQxf1XBiXQMKLJfr0TU4JrXyQbjLuAbRLapl/wJCuy/WJ9PxXgnCNeD7MAejEzpblbTaVMv2lG8Py0jiYpavtrwv6UJEagopeTR5WJ7JHJMauBv8KIGChLJKG0VKHTL4iElXEx/9CMhAx6g01iwY3eBct/zVPcJst9QVV5r5lDxUbuZL6SHCsFyHI52umbdgHOe0fGngWmNdhHSl8FXNc8JDq2VpdrnRNeAjCZ8EG+V9mJ1X4Dd+A3f3X0FoD6JD1h5OylMNB6STvmkpMw9TechgR9AYh1qUU30t4QWTBi1cl5+TOzJn5AvpQ7I7sABBDehiGJMTfj1ZKgyxVxYODezB39B7Xj+nuLObHzJbSkzlM5MBV5Q9kR+Shpwx80zujy/62Z4Xw/286oQ4KOfDOuKqCulqUHINcGdzPw0tewrbR3ANnocr8CJ82O66nHyp8QNHm1bocIGxthG4Vy3abLSoBYU1ALO/MzcmjycPyVO50/oW55JWdTIotREPrmCDlaO1fl5u3XzKvB/LgVfQLkYazfwNNPPO64KYzh0EZG8+Ii9EBmUikHDCrg6uGSH1gt4ECTdD7kV9hcvroV55Ld4nO9vGZVOYL9hFjLIW4ikbwWjRtDwBX7SkRQFXXwZ0JKIlNyV3Zk7LM+nDqlUXAyzRxnXglYirANLc1uAZ2QDcapcxgHCicYyaZr5Y1pu3EdTMRzvlQLBZeax5ecq4krgmhdTwym2AEMw0JxHOBmvklugwevqfyELReXeSp50si7nvQSfL+qIWavKwt/E4YhssZGRXblQeSx1W08g3s/DdVyU47XelYGnzgo+FaLjP3Htr4gGCKdCPFkdKZn4p+HW+JnkpPFC6gSuXfGVwTQqpD+AdGdkAg/xk7qz0FsfN+tS4WZ/q8tYcGC2akS83fSCtVovi38qZ7QOYnTF+FNa27KTclzomX0wdkl3FeVkUvtvEEQUnjU21njB0mt9SaTg1nVWGm2v2aiWKdhUnZU/69NIvpDhgb55mfhRm3hfDM3JwJXHNCym1QgLa7ZnsKdnBz3SjVbiCnI+fzOW9zzwZBrMTtjtxQb7U/KGkrBZl+5oj0+BmByDUMXE0/5FCUm7KjchjMP+PF84hJzOV6MKkWk+U6AJKIz88degsh48iRKGZf4RfBsk7y+7KBI8rK46gN08zT16VrlbO/orgmhPSEtNwQC0Yxe/9uSHZhQ5AoZBToY0FcvKZuuNyW+1Z36oqzsvTF/0KtCiX+tkPTvB32VGUUjgX0dBXDUgHfNX70yfki9kTMlic04fx/E29fvCRuRzNy0DNfGFE2nPToNdp+jLhTkbQm4/0o65lonGlKlgB15yQGmGCGcYBBXRvfkTuyHDOPSdFZ9EINdymyLT8XNvbpWV89L2iwbzcVXteHm04pCudVBWZf1crleBpPD10zymokXxS9mbOyhOpI/IQ/Ds6Bn6tun4w5JBgHF2E7tIRDxDvhvyk7E3zqQPvyIdzkUfBMMz8gJr5JUNOVxHXnJAaGMa2FhbkM9mzEoXpUs1Q4itfQJGTW2vOys015nU+FEJ+V2pTz6QsxOolqq9w1KgG3jbRY/zYMHtugTTaySrmpSc/JQ+kj8PdOCndktSnFkymdlsFPEVcDIYc5o2jJUVUyARBMdxCj+ROoyOYRBJvIsY3eZ2NdOiQXnjpHXtVseGE1LJnWTbhAs1uAvrs3sKYNPETiSoYfnAIqiM8J3+77YcSDRT0tTWdzVOSbirIt8K7ZF+0T5cLcipU4bSblmvbkHtve1qUiDPmP45e8q3Qqp+Dr3oPOiUZdEgYXrkWCC/Ls3Raqayq4M+I/HrEY+YNVX7a8uEGeU578xtPb204iix7vWz2spPH9AC3FWblRvih+vZ2/fc3DONxVfne+lHpbZzUl8VyVobCcyzYIC9Ht8rzse0yFW3XzoSm0Czc4WyF50Qv+4tRUAioVQey4zr2yGnVdknrF+9KKKVDhr4CzGlZ0GXC5Gbz3FmYklsy6M3TzDt0eIeeeEvxsWR+ynwjmXmLjXfb+Jhkji07yUCGNBZT8kDmpATz3lcy2iOThvoiA3E+kuiUzb1Dsq1rWBoSSSkW+OZmkelATN4MbdI3Ee+L9qpW5XI0Crs3nxIQqCFlwTaApfMG4NMId8LvexJa9V5o1aw+iQA2l6XjqTeoYplVwZMHMuWSR/bmgznUvVQJ95YmT89GN8l7oTbtzW9EbEAhtexbCopQDX7vL4xqD9s7zuc2OhugqAPu70UH5M1wpzTXL8hm/WqJiU9RpxDT0B8N1KtWfSG2TTIweeqrOg1p4Ow9bV+6pMCJ55wCSa26JTsiD6aPyhO5M/r6yNK0qgMm8WWjWBqyerh50LW8rzguneAVn0tz4VYmhzp/P7IVLspyT+hefWxAIfXC32gktic/rT1U85EWwjLcnKu2RYOciPfLD2DCuIqcHWHzclwTw3aMmULXAQTi8iNo1e/A/B+O9UgcPqxdt1pm/A3KOxblpwFq1aBq1bvTp+RpnVad1xuHN5qLCnmvEVhKHzpyt6P8XMHWxQ9S82qkX87BzHOd7/pRc3nYcEJqmtCyy21QNi7N/IO5czDz7M071yAQbhrOywflFMzXi5EB4ecl7Aim++AaznnoaRGjVYPyUaBZXoBWfTG2QzKRBonYEQCASdxybF7ukd175Ze0cFr1xtyoPJo6Ik/kqVU9i1U8OfLQk/SywVHdxzPHJZrjO7NMOcop8w/QzHfJu8E2Xc9LXKUJpUtiwwmp4ZNlqjmjgFK73SZT0p+b8Lw3FNfNv4JvjpqOtsj3o1tktOgRUP6YLJcFy6JWHZG4vA4N/L3oNjmJRkywUaFVmYfRNf6MrOybkiAG3ss4tr5qW3ZCtepT0Ko3lCYATGT9NRmsAUAliPpMYVz6M2NScL78YYAD82968zDzWeWlQ7SX9g2EDW3uyUxu1HS9MPO3p05J1jFdBi5z+YTodKQZ/tVmGYKgRTWlSb8aIaCgUqj2h1rkOWjVH0Q3SzFSq1/TKMcl83WucUdNbbXqY+kj8nhhCBrMv1jFLyPLZ6w3r41cSuQG9OIWuDt9Ark7efgzRokFeQ1m/izNvMZZvqyLXyu/6hZUVuRlYeMJaVntqG2auHo8e1YSXLXj6wAYcBXUYjAh34FQHQk0SAwdF8u8aphFIeA7Ny8EatGYffJsdIeci7RJjGV77Lke+VrJ32TlUK2Km6kjNykPpI/J59NcrDKnC7qXpgTlNtB7UYPda66JNgd8w8Bns8bMW01dgkYpoi5d8k7JzDOOt4BymDz4WAqf49fPYMK/p48fDed1zzBes4+u+KxJOQ1VYOMJqYdfauahg24pTMoAzLwxTYQbiZogFYzLS5FBfVeTu/DOoFoWkdEUnRR+3wu2ynPoVL0V7dP3X+kEgCVhtQUgHTV1KJ+UPdlh1aqPFi7ohdK0KuJo9jZvbxlu1RXeUx7fXxiTvsxo6bFkBdPzBPtCKCEvRweVl8abdy5cBBRAvmVvdKZRjgxt0g+0vX1sm34O8x3sGXZhskW/AE2BZZ52acpadMcu+w0mkeB6DV2QcQXpy8/KT6U/lnjB/0Vkgs2QDITlZXR09oW6tFdt/VjCnF0Gk5jUaT8dA0WX56bCjD5esikzjpuDdWcE29grB5UOl9fxtstAcD4Kd8p+bPyCSUxL01jYlubrIcuHXujkn05+qN99NXE8sRDA9/C/Ed8hL4X7lJPLUW3DjWYMyPBUo37ikl8O5MfcMtmoLtaxiROxtH7KqC6R0vf897VOSDiY11m/clyVN5isB0g6m6kWvw/mh6Q2z3WfHs0AUPxyENATsV55N+wKqI1jGO1NsVogBw8P+QKJBXi6bwfb0THbLm/HBqA1HK3qYCXl2RimjU2nKgytenvmrHwWWvWBIl+2Rq1qalBGhsJ7rvkhsxByesz25hHD/FmYUodim+QN3Mw23IRailwwhJYknYvIgdN9+nlLfpVlcr5WP3tJYacQ6levsWX4KczFhH5e6ODZPvng1GaZXKjXJ1jXAhtSSGnmOTd/a35ctqKjYc28Ya79DchcuF7egM/IxrYa1N8AlwE1MNpcespD3ibcdFo1tlWe1WlV+KpFftXDUHEpeGOYY4o2hBXC3pudlAdTx+Sp7EnpgNbm0wa4qCils8MJXiDoruKMDDhm3iZykgIBKYTj+mK5ZMB81tJFeX7mnMK4//SAHB3ulJlkDYTRrH+g4PGDgnwBMTd+9YUal9+OpVuQzETk9Gi77D/VD6Guc7Tx5WGDCqlIa2Fe7kEPNV/Igm8OI3VnBIXPG70V7tb3Tq3tqh1HH2pZ/FmaN0cA5uH9vqVadavsi/Sq2+PVqisD83fqhj1n0OL5ebgTXKxyRO52plWt8SdInZciXmkpLMh96IgteRTPicjp3rdA40mpUdoNyutl0mj+4Pf+0+j9j7XijA/kmbh8KyE/e8mPaHTXR3Vriof1o21Zz/ewqGnHZhvkQ+RBYVeUF7cKbDiflL3fumJOnoY22Z06IZklHwsAudCsp6Kd8p8jO3HG53tMwxlt6jZotaCyWqoAnECGe4qhADUX03JzYVz25sakA9osXfUUIzNmfZyXZYQb5aNQG6xFj0zCtrDnTreDoxkWDPtK5qjsTJ8F71yLoyTih3UZjnXK18M7JAW6uOSWi5+t5WFsjmQYBU0BE/if7egQbUVcd7iPH2Xra4jJwwONcmtXXelDbhmEH5lMyaunp+X94QVJhBDuMI+dra2do3LrluMwTEYfVuOThv4Z4ByvGMl8Wo7OnpWx1BSYdrnKWNmpRzTz7DTszY/JPZnT8MsIXnOrwz7pXKhGvo/O0iRiW81grq+s0pfCJXPxRGDt2Xk7F6yXqVAdBACNWZzH3mik1UH1kO4pHrFCSvoKc9JUWJS+QEZaocHShZxMB7mCwYjz7TIt9+BmVh3usNKWyuKL8Ju/Fdslo4G4xrdwj0w8g4AspBLy/snNwk+wW9Cs39PbIP/dXT3yxR2tcnNHjQw0xnTb0hzXz2LuaE3oqzUPjSf1cz0ENfDMYo20N82aR66ZJWi8pWW7tMT4GSIvFcvjciVs9TAy5eGSl9CitBUX5d7sOdyGfNTW3u+OpkTDc0jog2ivHEe3aqOs2qH7Qfr4TquXYtuwbZd02bSqiwoN4+GJqbHWFrULQtjz+lwVH1d5KHVEnoQb8IX0QfkMhPOGwoTclzquj80onKxLXFEz3yMnAtTCNt8yCnBiiydGZhpkPhl3zgBc59cD/8G9vfJAf4M0xowG9YIyeUtnrfz9u3vk0c2NzlCyKYVa+8QwP/wAeAtaBa68kFoOlRFMs1kH3XlffkSaPQuZTXQTuRgMoYfaIW+FNpVmlKqt+FqDdFIQuFjltXCffA+CejTaLXFoE/+bAS3BHsIdnrBxLXsIHlOzcvw0X8hIXWZSdmbH5f7MKV1h9XDmmDRmucLJm8pNdyHejd78Jm1kG8NYYk/Z3kMIFD/J7v3uP78O/eu3b5Ib2i79gojehqj89r09Uq+CbDJmx2l4mt9wrd4tvOJC6uFJCWwcPq/Exbk3Zi6gXwsoV3HB4S6rvQAzT/9sHmcln6rEfXtwdUGtSrflA12sQq26TdLRBnTuzCyYS+VSehlizL2Bn1fQrHCt+KZsfqI7lpmWdt7My7hbpOHF6GaZwk3DR7uZr+av2S8tm6BATc7VO2cGmxvj8hi040qxpSku9/S4ebAOmVxIFtPlXytcOa64kFZiD9+1xKnPezNnSmae0AZz5DSDTsGhcIcclXoVaHPdA2NjNgR4A3G2ali1ar88B2E9F2kVfo6LdF6cUl73iqqBTaN7/HB62PT6/THtGWm4IXVGHpMx2Ybbms4DX6u+dLmgi7lkQgXaiwfRUfK+FXslXL6vz3z2kuCewk/ftFpccSE1cCtNhnHQ/m5dyDxd6qESGotcQYOMoZHfCHf7CDa54HclnLsKoPnnl8D3Bfi+qu3yw9iAFCK1+nJgP1x+aHXxx723Wm4MwDmp1PHgvcp01J33Zs/ouOtjqaPydPqQfC5/VnbLnL4Xn59Y5JJBnTRwClpQbYeTUv6iw0yrRR/Mvpc0HnK2yluf1eAqCakhl79syG3FabklfVYysEXlCpE38QJ6s1w+NwFdROYTLg9wXjopS3xVABo8ZJA01vE0OlWvRPrl+45WjWnX21gEiqRN4tbLYNkalYopS+Fxe7IoOZSdlU3wY+/InJcH0Pl6FL4sO19PZY7LnYE56ZNFdSHYIQ1GcPMYf8AAh2n02L0op68SJhbRk/cQzsO454Vqq8VVFVKa+dZiUj6T4Rs1+PUQ6AYfj4pq5g9GOuWTQKMOT1keLjWIxEpYuN4ADUoG64iNO5xTUNMQhHeC7apV38FNFw7X6ASA4YYDzwmzuXSNfKkBjhyjvEBBPzsUDXEKs6CdoRB43QaB3Z0dRsfrhDwCDfvZ1BFdjfVYYUhuiU+ic6pZlLBvmNOsHniulZdscWK67CVoaDQ+X2Y6bavHOgvpclTRQ+LUZ0H2orO0KcOFzOj9+aJDDHGHT0da1MxbJ8CtaJU1vqJwRMwhlVaAviq16kvQqlxZNYH68VXr1kIsL5VlFyrE403NrwvGg2mZztXIO4sD8vr81tJ2KNUFE29WKvEpsFrwfSDLMWm6BcflydwnsrvmgqEEP7Rq7w7Ny9kln8J09hWQKRTllVN8dNoFy+M7VAkNv/Sd58M6D+aXU0MSwUoEM9VgfloeyZyESuXUZ9CnRXl9MRDV15AfCzSUHnG4drB8S7BumWBYzgTqZCZUC8EJSDe0XrCQBm94FWk9yQ3XLg5+cpLW5Yfz2+TZmd3yzek98sLsDTjfKm/Ob5a3FrbI+4v9sj/ZKxeyTegMFWRTdBo+aUi3QDEr9flFGck2ynuIp+XhJ5MvylgyJ5/b0qTllAjBvhJNXz8wpl8b5CJ0i5b6eZ15YgLW5ZbW7dISXflg/hWecTJE0ay3oDf/ePaUtGcn0FniGJp771EjcJz0SGyTvBrqkUi1dmJDwvCAv9zGAjG5EG6STCguDRC0xvycGVYqa7+yUx8igbyczzTLH07cI/9l8g4I5y75ONktI7l6Gc/VyXi2TkZxfCbdDCHtkQO4djzdLvOFuPTHpiQeyOrwFt2vGPL69vRuFOjQid2JqZTURkOyrSWh8/bLEfONwxPyb98b1s9nWnDsddumYWmuWyglW+2M0xUVUpJkzfydxXG5FWbGPJTmJzaIv/FIm3wvulUXkmgJK1En1wTcSvAoiHrR7z4bqJXpsJlW7Yb3GoB1oVb1KCQP3ED6nh8t9sj/PvIwhGuPCiaHfPiFP17TuX5snKKkb0qB5nuwTmVa5SMI7GS+Rm6pPa9uAlncGlmUN6B5x5GPBcP5CcwzM2kIaRD58WMP0N74mUhm5cB4Uv7s4IT8xw+HZXQRFsFDNFdP7Rk8jXTuiMZqhfQKLzAhWQXZCjP/pcwRXfGjS8ssBdhzUcMitMsriRvkjUCHJMBUXl5Zda4tuPUy/XuOe9LC3FJA5yY3Ju2ZMcniJtV4+DGdRp6RZzDu2B1Ptcm/uPAkzPkgeJVVAWUMNitNNVzEEjinzs0Oe+pCE8TnazJ/o+M1/Tw7oz8/e6P8w7NfUoG24FoEfqf1xvYaHWLi9GgsHJKZVE7OzqXlYwgxs9UvXpcQkLbGGfnMzsOmDtiqWWByRYWU3QOuGPpS9phs5ZBT2QonNhWfbjwU7ZVvhDerAGvF9NqnD269jLCwJWhp2InaIfNye/q0bMmNq3Y1kRmbvrlJNVtIyD8997S8OLNLEiG+icAIO4eN6mJhub2rTrrq+LJfk/dxmO1DE0lJZtHzp9kG9FFvlP2r7W/I3+l8RZLQsvy64FeP/qq6CozForV4/GSREadKdQENaUUEatYI8uN1hzRFphiWp3d+KOEm/TyGjnBwivgXKaR1EFKtj01UltiDK2buyfw4fm8rjMnt2XPO2keHKIc+VnYS/hmHaKYlqpUiVnrHXWugSJVqhx/uuTGUnwcajTTKYDEpsXxS5dPE5Gb4+d3pm+SPJu6GTwmNZ4IlA233yGCj/MotXfLlna06pckVTPf2NMjujlrZ3ByX8YWsDC+gn2+1HjI/AR/1ltqz0hGeV7eAH257B9rZqxhJA2WbZp4fGKbpj6D5qT01WimuOdgRH5G/0/WqfgS5BVqXr3KfRmf4ltYd0hqlW2ITlO/9WJmErQHYIN2FGbk7fVLyec7OewjCISfrFlCNd8Ob5BwXMuPchRHWTwcqNASCXHvGE2pT8x6ncEFXMgBMx0gm4gx8yT8cvxtCg3MnS66Sf3p7s/z2fb0Q0BbZ3hKX5nhYWrglwnJrZ638ws0dev2WzjpnVb1JPpVPyB+MPmA+GY4sv9S0X7WzJUtvKKccF/aqgfdyphiSX2x/U/ZkL8hDmeM6ifA4tqdSh6Q+M6XlmuQ21ZLMS7giQkpfqx530b35YalH79U84uAFzXxEzkW75L1Qu44lflrhbwqc4d++XaUkEDgdKM7pQHtzdlLNP2Gvc3793YV+7aHzGsOZ5lYI3t+/t0c/oW7hT2lwf2+9rlbiB4EJuhrM552FAZnI1WpYV3RWHqk/4vNpTTaGVheVzouyJTYhD9Qd10d/MkhXm56QwcyofCZzSloKZsx0pVh3IWW9ohDTG/LjsjM7Bj90qQ/Lgfq5YI38KNqvg83GDH5agbqVt2sJ9Nz4zXkzPNenw3PONIbH4eOLJl6Z3a6vXbegq/Sz0JI9dZXm2pcWeMemOnl8c7PR4A672ZHioD/5z+NfaPsRtKktw5uHSeD9JewR36795eYP9QMaFuxr8M0zfGohGnJWRC3LBz/WVUhJA53rzsKC3A0/NO9Z4WTBOzgNLbo/2i3Hi4lrcNB+dXCb1IEGuKENENDPqoCOlx5A9ILco3Y7ke2Av4gDw2RJRELy0GCDxiFsjsvJAa9/ZVcruG00sQVnpRTIe0d8VB6iNnVyKc+rcl+hKF2RWflcwye+fL119IdfGusqpFxhw4XMd+dHpU3XPpYzHQxC2Plou7wNXzTqOmafbqCa5TXlOefxH82dk72ZC+hFl92smgA/kIsAeHYh02hEhEE42NIUg9Zb2pzecrzHlO9drQl/IDCRrdV8GUy34hehTeMeja2+pCOc7q85IqwWpaBalBWxaqybkJIwLgi5sTAuN2WHpGz2V0GR5bTg65EBmYWjbZ9K/HEEO4oPFYZkb/a8pPVmdRq+jCU8PRTtkdmca9YpOHxqU+HEd8VmKTQKIjTEQjr26o07jQ4ZoR/7RXvshDZ9svETFT5N56GHOpin3vSdkTkVUroLPuipJ/EqsG5CagemuXhBvK9qdEC/h/7JJ+FOORKo1YXM1VXh2oSXGzSnd/N5pcxJyfF5JaOuAOy9jYuGnw03yyuRPmmMJ004rqv5n3a+y1QGJrd8tblajJUtqSO6wjNuRFyjcNI3tZrRL9Q2sRHWLBTN11rfNXE1krnOw8vRP+sipOZ5pbzchs5SW24OR3zcww8OsoxEWuUtNfOfbj90OfDG5cZ3Xd2XPimFnOOzl5jlb9liMCyvxjbLFDz3Jn42nBERhbGG5zNmtVI5oyvARnnz3BxagTS4wrSzflZXZUXhevDFuryFBmKT8qXm/Sqw5aDwmdQiO2Ij8uWm/WhvTzxmyk0jrYC4ClhzISUtnOPYXpiW2zJcyIyAMto4tjcXrpW3oBGm4BSsmzq/BnBjcVoezRyTGHx2ztUvYZencQ/GuuUDadKvqbQ3Ir5jUvlLbfr/fDCq5yVo2sqiMZXKyX86MKpTqxY00TNNUXk+ul0+iXTKQqxNwqGohJD5TzTt08+0M08nW2Rscy5Ci4bllzrelKbwojcCjk0cZ1cV1lw+aLq4kPme7BkJ8cVZpYoY8L7lMBOfVzrgLGR2LvxYgVqwvzgnj6aPSV1uRodoSvA2ssOX2QjMfLhftRvHNTc1zkgo6M6t8+0iz5+clpdOwVyvAH/80ZjsG+azT4T5ra9JyVBNUF6AkD4f26bfEXgRx+9Ge6VYE5Nf6vrA8wyUQxh2rMuemvO+kQCFPbT1KT9fIaoXUg8tFiSQZv4O9OZ7s85CZh/I4BDMfJu8CTPvW4vwaUGFNlqKgHQXF+UxCGhrlh+ocAWUaYzzwyPwCw3KERCa+XF47pZn8WhGWurm3Zkq7GfTOfn9t8/LXxyekJm0O1XqxbGplPxf7w7J1z8ek3jYtI/NYlPzlK6eisPcTwRq5P1inbwc7tFpar6Mo6FzQVpq5p3YSOck5FtUfqP9VV3gwsxMsHPgcUbdo9WhOiFlaWUlKj347ctPy63Zc1xsZi444PUQfM+FQETejfTIKF8bU+IwUJbfpwGlKvHAOeGuvpiWx7KndFU8x0K9bFA45+QgHYBj0U7ZBzMfsVbHwUD7uL7KhmBcbscmU/L7b56X3/vROfmzg+Py3Ilp2TeyIM8em5L/+OGo/CuE/x/vDKtAe40cXzjW2zqhtNA0c90Exw9o6fj80wmpgXvWJju6h0wCh0j+7qqblPsbLkgE7cthNH1tj71oogHI1B57yl0JqlsFlZ6V7573rIJCoewstReS8nTmqGzJDOsSMz9IeFA+jvbIN6PbcP5pXTZSAeSw00aJYlaezJ7QsVA7H+NcduEEUFCORrpgdrdCi/KBaOhYShauM34qF5bXPrlRFlIxXx5cpcSFxw3xkDTFwtJZG5WhuYwuKuHqpVjYrC7TrJgQaGuYlYduPCS5grddeERjjl/nh9ffOLRT35hH8NmpL+74WO6vPaVfW+kppqQdGjWemVSa2IniYmqztgshEOTY7n8kweY9uOqWdDFUp0mZt6pxUwjNPN9OtLc4Kdv0jczlAsrOklnI/EZ0AISb3r7Dn08/UFnWlWsSHiwMwdKc940b+5pKecv/opwAv16EXzgCq8NzL3gWC+dksH1Mtak3D65KqokEdT0pBZO+J4ebuJwuHgbvnchWQNkB29o5jHw8AqqREMGTMQ/52MnOHr6ZGhQhXW/LlEhTUl4M9chz9GPj2/WFGK9Ht8iRaLfMo/MVRdvz+1i0pP56+Ou0HKr3SUEgC2QxVO99Ofbmz0m24DdJBH2WhUBU3oaZPweG2xVOnvp/eoFKkkec7n0gPyR3Zs5KStvGW3tPY+GQOmc80qqdFn6kIlwaonMyU5j09CPjsYw3B8CcsXHDEDauHeVklN92OXlh11y7IB2Nc3rVxKiQm/PDXWfDjHQ1T6tfvIMCC+GmW8B3V9EteD3QLM9BWOnLvojtJViCd2BBx6NtIAjqrOI7sgh/uRbVC6lTX6rzxmIGvflzUpdlL9Vm6URAwexAHUNv/sNgE0R0qRB/mkG202ByLPSBzAkp5jjoTs1XPjbsNhBfhPFidKucC/BFEjTxJlwNr2UrgeO6eEoG2salwLdQVEQpsQMcOEVrEH4GO8b0ic5SGEDFQ+iOG7Ixhp/HRbmx96xs7RqR+gQnFUqlqLWIqW9a0DWx7Hw9H9kMLbtDBZaWYTJo32ayHM1+VCekDuFU3vzwws2FCdmWN2beFGtrhgIQMBlqlLejfWrmK8PE/bSBtaJXtBcCypeMcbDe/XqKt4F4bCxTNlwrr8JU8j0DutjG147IrMQql2c0+fwSiAu3FQiemWM3DY9p0akNu5qm1HSbq4aWJdCLbo5NNYsy2Daq32r15+vCdL4KkJGcDjt+InXySrBLpsMNy6SoUC5QvSZ10Jufkbsyp9XMlxfMhcx8/fW+yCY5GzBm3h/HrfRyFb1WwdpQ8/QX5+WxzDGpz06rlTHNQLOJI2+b4DgTrpfXooMQUH7cweWVjWbNdSmZE6E2llbza7Vp6brCieQN1GMTQC1aA3ehHL6y/RkqOPAfi/jNdoVoBsiMtwBvurjOZJVbkYujOiEFNXzstkGycnd+RBrRqzNm3vgsGgF2go8qn0DvlAuZI4758FfEe7ZsFTcePKR6qbYNSzB8AAL6SJoCOqNjoQxz47hHbMAAeEVr88Ngp2ogE+7P03fmLRjqemvniMSi3lfZuB4oU3mGKx0UJQHh3AwtbGeuDJZEXBYl8+8jZu1RlZCSOPqWe2Hid+XGPK/fdomlmZ8IN8pb0X697qyh+XTAU5XyWrG9OcvWUEzr4xID2VFd7EveuI3qcAqJuS+CP+9EeuWNIJ9KsDA5m1vfj/Jz5sGB/YH2Cf0Stfe6LbE8DUE3IQFzX4JL3oZCVULKZ2P4Bry74Gfl8ugI2DENBzTzaZj5g+EuOVWMq/NfiUnXJLSqbn0rCQTfWvcweMPBevpihLnmxPZYFYruoViPfrCXTy24OfOa98yFhlZg6GD7qPqYBt4I1NTOoQNqUQopzbZRpBUy3CCoSkgTaITB7JA0qZmHltD62UrC5CPsfKQNZr5DF5t8qqDuVOU6sSPJ1zo+BgG9PXtBLUipn1RK45UWDtZ3ysvhAdW2ZrjbxLOxKpXkDfPmxp5+fzt7+m6z2rilNLhBaN4HvFoUF/W6N+MNhKqElF8H6S6mHDNmQXbxyxhcyFwnb8LMz0CL+I3PBuXCZYC1NjXnWGhe7i+MyO2Zc8IVtIQ18W7NcQS1xiGeC85g/ThS6vfmecmJRViBXRbey05CasfYktcsenJF2Y216Jk7WtSF93hjoSohNS8XoxnzM5GvjEkHI/IRevMHA+4bmV1sXEasGBWqwFoy+N7CmDyYPukM1hv4OiyltBysb5GXottkuDS5YS7aKH7OeuBEsNfL41Gbbu0alhy1KeLa66V8IZg7ui8s6dFXJwhXBlXTVmnKn2b+bITPK3XrolnDIcueTwnKqm00ZUD2FKb0JbV5DtarA1ih3uAZQxfDDTp1eBQ3snnw0MRlsqVcLYM3grcIT7gZZIcuL9cRAGeXupundHzTJL9kiVcd1d9AXgbhhGZ+NlQr70Z7ZKYYNsP2JaZvfEaUw1c9L3jBucha8fAmmZVHMsclyM93u06oH5omIBnw6AexLf61tArktkI2eUioiEgoLzf0nEck/zAUVzrd0HdOF52bPxcrLHrVqJTvasuqTkhZisefCeCWzQRDcgQ+1iFoBzLfEsLe63oxYL3g0u5H6dxTIS5c5rpQM1i/9DEZBeLT7OdCcXk9NihvBdt0po7hnqxWjJWk6W2dNI+YlNopAC06L12NXF1vwkw+FSmuGn7aluZNaTCvZqpQ7jIVq16TlgATFgzKsD6v1I3GWJrlckMpGxOGWvKrnGfec8bhwmUO1jenx00nEoGlOFplU2+upBf48O9FeuW1UBd8UOfGxWUTY+3B73vu2DSkS+kIatddvdCudC/UUWY916t0C9ttdBGEgDbrC3S93Lw4qhNSMldLN+9nnw3WyttoAC4p44qnSlg5SVcbpgErwYZyqKle0vJo9oxs5usZg874preSOKYoMrzIhd5wg14NdZsFIxX8+bUGy93UMi0djTPai+9umZRNTdT2XjLXng7Lo1LeFBQ3UDoTLRBS/7tPS/DE86JqTWoz59TncXSWPgo2lflYBEs1JS9T/gaFl3XusR6B6Y3FlDwEAd3O9wmogDpxtLo8Nue29seiXfJCZNAswMElG76+4ItzC7ITPXkuBtmFfS5vZr58pa81IQ4rmLFmzRvSCcsWcnJ3+004ZYApeCXFV2/uUQ7fyDwWbtY34S1nPK49j7Qcbq043ckv230mP6zrQs1LHFhHxLHV1L2bhjfwy5F+fUxEx4w9UQ2cuP7AtQGybq2fk919Z5wldWgjLWdpYWtWvFt1X558ImBTok12N/FdU55IK0CVQgrnF0ZvIRhTP+s0P0brjHf4K+v3SdaMEVcBpJ2zSffmR3Q2KanVNbXTevGwdEDGciy0WZ6P7ZAhdYPc2vubyOGR8Z/WECY/fsKbZt88C1WhBZygtSy9PC++BDgaisiTPfdKPLj6j5dVJaScLWFH4Vi4Td4PNOl6QYvyu8R7tpaMWH+4Dcoj0n5HflwezpyQQp6vLrS1Wdo5IDhY/0p0mwwF4mYstJSdG9sE0VlgmFvemoDZOVnah/WuFLzWMwcBrQ0n5MHOW2VHQx9CKtfTQ+4SVEU9RZKfrXmbzystGXbxF7VcwRsfplakn0pud2FaHtCFy5zwBNt8ms9tFopcOlyrg/UfBRrNpIYDzasU01uCG7ZmQOZeCpfFiiJVwEVI5qUc6p2HgHYlWuXRTXfIwxBSA3+BNhuGLkdKVULK7yt9Em6X03y8oaw3X057xbo41LjXzJEGL0dpWU4UC/7lHWboe+Vxrsk9UW2eFenwwjhrvoj2cEt+Vh533jJiH49hvnpdhZX2w5SdCdfID6ODsl8azViohhow6iXpWENUKsulxsGKIiFAw/iDBEzjiQPuazuwY5TOZ6UmFJe+mk65t+NmearnHrm77SYn5lIsKaoCqnqkeSIzK985/yM5NHVcwpzDX0lJVcNhDDZSykV/KpAIJjPqozVSLBQlAwbxXf5JaDqOxVFs+E52pjZ7HNmsSlgSYIAgjnfzal9xXp5IHZHu3GTZgho/KLp5+Fuvx7fKi8FuXVm/UbFMrd1w/vDEA3uNioH85zH3oWBImiJ1Eg/FpClaJ4047kq0SCc06ECt867Ty0RVQjoFIX32/Jvy0dSxZb8+QqFghVRD2RZftiTGNALlhWGII5RAIhxXhtRFanSsrT3eJK3xRikUCpLKZ2QutyiT6TlZhKCmIbDzuaSGp3DMMPN9IX4xAyJF0nDu/eaQFyS1rbAoz2SPymB61Lyh2tahQhIuuHkv2iPPRjZrTSrneqWxDLFe4DJnpbxuiGkvc+4VSLZHbSSBNqiXRCgqjRDK+kitdMZb0CYJ3TfgfK1RlZDOQxheHn5Pfji6X6JBs2JUWVE6MDudknMqaw81XH80WGFPVSCpKzWfompK3pl1MKHN8XppizWBEc3SEmvEcSOTVgSFcyGbxM00p8ekdyo9K4v5lD6LNZOZVxeBgjubXYAW5KouaEN+QUtpDMBYZ+SxzEm5JXNGP7tNGl1Y4hETxHJoan+0T74X3QJ/nT46byp/iqsG5aWz2WMlHz/aKG6QVQr2j4Nm7PRQKVBLsh2oGDggz/AuCKXe8EtgC1obVCWkvKvenvhE/vzUi1IDYl2wao4WsRr0InCF0qRqgOlugFDWgxmNsTrVlh1gRGsUQgmNeblYhEalZh1LTap7MJtZ0M/8pBG2WMjgfF57o5JbkPsXD+gDhqkiBRgNoVXh3m0UW7tjkQ75RmynLAo/62O0Pq/5GLsk4CrAozSIkkCiztSTMWjHJvC8joKJrTnWIC04554CSa1ZDVii5VU1qEpIiZPzF+TrJ7+vDW810aUawTCFnRwIJRKw0o3YlCHRBtyhzY5QNsDXXHuzsRxyRQhsdlFGk1OSwXEhMy23zH8oGWjZYnZWhBuEuJiZ0eMCOgkUXC5NPBVuk+cTu2SET8OSlZfbImsAS4KXFOU8+a9tYP6oHWuhEOrgRjVCGHlOX5Ifp6WCiENol+Aq1K9qIaWf9zrM/UvD7yrN5StbDBuw511aSShxd3bAdKtQwnQ3wKSsNZbn58o5XUyNSDE9jl5RUgrJYZyPSTE3D4GdlmkI9quJHfJJDvoTrkS6kOXtqnXVDcXYYy3yioECyV/8qZYUCFzEmG5aKTXdMNecR1dt2aBtcLlYOVdXh6qFlJiGz/fqyD45OHNK/Twlku2BLNkhoemmI+0KJXp97OzAt6yvVigvyom1ZdPFcitAeKeSY3Ih1CRz6Un4vSmZh9DSx6X7kKQLAV84lc/q+bIjDmsA0klh5J4PSYI6x4dMqDtGwWQHswUdnhbs6VNWM/OzEqxtCxhclpASHLT9cOqonJkfRu8a2gZ/XPJMc9EKgeyCtrwsobzGwBuXnbU5CCxHQebRgWPHje5EDp22BWfEgYK74Iw4WIE1jbt0xKG84dlkpq9tTHjYGQaKQVuyo0lNyUF0fglZTTf2vEWuVVQhpMvfK2wACm0Md2lFf+bHGNPZOclAq3KIjBqXgjwJH3chCzehmEFYCp25jGTzeTPioIJqBJYCRqG0w0DGZNeqNlRrFeMwUCsUAXvc3H+6FMJla9JLYnmZvg6Aw2IUWr7zdR5+bzqXleHkhI4+pAppdaN489NtopZsgHDSf6SmrAvVSFdNC9hbgcGfIr6vnSa9LoyKSmyohjUcCpvPzstQclImoHE7Yy2yqQaCCS1ajiX5OwGfliZZI01qs/g0sOTyUFEwKgSuqwAtk/m6lrmOqDRdUAVY9fLqkyU/fvBNL1pUYM1lC8uSYjwBNvOyOJdd5lXCGglpJRiWVGiyTzkuLgrs+CwfpTK3KoYuycMbwBRuOZVzvXZQnZCuotYXb7IfF7gMK3VyKvLQXCu/xEmBlYORmY/L+Wu9Dda/d38d13GZWEdzfx3XsRYQ+f8BAgTpiMP7faMAAAAASUVORK5CYII=;" vertex="1" parent="1">
          <mxGeometry x="560" y="130" width="118.42" height="110" as="geometry" />
        </mxCell>
        <mxCell id="V_7yEhAnlDN46QahRNtS-12" value="" style="shape=image;verticalLabelPosition=bottom;labelBackgroundColor=default;verticalAlign=top;aspect=fixed;imageAspect=0;image=data:image/png,iVBORw0KGgoAAAANSUhEUgAAALEAAACgCAYAAABDo437AAAAAXNSR0IArs4c6QAAAARnQU1BAACxjwv8YQUAAAAJcEhZcwAADsMAAA7DAcdvqGQAAHTbSURBVHhe7f0HkGTJeSYIfqF1ZKTWWZmldVVXa4luNNBQJEDOcMghuRzMzp7ZzO3e2Nit2Yzd2tqdjRn3zuxuz3Y4O8sZHo1LYocSIEBCoxtAd6MFWld3aS0ys1LL0Frc9/mLyIyIzCyZXejC1Ff1Mp7w58/9989//393f/5sFQL3cR/3MOzV3/u4j3sW90l8H/c87pP4Pu553CfxfdzzuE/i+7jncZ/E93HP4z6J7+Oex30S38c9j/skvo97HvdJfB/3PD5+Em/qoHZjZLcS9W0lQzdd58bbivMTiY1ycr0c3kHuN1lwHz+JbdVfJnzDWRo3manKSmQWGo+a0BBn853XQ92NummjGxns5uP8pKOWk+aCqM/h+teaz94UNllwd3ECkB5z+6mvJfJ6MSQKaeQrRbS7w9Uzt4LmJ1SqZ2wbPvPOcvSLxs2mfuNwG12J5ZOYSM9jKR/DWHIGy/mECeeyuzAY6MaByDb+dlmBNwF3jcT1Gb5Z8d0I+XIBV5NTmEovYDw1g0wxhzJjL5aL6PC2otvXDr/TjVZXCO3eFnR4Wm/43A3TdlMZaL6wWTndRGyQpHVP1528Xk7GUtOYJGkXcjFTFiqHAsumWCkhV7J+BakDt8OJsCuIB9t34emuw+b8neIuT8VcRxS1U9eTUhW5ch6jyWkjqGupWVPDRWRt2VIePocHZWYnXcqy1jvgZs2385+T+06bEw67HREKsN0bQYvLT1JH0O4huXm8sb61cBPJWxe3e9/Hgc1Ii1q72cwiprKLGE+qDGLIk6g5Ko4iW8F8qchQMt/4JPO/8Ylq30S5FncQn+p+AI907KteuX18oucTi7RXSdrpzDwFNkeBxUlYCkrEJWlLlTJFZIdNcmIuAi4fSVxGppQzwqsZBLUc6thhs5PgJHT112lzcN+BCIUqwWoTucOuAHqpyRXm+mikhp5l0vNLgmvpWZJ2CTMk7lw2akwFaVaVgbRsifuSdS3PhrSNImk+NFA5Dfi78Jsjz6PN3VI9e3v4RJF4hbTraFpLYCQtpWWnRtVmiUcgYZmNoJMktlWQrRTM9VKhiHLRasrq0Uhua99GUjsNsam1q+R2UXv7WTFE7E5q7PYVcrcxnMvc98uEHBWDzLK57LIxD2ZI3gK1a4GKQ+ZBoVyqKg6LtIawNw2FXaWazL6Q048X+h7BA227qmdvD79QEscKScyWo1goxqlp6QDkkiRs3ghODlqRQlO+jdB0AyUnYi6PzyG5nDDHK3JkOL/bh9jMEuavXEMpk8PWpw+g58BWlPIFK0xNjtpq+/qt7Vt/rCD8I7Lb+QwRWsSuaXA3fz0OtyG3tLVsvLDLb/Z9Dq+J417ANLXrdGYB8/koppLzSBRTxiwo0CRQOajVU0tnNzK+OcpKZrYKQ143sKVGPHY3HqM58RkS+U5wV0kcpWadomkwkZrHVGEJS8sLePsvX8LVYxdQsJdNEyMNmk5msUAytraGzFYuV5NIwSi5hVQWrT4PwkGvOdYF/dqdThSyBQQdNly7NofuLzyCI7/zvCXPO8ymxG5FYRWA4pStLY1skVz7JDePI+4QekhokVzk7qTNHXIGdPO6qKVspdxrD6ih+fg2IMUwRe16LTVnzAM5YaliZkXDqhWUP2EUBp9lUVZbLXU8UgvooPmmjYFsFrtNKDFd58qlsjmnFlDKo1Y+zZAU5bM80rEXn+t7rHr29vCxk1i9Bxfi46bLJVFIGSeg7LJhaW4BP/5330RPNInHqS19JKWyX6EwShREsVCA00mCOByUCJswErxWmLQY4HLSlqUwV8BslN0uZYja0I4Tp8dwnvvbf+tZ9OwaRKlIh6Oa0/XFentYJbe1r3hlY3scLvNryE2zRBpd5O7zd8Dv9KLNE6bm7jBN6s2hKdU3yIQUxrU0CZulPZumwqA/USBRZZZJw6oHRxEYskqgImU1TplWdsrXIiv5yTIokpDLkwtYGqOZd3kKmcUEYnNLyKdyhqixpQTSVC6Dw93mvi0P7sTeX3+azjSTWpVPPSQrVXg5di/0PVo9e3v42Eh8JTmJn8+dMA6BbK0ca7xquptknb84gTf/+IfoTWbwmcf2oquvHU4KyU9BeGNpeHjeTtKVKbyC141UZwtSHWFzbGcNl7Ar/GN+q8/TToUklsScJP3sfBQ/+fAiwi88jN2ffxjFXL4a8OOB0lHPKRVS9b+1z81BMovcdtneJLib+yxx7LHl8IybFdPdjoqnFXZfP2zeHrHHxHUzkLKQebCQixqZZ4pZI3PjCNf8CROSBoKYWQOTZnfa4XCzorElq1CBxCm7yeOXMX/yKtJUMgtTiyRrBl0tQUQ8LjCp6Gd5uKiZB3vaLKXDcpEWljKKJdN48/gVZEjoX/t//jNklpPWs4wcrGd/okksYb06cxTHli8gnk8ZE8E0PbSTXH435i5M4NU//Db2UmDPkMBtFF4nzwWnluAolOCgIGwl2sIyIaiVy9pcTpSpGWL97VjY1ociiS0yN4DZqHgoXt5nYwVwuxz4z998A+VnDuKpf/Z55BLpakALq+LcbCjWOpE2PcgitIUsZbIFaXwxfxX9pShbIaafBQuHhzLjrzsCu5+EdreR1J2s0L2oeDtQpJ06Q+d3imSVAxylljWEJVmNP8FfC2rizd/qMZ8te5W/0rQirkyEhSvTOPXdtzB5ahQ5+hLdETqylHGQYXraQzwOGZJ6GN7FclML6PWypdEvFYdhkHmOlT81mqfPX8OPT4/iyH/3ZfQf2m58mXrollVz4hNEYhH4pzPv4/35M8iWckbjGPAR7oAX82fG8Or/9h3spgA+/eR+9FPztl6chG85RQIzk0bWtG9rMq9CJoLiKFFguZAPc7sGEKf2Ns1fNfnaL1NLGBIzLq/XiRdfPobRthAO/ZPPItxOTc4K8nFBSa7F3pT8dZEnEQeQxWcLVzGcm2ay6yullV+jie0iNInj9OFcYBfecI+QUGnjfMmOVf94TcuKrDXSWlJphGxYBxWCmvvliXlc+OmHGHvvPEqxFI5Qaw53RuCTpmUYL39dVAQe/nq8HpOeivFNlDbz3+ybX+vA+uXz7XxOiqbFmyeuYJoa+5n/628gn1a3p8IogdZ9cpAf7dyLF3o/QTbxG3PH8MbsMaSLIrCSzKj53xPyY+KD83j9P34X+7n/3NMHsIX2Vfv5CbiYWZNzk0MLVVms7FRj4h/L5ixSsDP7tmB5S/fqRQm5polJYicL4MKlSbw/vYieLz+BwYd3UxtQQ5mILKw85y5DmrQVOTxXGMXB3ITpbrJytpIZ7lWJSII6WNhnPb14xb0DKZuP8k2pd9z6V28aGNTiqP7wuoOycPncSC7EcfHlD3HlrdNI0EQ4ONiJbV2taG/xoyXsR8DnpXZ1oMwoyrxPraCDZp6HJC+R2FIgFWpum2QshVAtj0ZYeXEy3PGzY/jOpSl89Wv/GpmlqklRvUFVtpuV+DfD7ejZ+rvWydvEppFYzdr3J96kAzdnNLC6ZpRJHwV05qUP8P7Xfowj3RE8RQ08MrWATjpezkyeFbMmBmaegqkYB4wCkhZX0njdxiZMzoUSqs1OIZbYtE0e2Y7loU6aFpZARWIjYMXB+4ok81//4B24nj2Ex776AvJJVZgqTAFbu3cDepQeqaGBMGn8VGEcD+TGQMrwX11Caumq3iB397y7B99270LREYCbcklSE4vAq6jt62YLMhdcNAny2TxG3z6NU99/xxB3F7Xtjt42dLeGEQp6EWQLKSe5RLmJtCJnYCmO4GwUgYWYka1MNzncZWpwtYbyUeKMI8XWzZEvikR8olLEMqim28mwo2Nz+O7pq3j03/xjRHparZaQ10osmwgK+HxlDntbRuDY+lWT5tvFppH478Z/ho+Wzpt9I2DG6m0J4MyL7+HM11/FI/2deOjwNrQlMug9dhn+xThrO4lqMs3MFwvwDo0gcOAwHKEWicPEU0rGkTrxEXIT4wzLwMbZoU1HgWRag5hknEkK1QjaTU3MuAyJCTWJf0tbL0qt/dg/+4JaMV6uNfoydTYl64TiqRGpDk2nRVZa93iMBH6GdrCDaVklsBGEtVsFc4MxZxt+6N6OSXsQQTqC6s5LFqokrovbEg3tXOZZZJmgY3b8229g6fI0trSFDXmHuiLw+70kr4/2LcPRAZazrXgkbR+dOPkncrDln9hFUBM5N5M0lgrJLK0svyTJ+OZ39CPP+OwF5qRqJggyKeZZxi+zrD1P7MXBf/gMiqxQepyd4fYWZ/EPiqOwdT8P58gnQBNPZBbwnfHXMJmaM11KSqmXzsFZ1v4z3/gZHh/pxcMHRuCUo/DhRbRdnbWEIuFR4HZq0NAjT8C/Yzc9c7/RvDVIM5fTaaTPnULyxFGUUixAFpYgIs/uGcL87gFqEbvVO1E1JxS3bLt3P7yAk2wSt/+jZ9G9axBlXSOqj79rMFWScjlSmsGn81fgKWVNk71KkDoo7eUSJhwteMm7C+P2Fp4qw0uHr5nE6rd1UH5lOsOzZ8Zxlkpj+uw42knmXR0tGCR5W2kqyFzwkXglEldFvlLqSgMTEJ5cRO/Jq3BmC0aupoXUpfXAe6V1pZnTrSEs7OxHdKDT8mtMZpg63p+j3N+ns3iS577wb7+KHE1HyaG3nMRv5s+ipZyFvfcLJPFvm2hvF1XP684wS085XcxU7WDAx5p/js342b9+BU8M9xgCy6HwsonyLybY5MtcYEBK0kZihx97CsHDR+AIho1QKyyQ2qZjRziM4JGHETzIMD4fiWppUzVdoZklOoZJY6utoCp8FdhQf4fptouOzZoCF3S5GmTT0RBv9UEqVtYtHCzPGgJ7WXiGwEKNTHVwkcCLjhDe8m4zBLavMM6CHDQnbVw5y3Hm/60/+h6+/i/+AO/8L3+LPmrRf7h/GP/g4V144tBW7Nraiy6S2UX5F9QNZkhci4gbD1omFjDw4SW4STJVNGnbWkNVoQNZKVCD0p+oVOVu8sT0y/QI0uToZuWJ0FGUhrYiVbQ0JVlpWpnGhYlF0xOiVidEg+qxyiJai1Eeb05ruCkkloesIWLVPie1wmt/+G2c/D9+jGeo+R46SA1MgqmOKsNu2qU1O7iczyO4/xD8u/exYKw+SsG6ugppGdYCEvlReEe2Vb1kZp/x+klgLx2PFWHoZhUEd0qlCnrpuFRYONH5GJ09S8Pfudg2hp67Aj2IG3UbdiGGTxUn4StnjF1soZoP85fgaUelhGXavm96R3DO0WaF5B8jW7Y0PppoefoSH379Z/j6f/fv8dL/+L+j5eoMfp0m0z9+Yh+eObQNe9jE99L/8EpDk3g17WuhLn2ElEDf8SvGgTOKoJrmSk5OMLX/lhG0PP4MQg8+Ck9XN8mcM6afAdOksvTKDKGTrvKtVBWFoNbC7/Mg6HZgiRXFzUvDxXnsy46iaHopqgHvEJtCYo0KJamJReCLLx9F4v3zeG7fMA7v3WJG3GR3KXOudBZO9RCIxDznoDfs7hswJoSldZsKldC+yasqiccLzwDjbAkbraDzcuRUMRwU+qqTKPFZpSHt28MmL8/CWhin0ymzo+EJmwnj2lT3LTBl2FmJ43PUwOFCzPRMrMJKby3Vdg3/Onw47hnGcXun0VzqZfGG/KZCnnzxHfzVv/wDfPtf/SHwwXl8YUsP/qunDpC4W7FnWz8G+toRCHgkWhPemA3VuBvAB0rbSm4y7VxpErPaklWYBg2zBR84gq7f+j1Enn0BgUNHEHzwEbS+8Cvo+PXfRmDPAaOdV0GysgXouDBptbJV6OlejxMhPmuaJO+xZ/Hp4gTzaTn0VgndOTaFxJplZk3Jg6lhHpK5kyaFbFIz74EJdlNQzpz0sVVkIq1naBjO9o4VzboeTOhaKbNpc7W20/Gj2UEtYYTAaw7azbLjDJqiKvL84EAHfLEkYmMzxnwx9uSmiK8ZDXoYOYp3ABk8VZhAW2GJVxuvGzADOqdmvCQCe4fxjqefplXA1PXRd8/iO9S2f/cv/wOWqCCORPz4J9S4zx/ejgM7BzA82I0Wktwibp2pcD0wjPSFfzmBMCu3BpKUCJWJM9yC1k89TxPvabi6e+FoiRjlYacZ52hrh2fLMMJPPouWp55jS5qz4uO9Iq9/KW5sa9nKeoYqUYCOZB+VCMYm8aht2ZgRJdr1BjeT1pvAppDYKhi6HhRiuJ8ZDfsoUNq0VYnqr5oru87VzpCEDl8Adpebd1ZzU/1Zg9plCkqkV++FMTJ1ThUklYNLnu+KJl6FCnZosBNFmhMzl6Zom1UFWE31xwHFrMGMQRL4hcJVDOVnTL+oKLxGN5rWp0yb1YXR1hH83DeEsfOT+PHv/zn+5p//O4x94zXsoxx/64Ht+NyDO/HwkR3Ysa0P7e2W/1CkTE0Pw4bCWwvJSf3zoZll2rXV+6gD7F4v/Dt3w09Na/f6rNZRLZ7i538zksp9RyCIAM3A8MOPo5zNmgxLk0tRtUyRxLVKwTISibvDQZTOncOhwhhboqrcFR93q0d3hE0hcX1S1LGuoUwDc1oppbZh5i1rQSfrk163X3+6hoZzJAG1roRbFb25XGSTVeJzjRrSibp7dCpIQbbQySgmMiik88YxUphaHJsN2cARFtdDhUmM5KZ4Rq1GLVGriXMwHT6vzIUQ3lgK4X/4T0fxx//Nv8NHf/AtbKXp9dtHduJXqHEfP7gNu6l1I34Ppk6P4vRbp838BiedJTMCZyqvcsOtKVPrGRTGlGD8QVZs48TpNrZy7s5uY/uapr7aFVmLWTC/CkuTQyagb9tOuKhUjKNdDSjn0JNIW3HwlIb/vXxGfGKa6aTJV83/OtX5trFJJF6F0b5KXW3jHzU1uaDfjLSZ2WiCw4nc9ASKsWWmQoMj9VmqZZQwp6vHFEYxHjNdbrVpgGJpkeaLOuGrZ5pQNibNQG87KnPLmLs8afVSqFJVQ2wamFYZVerIf4paZ3/+mjlZ/yT1n3o9DjpoHsxHs/iDvzqH3/jvX8H/8Ps/hWsihn+0fxi/8chuPEUHbdf2PvR0RRCiuRCj0/TRD9/FzBunkT0zjQ++/Rbe+KtXcOG9cyhksnB5NTzNfPFR9fmqGisN0hU0SCHCGRLzqp0tgZuEtMtUEymrNzTfV4O0rKOlFb7tO6lYpKH5n1HJNwksxE28utdjK2PYzQrjZEudU19y9X7+VnfvGJtE4iZC6KAphWWnHXlqEtPUECJhYX6OhEwazd0YgyU6ZdSCdWx3u5GfGON9tG3tVk+DKoXitSqIJMmTVvAqSHwWipweDZ/GRtXVpjQ0JfBOUI1K3WbKyb7CFI7kx+GinyDnTAXndtnhC7sRTxbwn793Bf/1/+0N/F9+/22MX85h+/BOfOHRg3j+0AgO7B7EFtrw8uplCsFhQ2x+GSdePQb3ZBxfGtiGX2OT/092HcSj3nbETozj9b95FSd+ehS5LM0qyqEh+wZrK6xlxayGtDldgDEhqkrG4DoyotxlfrjaO41mrj1Do6kOkVr55t9QKY2d9hS6g15cnIib1seC9Vsj9Z1gk0jcmBL1F1tZWIX6FDNtIeTpPatHwWSS4VKnTyA/PwsbNcEaiJRV6Hp+ehrZsauWQ8HoRdoCTYVCwGuaLwu6p+4+biqYvm46KNQ8y3NRap2aXbxJ4ONUhHZS9qHiNLXwNTjLxRUCa0j3nePz+D//27fwT/8fP8fRd2bxKAv1qw/twOHD+7B39zB2DLMppzOnVkPOqNF0rPAJev2n3jyF4GwKn9qyFZPpBP726Ad44/JFeGhK/MauffhS7zakz8/g7W++jisfXjItjfX61k3AiIp/eI9NI561Uware6uoK1dlrjrw1HCeUFXw0aTaVlmGn0mx06c/eW6ZeVpNV4HlFzMV4M6wSSS2sqtsqIbP0+tNUytYtpoFETfV0WJIt9IN46RJMXENyQ/eRSkeN5q2Edb9Njc1eDKBxNF3aIJMUgtXBac4WTGyIV+1Ygi8p06eOqsGXdq3S2+JRJOIkcgrdvstYb1CtVBgU767HMUzJLC/nKUHbsWvmWAfnl3C1755EV1ZG/7VQ0P4vYM9eGb/ICLbRkyTLDEVi+pZkFysZ6il0rTI0ZNX4J9K4OmhEYzHl3GactrxxKcQ2XMQH8zO4vsnjyGWz+LXdu/D05FejL51Bsd/8gEytHk1f6IqgDpIOFW5SkmYXTb93K31ElWvmr/1sO6sRqYD3VTVuvXQaZkRg4gjUMjS7neiJ+jB7OLqgJhKMOUI4qR7wBzfCTaNxEqaOtZbaHuCTWFhpVmyEi2B5Xlew5SyXy2p8fH8yVKrLL34HWQunaPGdcLuIdFJaHnIImzm7Cks/fgHyDCc5URYcapbLd3egmxL0CqQGlbtkCrkxVtdbW7alksXaRfXaYQbQ/HVtlXUnihHbm95GZ+mHRwoJY0HXgvpoDlweSIJV7aCf/xgPx4eCqO3qwXz/nZcK6gXx4pl1Wq17tQI1+z4LJInr+HRvgEkS3mcS6fw6DPP4dPPPItPPfMp/Mpv/S52PvMZnE/E8cNTJ8ygxueHt8MxHjXmRYrKxBC5BhO1nlNBifkv+DTXROdpr2bSKC0tspWqDfmvNUGsOy3I/i6lkshNjlsKoXqxyHRn24KIFFPoz0dpygEtPhcGwh5cGE+omTYtVtLmxgeeESTtG7+2dbPYJBJXs8aaHIgE4aK2rWW20QetIMkCzLEptbQAN2aqXCzQVJhE9PVXMf+Nv8TSD/8esVd/jMXvfAPz3/orxH7+GnLXxq0O9iqBpc0zrQEzCcjysKvP0eU66dd2ZV8O9nfARk08f3WGzRoLqz5p14UCrg0s4WkwY1slaQjcVlg2zahQH1rk6gi60RuiTVyyY9TegolKyHJuqgmsDy9zIDkfQ+haHF/est0MFH2wuIiHn3gaDz3woJmcHvL7sXVoCE888gi+/I9+B7s/9RmcpZY+OzWJB3sHMJJx4ALNkGyi5gTzCVUZSfZFKRS2YiutIluBQnQJhTn6G8ZEuEHvAYlbJokzVy9Zc12UF8UhBdXqxQ6aEfZq3F71UDDOi1NJI7SSzYVxTx+O2duxngV/q9gkEluFoE0CMwVTTZvVrWZBmjPZGUEuHGio5aY7hjW7GIua2Wrpi+eQOnPSaF7V9FIiZoQkwdVg4upqRSYSMP3PVoD6WC3UHq9ek1DABz+FmaGG0hTFlR6O24QGM9QX/DRNiK78Agnc2BNhwLzNx3KYWsqY7sdZVxhjZjJmnddQJyOF1xTSa2fHUJyJwev34SM6wAN05h577EkziUotnm5W09wSCGLnth149qmn8ZkvfQXo7cf7lOFcNI5sNKWMV8WiP9YTVSZ5+hEy72pEY80xBE4cfY8BFLmzMVnVTZATqLKKv/1GtZ+YVxi4wNaz1OZHPxIIFjLG0a3F4aHmb/GR7GyZlhwh/NQ5SBkI9U+5PWwKieXAmKRYeVmFpFXLeRXSKomeVuRIqJodWxOQmiW956VIytXhaZuDx832K69rsom0sN7BMw81z+GO9rWtAw0K9HZF4CCJl9lU6w2H24EeJROiz5bDc8VxDOWnVwi85tEMHKZN2BpwYYY24FW0sPCYz7qQ4kANcuaWJheRuDiNgNONY/IBWtvw/Gc+j6DPC4/HAxfJsrS0hI+OHcPffe/b+JM//SOcOXMKB/btx6OPP4lKKIyZQhqdO/rh0UT2FX+hCspB/eq5sJ/lYZkbxn+hMkhfPI/Yaz+lDxKDg+ackb3IqArPsA6aeqXoIqKvvEQFc21lRqHR7iwLe7sXg1m2SA2PrBgSu2hbnLiYxFlvL+bhgVVN6jJ/m9gUErdUpJMqyFQcZqRKmlVzS9fYpjxUzdeE6iwFuNKUVaEs1fJe7xSuwmripHlVETQpe+WG1Z1VsTRcY8HxeZrV5lqMY/HSVKO9eJNQ3AX+FRUfyU9ge26CR9Zghp6i67XnKwuZFE2lbAEJTxgXbO00P2jzrybMoD7levtkeXIeHQU7vKzQV3n84MOPwkfSvfXO2/g//vxr+OP/+O/xF3/+p/jRK6/g/Ng0xibncPn8GbhdLvR0dqKvtw+hvjYMH9lRjbcZ1hMzLINET8QaiRNI2Eo+x1bwBH2U7yH+xisk7JJVFkxHfmYKsTdfxcIP/t60mPW5UEm6g3b0dFXg0My3FSkoVzYUSOBEyYZsxwDedXTTjGgs+zvBppD4kfw4/mn2GH6zPI5nsIxgPoMcEyyNs6KlCWsgRIMTLiM8092mc1WsZrsRDeIwWsRpKoJel1lpDuskurK7cqO1I7tYgweuXBEJOnjSercKmQFBet6PF69hP/MtO7BWYLXHWc+vmOZ+OZ5DMu+APdyGRGUtgesTLicwRls4Ox2lHenCdDaNvuERPHjwMMbGR/GzN9/AFRI2622Hu3sHIoO7EekZhsvjRyy6jMWFeURaWtna9JgROI3oNWrh2j7lyPMyKeLdrcY0W73E8qI5k5+eQvL4h1h66fuY//uvY/6730T05ZeQ4Lk8zRuFFzkNuF/xOOFs8yBEI0tlvgJeUwuYzRex4PDhXM9OpMuav1J74J1jU0gcKWextbCA/dmr+HTuDArTE2hLzOCQaxndtrR5m0GELonU1M7qM44NdiEboWMhAdYyVJf3ul1ztXasznT1N2foQBpVd9OwwsqmbKMGKtCk0NBtY1ebwmwcp+n3ZWoOFGfwILWwu9oXvD5scNtKuJr34lS5zcznXXFmG1C9n6fFN5fHDRvJd2ZqCudJlhaaBj6fD06aVV6fn+qOTjP3Y9F5LFw+gekz72B57hri6TRm5mZparjgD+ulWFaI2SXjJK6iMa0yJTJtYTp4YStttaRJrpRLOZ9FfnaGTvUY8pMTyC/OmamYdpl4ioqb5CHl5PLaEepmpSk0aliNUEYzBYwncujb1ocxWxBO05W4edgUEsuALyrjZRoThQS2tjkx4C2hJ7uE7fl5HMpP4YHKDHbYY2ihHSl5pb1eRHvakFe/cU14tV+ibtdg5Zg3y5TI0qFrNkduBtLGfbzfORfF4pquNj2l+ckWpG3VrpjBjPwoCZxf6Qs2aLpNo3WL7gjeigYxv5CjU1ldrajJxJJzqXnCepHT6XYg1BrC8KO7MfyZQ/B0BpBNJEzUrS0R9LW1IjE9htmJKyjkMghGOtA2uAt9Ow6h7A5ifII2KsvBHwwhEKLmj6XNOh9mfoWprFXmmb9KCzVkyI94f7t5vWsNGJdZQIVkN5vpn29Mf4X5kQzdHW5jTiiLBtVgokUsXcSZvAvuQ/vo66xWeyto7Ybbx6aQeAVKMTPVQifGo6aagvGxsFsrWXSS3IO5JezJzeJIcRKHK3MIbPGh0LbqeKyIZyVfKw2WgbS2XlJMdlLTqFBuIv8rQq1C/cXbh3vgTmQwd2WaBbzOSOE6kB28q5LAUyRxoJRmy2JhJX11CXWSwAvOEF73bsfZgt6NY2sV1oqdjYmRlozTfPjoe2/htT/+Lt751usYPXUZvpAXu585hJ7dQ4jFY1heXEBrezu62tvgpmM1SNL2DO1CpHcrgp39CHMrVuxYmJ2mCWNHW0sLuvxhnH/5KN78y5/g4vvnUEhl4Kb5ph4SCUWV0phmrDjJjhbj5FnnqzA7ylQ1Y7ULTfJUxXQEHPAN0QnktRUxkAcK6mQlXc7k8VHShu4Hd6GsCVxWiGrYOsHdJjaPxHUpk4JUeRnfjic0KUaZ1VBskE5gB0nQk41i2BZj4djg8Emwq1GYymBgCVV/9StTQutNZKitVuYP3wArUVWhdOi1mTa/h05LEul4imGqgfTTFF5PF4H3VaL4dP4qQsW4yc9qChuhNzNyTj+Oe7bgpKMTqVQeBa1oVNes1+5RV5k/GMSeI4/jwce+iI7wFpoHc3j7b17B63/yPYy+ewZLy4sYZ1PucXvgo5ng9vu574Yv2ELN7WW81JAaeMhlmZcokukUIq2t6GnvgMfuw0DfPpodS3j7G6/gtT/6Di68dty8vLACJka9PNHBTjPnoTn7K8e1nZpCr0LD284w7WFuUkZW3hSAPgG3LCvX1YIH8bINEfoja3pKNgGbq4mVvloamY9ay2nVSV2SH2+RWkz3FPII9rnhaKEAqiNX1j218BZEGQk4NtBuHDr1Kd8JpI37GY9jZhELZ8c2nEuhpOTgQD+ydOQm0FFYZPpVeaoZW4GVUjttvazDj/fcI3jf3k0zy04NmIaf2qirvYVZtsLVzCdVKDX3PVu2YMeRh3HkqU/jqc98GU9+9h/h0Wf+AQ4/+Xk4QxFj68qBDMo+DgSwODuB2MIURi8ex8WjP8Ol915COrGAUEcX8tmsIblMCi/D7z70IJ554dfx1Gd/Ew89/xX07zuAYlFTIi3IwZOjnOhW/73faGfrgvWjo5Uiqd8EisLud8Dbb2nhVVgHMmFmig5qYSf6d/SZ/AoNQZuObgebR+KmclW34uop7VlH9cGUJ7uXTdGAn4Vl1eR6v2clLM8ZQfe3IR0OQEpYLxmqUtwYa4VkTIqRHriiKcxcmjQ2qYGC1gW3BjOy+HRhFP207S2rcb1nqmm2Fjm56O7FO45upHkvc4R8jnqccfpo89YKsT4KNQLSph46bZHOTgyMbMPI3gMYJtl2Hn4QQdrC0aVFuFva0D20FX0d7VgeO4vM/Bh6Wrx44vB+/MaXfxVf/Z3/Cp96+llq6DBctIdb+wbh8QcQpzmyZccubNt3kHEepA3dZ1asXGlLqj9ylI02LtRs46Z86rDplNjjogJydXhWlFANei0/6/TgRNqHyXQePQdHGMYalGqMpjnSW8fmkbguD0pWNF1AVp7qemlcCcuLzLyn1wdXpDpoYZ1tgATk6XRjJJyhgziLnc4oOm1ps/BInn+NuWK29bA2ASKTXqJsC/jofUeRoF3a2EthDWa0k8aPFcawNT9DImoi/nqZEWgXOlw47RnAq85+pGwOqyOfwTWDrkxi1JrR+jSKvNH5Zbz5nW/j7/7of8Er3/0mrp4/iyJbKCdt9XBrO9ppFpw9eRx//B//AH/zJ3+Iq6eO0XRIG5PogYMP4FOf/zIeeu4L2Lb3MOKJFH74o+/jP/77/w9++Ld/idkrF/D+Ky/ho7deRzK6DDedaWN+mKevpsSyjZ1INmhj67ooV5/m2oHy46AW9g1ofot1bhUV+gwOLLhCuJasYDqRxuADO1AyzmMtgpW9OwbTW1MPt4/8uT9AafZ1GoS02+jU/d//w0dwzhfwm4d7zeSPZoemGTanDbnJLJJnEyimihRKHVl0Kw9D+8Pwy3kgCiyIPG2tXNmBAm3FuMOLpZIbcXro4ooj3ziDzkItDdZ5rXpz/tIE3pmYR8+vPonhJ/aSHHqLlwVKAlur9IzhcP6acdSMT61b18mKZopccHebRU7m4YPTxsrLcO6gD0f/8mV43j6D3/jSo8iY+OvA+IrZMpIzdFjnsojGl5BaXoCzkGX6rNYhkYgjz0rRv203Iu1dRmOnElEsTI2jsLRgRvFUAbUUbpbPdEba0drWiWBrJytQAQszk4ipaywdN3G2bO3Ajid3oZivuaYCbVnZtjynt5a7T48ZUhtskGfB2+tB+AHauSvXtUPa856YK4iTzh4cY3zfvjCB3/3j/x55+gYGvK5K4GHFf6RzH17o/QQsKGhIPEcS20linxN/+NfnEL+awpd2daIzRAeqqoWuCxrDqTNxZMbTDTJTv6Nv2I/ALjpzcgAZl+QqgUlHVDTmz0LOkdRJpw+LjiDmyx6jSa2Fr9aHITlNgK//8F0UH9uLp/+bL5rJMiKr+rWfKIzjyfwoCay+4LUNVi1mEfiqsx0vubdi0h5eeaaIlU2mcewvfoq+yUV88fkjyOabSMywdpsbbkc/bCU6rMkYkrFlEjtt0iaoT9ZDE8EfjlBBBBkvK3AuQ81KwlO7YmUFTOkQL52/VtrOLbS1/SiXisikEkgxzlwyQdFRP0aKaOko16KvwkqziByci2Lw/QsbvrMoiIDOgNMoFnd3oykhIy9jc+GcpwfXsg58cPoKrrLFe+7f/JZZy3jlWfxnrYq5745XxdwUc8JktZYP/nrcrNW3OC/Bxorv6ffCIdu45uRR0PYA7UUKSk2XUbM6X92MXUwH0cWCDJVy6K0ksKM4j73leURsOTPAYt2xFqq7Mim0bGl2ZglLk/NijKkYR4ozeLQwAZfWVF4jIitG5dlDUlxzhPEqHbkpErj+aaokmg/sZJrVR7xRa6R0mKaZWjJE86FvZAeGaBoM7jtitoHdB9HRv4W2bsiEFTFdLppC3X0Y2n0AQ/seNOGGuPVv34PWjm7a+G423XLeKsZG7hoYxtAexnnwCNqGBilfyzZdhfa5MYmaKru0tafONq7lmNAONztbTvULu7po59cRWLKTQtEkp2WbD9lUBnOpLLr3DVe/naIU1cVH1KfidrEpJDYJM6mxkmSVV31SbwxTu9uolWj72l2WQOXB+fr0Cgxrex2BhVX3QKKzej3UjnkrBXQWE9hbmMMwYnS2WPArYRuhieh6bUlzjOfPX0ORduj+0jyeoSPnL+dWXy1vgBWXNPSCM4y3SOBREthKxSqkxArpnPk0Q8OK9k0Q2R0knYtaVNNDVcxa1V7TU81WpnnFMFo13+31mc1JE8rOClculxg2b8KVWJH1hrnCKi4T1sOwxiyxGVJrXoZZiMbAIlQ9ZAuXmYZEdyvS7dT6VZmv5Is7psL5nfCzdTSZrAePky4f5RExI3UJmg+TySwGHtxZtYetuGpl13T3bWNTSFxDTSz6K2FquyFqQXiTdn1DfjhbaEeTYOp7dHeywDxMpmqGCWPdYFWUtTCak4IOlrIYyS9gR1mvxxSrzl8j9O7dti3dZhGRyauzeMCdNG9mWIMZG6ddfcEpRwDvu4dxztHOM9VU1d/Cpjm9EIeXzXKXVrlX53kTZHKkojEc++lLePmv/n/48LUfYYk2rOZ0uL1+Y/9qcGD87Am885Pv4NVv/O949a//GG9+/xs4+e5rpl/YGwhZhGVYEXbi0hm88rd/hle//id45W/+BO/++DuYHr1oKojCaHCnVk6NOayeo2A1OWt5qNt6V65eaNy3u+xG0ThYRnLKrQBWn3CGhthVW4T+ivr9K0jl8sjwN9zTRo1dzT8fWqvw9VHfCRz/lqju3zYq82+hkhpTO0PnwY4Pzy5idjKNbW1+49htRLhVKACzxR91uVVyZRSWC6ztAXjp/VowuV9F/X4VNg0h62GUl+w59V4EKnm0wVoDOQm3GSKvv1Ve/rWZKDz5OH5tqIARVwqF66TXTgLnHX687xnBe47u9W1vHmpkTDPlyldnsIOF6KcDZkwHXraeb+3ZWOCukguuihPJ+DLGTn+EsRPv4dqV8xg7+SEuvfcanbNr5v27zrY28+tgBDNXL2H0+HuYOH8So9wuvfc64rOTtIdDsGUTaI3QNvb76MBlMX7uFK5+8HOMsTLk08to619n0MEoHG42ppEth6ZqevT6vZyxqqOt9KtLLbiXz1hpXSx5qtWadkUwYQvRsaVZQlPqIp3mArX6yJP72AqsmieCnq5vmgz4urAtfGevKG0KiWOJy3BkrsHHplwt8IXRGM5ejGJ7awDd4Y3twVVYQjLgrgjgoF3tps3loAMhUm6IFVawdpPE6pOVsC3YzGJ8MjHC5Sy8jjIydrcZwKgVgeY/OAts9qcmMBQuYNtQCMU6O68GPUKDGWWHDx96hvFzRy+rxgbOIwOrkJNLcSzSTGklQbo6rcGO1ZxKH5EULg+6urZgcIu+XdKPrt5ehFus72G0RiIY2LIV29RvvGM3+oe3ontwC7r6B9DTP4j2zi5TOXxuF9o72jGwdRt6eb13aAt6hkbQQ1u4q5dx9vSaUTw3K6yvzQc/tWhjkeigLmU8LHmoaXkqMrGwsqKPnWXiHfSZLtH6CDRbL+YK4Ly9ncEoc9ay5WgSZ+jQtj+yF21be1c1cR20wmd/gCQOfQJI/HpsCm/kKxh3tCJHox4FO65dmsc2ErCvxWv1Tpiavj50acX0UFA2WTIl7J71bNIm1EUrEku2cjbqHyfBav5qsJxHi92auJPiGXWltZCKjwaz+Oj0BIp+Ox5/sIfaq1FrCLK69S079QW/5uynVndafcGCnqk8WEcWeM4T9GPiAuNlYe7bNWhWpayHwivfflcrAt42OmFBtHZ202nrRyfJJ8J2Dw4j0t5JAqqPV589YGtHmzfc2ob2nj5uJCkJ3UuyR0hqOXXGvnZpYRW3mfmm+9t7B9Da3wsX/Y5ivvoNwBU0pNxAk+A1wOSkSWBWHaXM1Jcf3BWSCjX5E2RGpG0uXHK2IwGtfUHfhhVwejaKDyYXcPB3Pm0t5NhYawy0DHC//85JXFNId4RFFud5WwuOufrwinML3mnZiglfB67ZWzDnbUGBBeBQ5qjJzDKldfmRLLM5a8krzae1TvI/a72Nx2uzvhFqBaHmTfu1Ywty7jRg0VJIYUdhHtvLS2i3Z9FTjGPYmcVQiwezcxlMTSdX07ECakwW4ll3rxnMiBsC12kWpbe6W4N6TfytQURocyfoUC3ppc0G4tTAPCqTMoGoreR8ab6c1xeAW9MuqQD0upLpBVA4E5YOGCuElg1TT4XCOvlrTISVzQqnc+bzZ/zV5CER2zJquJnkaH8tzHxjvxexwU6jHOSX+PpZkdRLVL1Ft6s3Yo6KaxE+Y77VWsIMfYE0y7tF9vA6/oDB+o++ZWwKiaUvaW2aNEWp4a5VvPx1Y9YRxgU2MSftnTjl7MFVZxuWfbSnSFDpQZHaSwPqrRPz+NbPrmExloe7NlGdkWmhjdpiG7K1/dTMfq8TXjfNARFiHSGY0JKkLq65bhHGVy6gvxjDrvwsuosJFApl7OoNIbOYx8nzy+ZZ9fAwIvUFv+YcYGF51jch1oEKr324B9mAD5dHZ+h4NYtb6aH9z9Yh7aITZLYCtxzSzuq2cp6bs7pVj3VtJRy3lXBNmwnn5sZ/xby+nSEp1eRnydekpbonqNL7bEUMRArwqIeo1QUP/ZN6W1paN+30GGW1EgvLJZXOYiGZRs+2Pp65OVndCTbFnDi9fAUz2UVqW9ZYllOaWidxahQDbE6DtO9SZQeSNg8Sdg+idh8WEMCS+hGdbJ78Trx3YhZvH59DJl9Ef6cfIb81WjU6QyeLXlZbyI2jF5fxw7cm8faJOUwvZtEadptwTmlN/ldl17xWo2Vkf4nkNck2QeaFtIaHmlmEVM9FD233N84v0qRw4IkHu1dMCs33uurswE/dI5i2B02tt4p7g8jrwQIPdLRgnCZF9vIUDu8fRr7JwRGKdD5zpRiy+SVkC8trtlz1N1OOI1uJIUdZ15+/0ZYrWmFz+WVq5cZPoVlQfmr2upU7OWfdlSS2VKKw0yx0hijr0Kp/IklnbU5csbchZqOGNnfxPJXOcjSFU1MLaHt0D9pHek2LsR6MTfxJMSdWYHjDP8xPKpUhAem781AZlGjkySfLTjM0O0UtfZU29AlbF6IktD70d3kig++/M4mFWBZBtw3XphNYTuQwPp/G6x/NYjmu7qEWvHcmhrHplCHEGyT1Ja3rsGIC6FebJdSNoBRJ24j0av70MudQxEuTIo1pmRRMuEt9wY4A3nUPUtvQ1iesp9SedX0oXq3m3sImOVEqYVqrD1VbllVoACOLQi6Ggr76WdsK1lbkfm0rFBLIF5PW/i1sxRx/GX+RplSFFXctajKz0ibZhMo5DJP86nJzBGmHt1H2VYdXUiuSgLNumou2wAqBBbWQqUwOCyyb/pX5Eh8vNoXEcmpMNvhHBedvCSDDrGabtE5NTA616USu4sAiTY902Y62cAB7tpAsk3l8/3gMx1I+DOwZwMhACMfPzlP7OPHQ3q347KMH0NXWhpNXoyR4Hq1BtzEzPDQxZGq41WSbsrAKpB6NZ2qCt0SQp7bY3RNEdimHExeWGU/FDGa84RnBJXtkJe23ihJbl3baxcU2VtrxObPo+ApWyp5Vn61Yw8Z0mY37qG7WeSslDWFvsK3cb+6tx0oCVqCK7acZMYQYvKV8taITdbeqkUvRjBinH9Q8NK1J+fpwY4J2fIumzW6ghTcTVgluFpgfdeqHu1rhDFZ7JdaDybclUqsWWxnt62zFUE8XLl5comdbQLRzEJfDQ5jx6qtv1ouXGs42o04UlPi6Z7jFEPDrL4/hD//mLN4/NWd1ZTXK1qAxNbUA1lmtWPTAYAvK6TLOsYIU/G14y7MdJ2jPqwWp1za3AjlgXbuHUOlrx+i1ObPU6QrWSaOF9S8oBbVG38LNp8nctXJrbcf6rY9F5lVbKW1GPdV7I9TLUo55hh7NGAmst9vr5aIS1fJly7SJO/SNwbuEzSWxJWU4Pfpkal1hGTQKvFq/DWoaQk37QHcbAuR0OpXHcsmNiYIXrXu2wRHw4LW3j+NbL/4cy5kkhvYNItAeQoBmx8XRKI5dSODCeAZvnVrE9FJ2xSGsofHpa6H6Fva6MNjixcxcBtMzMbTZi6Y36XqjdzeCWiYPK3TLQAfirHwz8zQp1vR+NGOd1PKU7rLkVrv/5tPVGGM1sipquxoIClNdbClHYRbfrt1U/VW4ot2BOXcYc/Rrai2qoGuafRhPpDG6GEfH9n5Tge8GNoXEJgPWroEKbjV7NYiqq2dX9nhjvSg0XbFAbeuiLen2OI1mCLaGMPLQTrQdGUH44a3Y8dkHYN+6FWecXTju7MF02U8NkDfTEc0C3PT4G1PUfLQ+LJMiRMe0gPNnpvBIcRRfzl/GMHWPBkgateDNQ981Vi9FqT2MK2OzlklxO1EZQenGtdK9FZi7m6KQ2eCh7u1FygzZi9CNaVTrVjFmxDWZEbqo/6Z1dEDffPZTCeSZ1+lUDt0Htt5bJDbOkdlbzbjDrp6KBilYGW9GnTB1NZ2jp05BXHrvLE6++hFS0aRxDtuGOrHl8HZsObQNXSN9KLp9mCt5MVYKoGX/Dux4eh+69m3B1n1D6Gj1kzm3JkA9WybF4apJcfJqDH5nHnvyE/iV3Fk8XJqik2MtPXCr0KT4rp2DcA50YWJ6yepGvB0eriO+G2GNzHloztQ9XwpVVdS8+1iImd6aldsUjptynbO5MOVqQ8nlRYCE1Xegcyyvi1em8Ma7Z/GN776Nv/3Buyh53ejaql4J8aLp+R8DNs+cMELhH2WYrJudWUKCTctab3wj2IwN3R4O4sGdw+h3+TB7bBRnXj+BOJsn1fhrp0exTBLopUspCg/tS31dSB3qWx7Yjt3PHYJ73y6M+7uRdNx8f66gkJZJ4TQrOGrgY3qW6beV0ZNfxHPZS/hcaQw9try1ytEtFI4xKWgOtQ51IUbtdG1q8boz29bFyuNunKf6EPWtn0HtsBYfj+WcyYwYLi/Docov7cpy09JTfjrMkonHR4XBFu+Ni8v4KZXLn3/rNfyHr72Ib716DO9OL+ICTaTMke3Y/s9/BQ//3meqreHdoPBm9RNHr5jPgKmfWAnX27Snf/wBRnweDPV3kpwbe6iasaUvYLqyBXS2t5jarYX/WltCCDGe2WuzyFGwcha9IR/mr/I4mTYkHj8zjrEzYyjkC/Dzmr5iWna4zAoz6o9W86gJQLckSgZVr8rF2RTCEQ92GscRZv5FVyWF/or6WW2YY/x6BafR4bvOc0hkvZCqz5CBlXKEhDYrwd8K2LqpMptlpySADaArStX1cy2pMD5WpqCzgh2OJPqRNgt3F1ibr8yncGIijhdPz+Hr70/g749N4Z2FAkYrNsRag3DtH6Zptxsth7eh48gOdD2wA30P7kD//hHTN24+Bn+DFGxWP/EmkfjqymCHEq5x+2vvnsMISdjfFdm4l4IwJD4nEhdJYs1DdRiNKE3VGvJjMZrAIr3dtsFOdLA51tREvSE8e3kKsydHUU5ksURieMMBhHs7zIdpVMYlFnh7JYNQRf0awvUFWoMmK3WHPHjrwiIKPjueqM6lkLbSDLZIOY3eUhwRWwlRZwjRisuMPN4oetP12BbCtQsTSDK/B/cOM50by2UNCXWCMtHbFzbZmlUSi9SSlVq8+k3ntNqR5jGoR6d2LFNGC397XC7oy0tLS3EsT0zj3OlL+AkJ+zdHp/CzS4s4s5DCsp357fegZ38v0o88jNLhPegiUXuP7DR9wP0HRkzrEqSC0ZK+KkuR1xrVu7G8N4vEm/J60tdHf4pjSxfgqn5HQ++Wvfj7f47HKagHWWObJ77UQ1+CP/r3b8K3nMG+HVvMt+9qKdJ7cKfHJnFuZgH7Pn0Ig3uHUMwVkc/kcIy215DDi93bh/DG+yfgGunEjs88ZArXU8gaD7uvGDcEu6UMMnCQzeef/nwc094y/uXv7kFvu7dhZptG+4o2NybcXXjf2YuztjDPkCTVrsKN4GLlO/X9t7H8/Xfwq08fQF93q3nzWpDba82tWJtaEVXXSnSg9CV8e06v+fAO7ieTWcwtxKyAVYjEiVQWs3oBtipMxZGh/boYTyPPlitHB1ofdPe4bNjdYUPEy5awO4AO5lVdly0BN9paXOjqDGOhaxteCu5EpsxnslUVSdWVKuqsULWa9NUc1K6szY8ga9lTfT3phTt8PWlzSax3jJj2FRK7XXho3zDyt0hi5VuJUsHFqYWPXriKNG3TXU/sQ/eOflN4H33vHVSmY+jtasPozDw6HxjBjuceoAquYCg5jS2lZUNged23iqDHif/89jimPBX8t7+zq0ri6sUqZGuqY3/Z5sc5ZxeOugcwTQPGa7lF60KrcEavzeH4116C+/I0du0cMNpQBEunc1hOZMzssZVazJh4ideyiC4nzSBSuDVkWhtd0L9sNocitW2IFaI20UbPVy9PlmxsGeo2GlgQeStsHVsGOpGm+dbhseMpTxQH/FGEQ250RLxoowmlplAtkvqEJ+2t+JZ7L6YrHjMTsBF6UhN91jm1Hj65JG7SxA+zCXvkwNYVbbMeDIn/7k34oxnsNSTWXNfVJEkmsVQG58emEM1mse3pfeijdl8cm6OjN4bo7BLCtMF2PbEX8zMxdJcS+OxOL8JsCjOFyoamTM3habaXVXEytIn/11evoHdfC/7NV/eb4e2NpORgRSmwMCallR3UyvYw43QYbd0MEVLxjL53DlPvn0corC+BMgW8IM1YJIFDve3wat22Wrp5TyFfNEQO+gMI+H3IFFcXttYfmVceyrx+co7g9LvpJ4Ssfmle0rM9fo+ZXafn7i3O4yvZc3AUMqz7NkPc2gIvylfS4cNr3p14x97F6tmUHwVrFJ0FnWtMxrr4xJNYAv3R//QXGI4m8SyNfy+JutFjVkhMTbx3ZxOJq4KSTaelQd89fg7lnhbsffYQ/CRAhporHUux0FmIkRY4J0eRPHvZfGYrwObwoT3tGOqiA9Zke0rDZB1uErYMj949M7Y8wWABaqfvnpjFm3Nx/N4/3I6nD3fx2Ru3JMKKVnaEcNLZjaPOHiyx2OVYNkOtSFFaks39Cmr5dOvNZj8dY6s1qsFwhX+8do/xOxIFObZ1bOFPPelXwHya89b/KirI0yzoQwZfyV1AX34GBbWgdVB+KizLs+5BfNc5YgZ7VhzY2mNrEdY/7xawmSS+xX6em4PspRatu0XyFQp60VFnr5NbXrJeNG1C9Zw0uV9OYi+bwfm4+fqRvtcWiNCGo8PnjYQRsuWwo82BeKaIy5MFHD+fwJWJRPXZqxCBcw4Xxl0RnHV0YdkdoA1IbcjzbJWxnC7ig7EoBrcE8ej+jnVnnTVD2rxIzdVajOHR3Ci+lL+M3YhDM4ObjQuRSisOhdqZZm7BNm7VfS8JLOIVM3kUNXhT3Qrc5Ado036Rtq11jdpbGyuFBlTMxsq+sjHtmkFm7NfqpkaxhSl7sDSD/uKSmQ9s0mX+WlDX5LwjjDed/cgx/Q09MPXkXa/MfgH4WEgsTSqNIi27mut6MQmWBHSWwW8oD9mOPW0R+Bj27GvHcewnH2L26qyZJaUlk3rpxHlScSRTRZoDRdrSeWSyxYa4ReCiw4kJEnjSFjIzsM7ZOzHqakeB54MuO968tIQMtfFzD/WYfuimFnpDyD4VYd3lHHYWpvG57AU8V5wgYfJmtK8eko8hF7cauWr7JsEbYRNIIy07XFzEodw4ChUtoGJFqr/a9ApW3ObDUdcApmjha97gJx2bRmJltSZj/aqgrPKonq1drAqlZpMKzdqyhnrxyV5TH/KBrYMYCYSQvDSD868ew6mfnUQ4Ood+WxptASceofY8uDVIM6Ade0f0Xpvi4QOUGNqG064wrtnCZilUaRhS37yhe9nVgatZB46OLmF4OICH97dXzYgNErcBtIig1gvqLC7j8dxVfK4wiq1IGSJbVmV9ru4Oak/URKbOSg6Pl2bh0dDymuJn5WITP+rpxQlHxzqO3CcTm0ZiFXVNWCKNbJ4Gcq6UXSMpamEUXpCtJ+dKm/wRXa/doRCdrWHs2TaIB7gNBYJYPHcNF985g0w8hQg964f2duBXn+rD5x7tQX+3n8VgpUYTgmadITP7qlAlsCBq6XjB2YIfTlaQbGvFkw8Nwuvi80wtXEn4LUCferC08q78NL6QO48nS9JrtEebtPKN0Siv24FiUC+NzIiHSOD+gmVGqCOkdl2QGTFHGf2cZoSWZDXn7/zxHzs+FnNC0BtCadp2Vh9xTRKrhFjZs9Q1Q7DgGTaTySLJLcVN72lpQonWhzChGI3sY7OQdCiIXcP92NXfjStX4/jmy6P4u59dwxvHZzEbsxYs0dCpbtT7fSqcS7Y2ZNb5boaO1YvxEbXw/OAQ5h96EuPlVrh5u6bO3zKq0UsrV9hk9xYW8UzuEr5QuEKtnEZO51dk0gSdbrjUmNbbg6S7akYUq2aEJXpLfciMSNq8OOHso6klM6LqC1TL55OMj4XEcpIcbPrnoymSkrqnSqam0qnCuqaZUAvxJE6MTuCjS2P4kNuZa9O4ND2P6cWocRDlmcu71ybzQr0WI/1d2L1lCLGUC0fPJfHmiSj+/rVJvHl8DulcCV463ksOP67YI+YN52YCC06nE1fG57DAgvTtHsH54AB+4NqOE54hPssDLShoSKf/5kf50HYzsLSyj833/vwEPp+7iIeL80xHyTTva6JaecNg8yAHs6tmRpQzfERVyxpojw+0O3HN3Y1jzi64KIfVSlafuE8mNofEDUKng0PCacGMOB2ly2MzRpuKeBtBJoTCyISIBPxmElAbt5DfZ9ZUUCXIFQpGO6erWlqTrzUqpVeg2luC2EaNvLWnC4MdXfA4g3j/TBRvfDSLS2kXrpjXyd2muVyBksNNPzIbjp28gmJfO7Y/tgsFevt6Hemnzi142bsDi65WaxBDhcsoLN3VkOkbwtLKJWrlBTxHIn+mMI4+TSZis63vXqzi1uK9EWpmxIMk8EBTb0TtSepgU2/E264+pMxEd8ll4/L6pGFz+omv/gTHli+u9BMLbr8HF988hZN/+iN8cf8I9u8ZIuHWdlfpgytHv/UmFk6NIUIyWgsRWja1lbIqZXigTaJVwZi+3VrKeVIVQDuqKzmaJdFYEl5bAYe++DC6j+xG41Kmq9DQ9uWrM/jxqavo+coTOPCFR5Cv9uEau5amyGApYUiwuzADOzXq+mu03SzYSrEyFO1uTNGZPObowil7G/K2pmUAmiApeB1sFfjsZDHNlN0cydRjsrc0j1/LnmOLos9zNeota3V7D972bMVrjn64ZAfeMSNuDOXnEz3YUYNms735tReRees0vvLkfgz2thuNWw9Nq9QEHn1XrkbejQtIbybTHrZl0VlKwlG2KkUtA+ZtZx5oOmHa6cNkmZp8oAeRntZ13/XSU2Q7f+v772BuqAtP/7dfMQMO9SLRnuYQt1GbHSzN4QhNgnaSWrMXrBhuD8bZ5N+43YvTzh4zbD1FW9TS+Hqq4tZmpcUisZskdt40iZXuLqb0S/lL2JqbMBWlERqkceCCuw/fdclat15CuBu4Z0gsgmaTWbz+77+FwWQGzz+2F8EAi6mJUFq9XEOjN0qI6O2kpthZWkB/MbqyamPtPn2ZXhNUCmUbrrjaMG6L0LGkuKpkb4a08CVq4Z+cuIzeX3sS+7/wqKWF1+GHtLKGXkdKMXr4M9hemGe81sqZt09lptloZSfGXd34gM35OTOZiPlskoZF4pvXxIpDk0WfKE3hqdxVOserfcI16Blzzlb8wLMLV2whGlzry+njwGaSeHNs4g2gDnyN0z/0u8/jXDyNE2yyNWJlDZmuQi9+qrlvGG1aZ8vnS+jKLqMtQ0cvV6SdXDZbXlue5GWYFAl8sRLGaNGPnKZQbkBgpUBvn5zTNzu292Pb43tRoJ29ETdU4HLEzjtazYLab3pGkHSGSGyR7UbVb2PILLIzjdsK03iBTf5nCqPoRB76er+F24tbJBksx/FAfpLyXTu3V9/kS9OkOcnKc9UWWEPg28/R3cfHSmJBw6OdOwaw8x8+jbdpNpwXaYzde2uQbSczoo8Foy95rnrPFqTH9fbtKLWvBjO0vOh6PRE16EXW0Yl5zNK86di3Bb5IiIV9/aJTfKYvlY3+z519+JFnJy66e2g381nUqLcLzVUuskFsLcbxaH4MX2Tzv7+ybHoVam8c3wrMoAYrwqPFGYRKaeNUNoL5pGkh7X/U0W3Mmhpqe9bvvUHlj53Egsb2933mCMKHt+G989cwv6jvR1DT3KSMFMzJQtbQsl5iFKGbIado3hHAuJ0EZrGIcA3RN93ioP18jC1DpqMFQ0d2mPkITQ3EhtBIlkbgztAhe9G1zThFOYcPbtP/ersFTyLLNKmUsJUO5Au5S/hUddhaHzVvyMB1HiEzIkgaHyKBtxbmePdaKLZ5LRDu0rpy7oYK2Bj1TQrkF4y7QuKa2f3IP34O0aAP7xy7hGRa3wi+OSGpYHqQRGc5pciqZ1chRyhDp2fRFaLzsn5fsHVKfypmfu04tfBEIo32vUMId7cZ0+dWoGfIxJi1+cwabS96duCq0crOO9PKIjNNrjba/E/lr+Lz+SvYU9HLm1ZrdCMoh0MyIwpTKJc3MiM8OOXsZqtVNSPuDa5uiLtCYqHMZjvY04aDtI9PLydx5tz4Gtt4PajgQvai+R6H3nOzzIgqSau3axXLGUcYSza/ReDq5bXgDXymzJmPTo2i0NeB7U/sN/3atwstpJjhU084OvFD9068692KgtN/Z1qZaVS+XeU8dmsyUe6CGbYOU8Oqn3fdGX+EZUbk8MiKGdHcFajeCCcmXZ2WGcHk1UnznsVdI7HEVcjkMPTADox86VG8c3UGY9fm4XE3d/s0Qm9n9BVjCBez1Cy10qv+Uvry7hftPkzZqYWZnQ3K1/QjSwP7PG7z2vxENImu/cOI9Hfc0foIIoDsZAlyilr5Z85+/MS9Dddc7fDwmXeilU1/OO/XZKJnclfwdO4yOmhS5UhEfShSRK/5BgobII0PlmRGzK9vRlRlpVeqEjaPqcx620TvxulXm7oYNftQm7O6qS9fa8rpZQeX32N6nT5J+Fi72NaDRu7UZ/uz/+3baJtaxOce24tI2L/u2x/SLIOVOLYXF+ChM6eCqof65fMOJy462zFjC4I1gqSm86VXfvRCJYPr28MaAFkiaecW4kilsnjrvbMo7hzEo//iVxHsimzaIh9KnYglag2Uk3igsoDd+Rn4tXzsmj7aW4O+E1JyBjDFvE5Q/0ddbZisuDFNMmo9CLfThgdsS/hK4QKcpSQTU6eFJQimqcz73vYM42X3MEpUKLGZJRTNZ8ksuZZJ8uxSAilW8lqLp9ZSPUep5QTy6SxC9CF2Pn0Afppgpu/duvWWsZldbHedxIL6c+MU1Ov/8zdwmDX86cf2GLLVJ0WE1cJ2e0pzaC+mzOszNYiUDgrXxXK65m7HFUeb6a/VxwhjJOvi7BLiyQyW42k6kQkzCGL3upChrVlpCSLjdmD42cPYxgpkFeLmQrkQmcO2EnYWF/FgfgxDpRi156rmvHVQ29NMUT9xuZhEkubTAq3yhDuABUcrjl+KInX8BCLRGSSy1UpJGWli03wsh2KhhI6udpx3tNPs8qCSy6IQSyPIsqi9gyf5Z3jOQYJ367X7MkuBydXk+lI2Dz/DLVIJpLf347P/+jeRZdj/YkksuAM+XHj9BM587UV8bu8W8wp7bTTPSpANOytLGKFTI+1qXkOnRKUZFlN5zETTuBIr4KO4E1NZG1LJtPlgjLvFj7wKJcSmr6sVRScdPbI9wPMeVhhva8hoXx+vm09u3Xn2N4SILBtd/bWPlmaxqzDLViJreiFuGUynjSSGw0UCRs0byS63HVPTGXztp7O4cDmBAVvefNYsorU7vNZwid6Zi1NesbIL+bZuY7+rp0fkc9Ms0Bsz6qlZAeWr18kiIb+ZZFXjqIiu7/GdPn8NL9IU/Nz/9F+bqQXN7/XdLO49EksSa55CG5Xa8c0/exHZt0/jK4/vw8hQt2VWOBzopuYKzl/DzFwM88kCZhJ5TCxnTLPp4KZX12fbejDjDcJLUmoCsMfuRqg9BHvIAx/JGu5pha8lQM1Nn1zTOZVVaWPtS/g8vuPM3wCK3xq2zuNAaQGH8pPMW5RHjVp5XRHVQ4QSiVnwbiQopwq+9+YU/u7Ho2gr2vD4UAQ7e0LwueyI+N3wsbVRdvWUst2BcZofZ5kKVSpRVuuq6YEiajMsMcm8W02fwur1LXWP/vTYJVQOb8ejX31hZZ7JreLeJLHQ9CQzLJ3I4M0//DbaaV4M97QhlsphNpFFN1IYDJYQy5cQaqFmaPNS9djMyvJtLKSxliGM926DvYVk7Qyb1YH8Dr0UWkK6kDElIZvtdjXFZsNMJqIA1P11RFq5OAdHMWNNZKony0ZgfhyeoPkAzdlzo/iLH4xiaiyJHdSOn93XiZ1dNJPY7Cu3ImatVBVzkc+IUjZRVoI0TYloiaaVugIZWtdvxchRvB+cuIzX56L4lf/3/8lMj70dCt17JDaQmBofpSN5wbOnR3HppQ9QpB3r39KNvZU5jFBbdXf4EfC50NnuRX+XD21hedRlLDs78APPTpyvBOGQViVZpWkDLp8pwExJ1ucnD8qv0cq2gvn07uH8BCKlVLUnoS7FCtiUAZ/HgVTOge+8PoPv//QsWgp2fGlfFx4ZbjXBtRjixrC0b5ktnIaakyUHMk4v0i4PEiR0oqLhG5k+a19YaobmfU/SIXzx+CV0f/ER7H7hYfPy6q3il4bENUgjR2eWkcyV8Hi/G7/uZBOZX6TUNfmdP/xjbSwoFsKrnu1419ljPmipWK2YK3Q8ROIySazGusaC5mfquIkhdxlF2p0+WszbWFEPUyNvL87TgK77DG9dEvVNEn2w5v0zC/jbl65haTqLnUEXPn+gG4OtPmQ0P8QKelNggRsNrDfRs04PUiR02uY2H5DR6F284jYVzWhppkHh66FzmsD17vHLeDOawD/4n/+FGQO4pUQQm0niG1W8TcTGmkKjZVo0ZDe1yiOlKQTji8hkSEaSWpN4CnRWNIql5visqwenHJ3IVxppur4Mb1GydwlyudTPe8phfZ3/5+4RxJ2aRcb0ijQiDzefz4ko/YH/9evn8O/+7AxsCzn89qFu/NMnhtDDVil9swRWfPQh9Ek1eYRlOmkyIDz5LNqLSQwVl7GtuIgdxQXsZqXagWV0O7Lwks4itOZv1CbuK3ketwt9nRG46FxPvHferL13+7jzMrqLJLaEsD5s5v26A9kpDOfmqE3XjqC5KiXMOCP40NmNJbgMETaGrm10/XrpuEtg0uzc1EswR538hhkg2Y4rrm64HU7zSpUGIl5+bxq//0fHcfaDBTzT2YJ//swwjrCia9XKwg0mK5lsirj6DBLDFqJ55GayyM/muGVRWMrTDGMYt9M4yY5iAZFCGoN0qEdI6G2FBewqzGNXeQFD9gSCdmu0VH33ecbX3dWKfd2tOP6j90xP0+3jzsvjLpoTG0NaaVcljs/lLqKLWkFOUD30WhAcXrxCM0LfU5bsm7Ou5imwYk7IJr5z4dwtyB5V+nttOTziWIZ/9Dx+8IOTeP/EEvYEffgSTYftnQGzzJXyXmELdd3s8Zo0bylRNMQt8reUodYuUI5S8SxxkdsRcMCpLyO1u8136nSj1Wsj7SbKaseGnNNt7OY0lUeG+0m7F1nuH700jxfPXMVz/+NvI9Tdzkqh1K2FklojWW1fm4d8ucds4vWhAvTaymbVnH10dErrJEdzdk95BvAT1wgW2ehar/E0luI9RWJlsSl5GgDK5suYeeNDLP3oDbSm0/jMlhY8s60VXo8TeZpU5tvVdjbvOVbzDbInk6HMeHJTWeRoP0vjltWBvtLm1mhEiNMksyvigrvDYz666GxhG1esLwOSmYe6S91yRacTKdrQWZJ6OlvB905O4HxnNz71r38HqXjaDMHLsjcVoIa6Rwq1Xbch8V58ru+x6pnbw100J9ZCeVPzpNd+Rgpzpv+2HjLDHNQ9S44Ajjs6aEbUXvbUnb8cECk1PyE+uYAP/+yHOPmNN2lgBPHM0w/jyMN7zFC6maC0QoI6NjShpn1TZxNInU8gR9NBjZiIamxiMl9ENPvaZGoQ+cU8UpeSSF1IoMD9xunHpCPv0zc8ZBtrbeRwPmM+J3zEl8aTETqeZ8/jwenjeMa2jC02OdWaFOUwZSsltZLk6q/11NrJOy/LXyiJtf7CCBupw4VpBMsZI6h6GM/Y7sFxVz9G7+Bbcp80KJvKh8grgp74/jt46z98G96z42b08leePwx3WweO5YK4aG9HzOGjP0Y61FqpdYQgDVxKFZE8G0d6NE1tLc1dfRDv03Kw5QJJXaAtnOcvbWBUlYZx+Bh1bjpH8idpP1PTVwm+FhapjclH23g47MIuVxH5V9/E58qX8ZnseXw+dwmfLs9iny0JfyWHjM1l3uou8b566ta2O8UvzJww3jHNiC/kr9CMmKSc5cw1Zkne+jl3Hz34bVigUbHqzK1N8j1jTjDpGgbXZwZmzozh7A/fQ+HSJHa3hvDg4W3obA8jp3WEGa6WywiJ0IcE2m1ZayJU81vjzGqFJkNa2vRSymhZK/uUCiuJze2Gd2gYTlYMaX6UiijGY8hPT6EYXYLN4zXRmAfyPk+vF8E9Idi9NAyuQw9VRjNyeHIW7yaS+PP/15PIJ/NmekDR4ceS3Y8pknfJEcGyJiyxBPVt7AK1tHS0j3x5rGMPbeI7Myc27ZsdM5na5w5uDmpqHiwv4nD+GtzVBT3qoU8LpJ1BvOHeQi0cvEFvhAW3Xcvf0W7jvZ9IErNwXX4v0otxfPj3b+DqD95FTyyFJ6h9Hz6yA163q2FVfekt5UOaTN8gkcJsoaxYU6shqmC8hbksUhf12VuLXNJNkoCntw/hR5+Af88B+LbvgndwC9z9g3B398LV2WUCF5cW+Ev56wbeX06T+KwI7k6PRewV6KBRrj5WyBwr1XujUWzpC6K/Nwj5j6w9CJRS6CsnMVyOobeSpgmyjH4ed9orZmmANPPVFejDzpA+ZH77+IWYE3p3TAuH7C/O0oxY/x0wp92NE64+ErjFdEfdy1DFclS17+h7Z/HOH30PmTdO4eHWIL747CHs2dFvuhjXfqBnlTBuVkx9REcEbQCPy9kScvN04DKsvNXr+vH0DyDy7GcROPQgXO0dPMlqoQogO7ylFb5dexF55nlD8Eq+Ouqm+KjV8/M5lJJsHRuex4OGY2ukcKTDjwc6g/jT71+Bs/pxeVUhDd5omYACW8dQftFMgHqiMIZP5y7is7kLeJ7b1vy0CX8nuGskruVdmdMg5wOFSfQUFqu9EY16UwV2xdmGjxxdbETXrp32SUd9auVMeQJ+JOdjeOvPXsRJbgPLSXzp8b14+rG98Hhc0ALiG0HOlCa772Sr1UMtZhaJqX8ANWYxUaATl6UdaxWn7F9XRydanngW7r4BlLJZq/vLyJobf/UWeKVQIJkjCD38GLzDI9ZnFAhp4VKaFWOGZhkr3iqank2oTmjC0Z6uIObn0pi6lrCWLWuAHEO7eStFg1TOYgID+Tk8TDNyR2mxGub2cddIXMu7tPB+Fsju/JR5/abejFDWZSulHAEzqDFnW+87EfcO1G2mofLzr36Ed/7Td1F67xye6OvAC586hIGeNtq+tG/JguYir0GevYcu1JZKzHxrudqF2wielMYsp0hSRUSC2mUDbxmBm6ZDOXf9eSRlQ+RW+PcerJ4heEOZjmEhxtKqFo/13DVPN1Dd6It4MRTw4MdvT8Htvv5UUw18azqq1tvQNII7xV0jsaDZVDIjHqQZESlrOajVx9eE5KRde9w9iMuOdh5fT/yfXJhXoahhY5MLeO8//wQX/+pljKRz+PLTB/H4w7vMqkPrLelVDxHYTcd3C+LoLsZNR8IaClE8lXyZZgQv1rQfm24Htau7b3BFs94QLAdnazvt5J6VAQsRU0SumSjXKwm9QtUd9mJ7xI9XPpitsuomy279enFLuGskVlo18naYGrinsMRmcm3qNbQ8bo/guKPznjQjBJkPmkl36a3TePc/fQ+245fx/M5BvPDsYXR3RpCn9jUdQtcpY+lm9Yfr5diBYhRONf2M17pl9UbtlfK0X9MkcfW0bF5HIEgbuNOYDDcDff3T4fcbZ6/W7ab4KiVqedrbdS/VrAtlJ+hxYFsbzaZoDmcvMs23Me//dnHXSKx1GvaU4+adMy0+3dyI6oXKtDOEo65emhFeUvjeNCMcbhfGP7yI89S+WzI5/MpT+/HAwa28UjFznW8EQ2BqYBF4ML8MZ6lg5jaY8WbTC7lasdWQpR0eLNurb3lXYd4vdKh7rHriRhALGd7m0sri1XNVrMff9aLVBK2usAd72gJ4ldrY5bpr1Lo7JFbHeDdp/HBxCq2V9Lqv57go+NPuXlxytrO8PrG9vNeF3gqeuzSBy999C7v9Pnzh+SPoaAubxcLFkxtBBFYwfQl1pLwEH/Iol0jIRUqD/s/qvChZlWUzf2HaF0GajmNtXTq1/bKDS8mkcdBuCrxH79yVYjEyYvUeFZPdQ4rciNg8odanI+jGzo4ALo7HeeMvEYmVfxXNQ4UJDBTmSNDVpq8GF0tn3BHBR/Z2xCv6BtxNlPgnDNLAevn19DdfR1cqh6ce3WPZvrf0JnWFBE4bAvvz1MDLZNEUhTXLSp3nr8cKJfGV6BTNOkKY8rSg7HcZGZtrJGRJAxkzU7A5b27wSVq7lE4jN33N0uACo7O77TRNnObFA40W1p7RDFVQbQE6dF0kcjSZV0KqVz9+fOwklhmxs5I0r+O41RvRxGCNsxecAXzo6md5BRn63oPWa8jFk/job18DLk/hU4/sQiikV6XWmkTK/XrFq9YnTKd3G5bRks6iOMuimSZtpIEVIMRNnBS5GEHc4cOko8V8Darg96DESmRADVikFs5NjKGcTq2SciMwfDmbRX7ymtHehnx8RtnjxGJrGy46OzDpbEHK40OZlUKr5psZEYa5isAit25L5UuYS+TRGnLztLl4V7BJJLYSvFo41p4Kpo00fpBmRFs5s2pG1OVPM9TOuHpwydFB0bDprL94D8A02Syw0z8+itj75/GcPtzd0259v68aph7KXXMO1ROhpV+2lkngGOU0yWJZYLja7DOJTcN1rBOyffV+3JQthGTZ0pIicbo1VGdSUHlMXUPy2FHThbYhkatNfnb0MlKnjvEZluaWA16kaTTb0YHL5QguuToMmS9xG3O2YplKp+RxQ9//05voMtNVcnoL/dJiGlt6ArIvTFx3A5tE4vWKyyqcI6U5DJkZajTomoKpVs9SKB85Oql/tMDzveXMqenW2soX3jiJyZ8cxTN7tmDPzgHzIfAV3KAsVdF9tiK2UgKdiSTKNB8q0eptTfLSYcnuwIwzjBkEWHjSiGXkqPWTXS2wV00XM10zlUTy+IdIicjUtHavl+YFzQ5qUzlwdjdtk3we6VPHkTz6LoqxaAPZCz4Psm1Bs2qQJu/Ml7wYq4RI5k5cpMIRqS8720xaci4PnE4bkuk8FhjnwR0tKJWuk/FN5vcmkdjCatqsVSN30MPeX5iFj2aEGVquS7w0bsnhNR/9m6BWuZm5EZ80WD0Rl3CeZsThjhYcObjVDGA0YB0i1k6pknttJWxBDJ1s+svzvJLi1qw4KRqjZUkouXtTjrCZ8WfiYb0vup1ItYeRD5KoVTHaqFVLjDP50XuIvfkqEu+/g8zl88iNXkHm3Bnr/M9fRfy9t2g/T5PYVROAW4nxpdtCKHjMd9DMc6x5wlpFCEytB+Mla4adtLMIfZXa+kLOgxnW34eOjMBRzFqmB9O8BlUB6HGbgU0isWYHrEJmQWslh0fozHWU4tQ2a2G9L9eLM6zVmgx0r5kRTja385cmcObrr2IHC/sJOnLSzKYP+DpZqV0SNTSYoWW6+vIx2KNllKPyEJpuVoHnKd8MEHX4cVVfgar/jBmv26j1cmE/4n3tK9pYMA5bLofkiY8Qe/1lxN/8GYnLjaSOvvEKEtLSKdrN6lqrQpUlH/CuiasGVR09W12gInWGe9OVAM6Wwjid92Eh1IEPug7idecwrri6kHa3M592s8Ci1s27rnBuE5tCYquuriLPRB82ZsQ8C7V5QWx15JcQpV11TBPdbS4e30tmBDUSNVViegmn1BNBJ+xTj+8zCxWuTOBpFMcaSAMrz73lBAZKUTgzpG6C1CAZ5SCtAc/n0zQjShEsuIINE6IUXE6Wmv+klp7S2l51Ks6YPG5qWdrumnaZn5+j45cwgyLGpKjvUuOml0jTbWGkI3zOil1bl6gmDkr5uJggrcA0G0/Dt3MYPy214yXPLvzUs4Pbdrzm3oqTrj4sudrNxC6PIbTlINZHfbvYVHNC6ZFWHa6ksZck9ldoRqx5BIuQGfmQZsSkPVitnfcO7LQpsyysD0lg2+VpPPfYXrSxwDUL7Wahgu+spDBYWIaLDmApzTMpnt+oQGU6pEm6JVrQImgzp3Qj/2cjAdrGEdibe0UUXmFoT0s7m8GQ9R5G0hYCHmrhtoZnNKKexda+htnjiTQmU1lseXgX3AW9NVmh8+nHUYTxE9cW/MS705D6Vc82vOsewpS7C1mXPlt8k0Pj18GmkNjIiJucFH2I9jGaEV3FuBlgaoame1x0deOEowspNkUmAU21+5MKU/As6NM//gDx98/j2cPbMVD7ItSGhd4IZVWDGcMkcCBVQDnD4s7RXFBPxEocjQLRsK+bz+haSiCSzNC5W32YSO0gafXBnXzQh3hvm1lTogGK7mZkzGiz4QBS1OirWlio22/I5+pBTIs3ZnIYOLQVJb0PyHMyN7R+syZxxbh3mr7Py86BFUJLQ8s5vFNsjiY2ebQ+zHKIGngrnTl7ubYg9irUhMQcAbxPAmuG/8oX3BuDfTLBNOp1osvvnsGUeiJ2D2L3rv7GnogbQPqxtZLF1soiwskcSgsO2JPUskVG3iADHTSyrkztGaKm65mLkbTWNTl3wXQe7bE0ic3GmeRNdYSR7FRPxa21cMYW9nsQG2g3juLNel2q2BqRXGTlCne3ms++1b8sVNuTZhaZPeSAvqV9GQF8YGulQ9hdDXH72BwSEyLwoC2LQ8VpBMq1NcbqwebQ4cVH7n5cs7fcE7ythxYIGf/oEs78zc+wvzWEI4e2ma853Sykm0xfcGUZkVyW9imLNcoLdNhspXWkoQXFxUNd4iZtLGK2L6fQlsga0laokYOZPHoX4kZTq5XIhejg9XeYa7cEBs8wXzG2LGscuuvwWY+JxVOYzeaw7an9Zqnc+ievlwqZU3IMpaXVhXen2BQSS8ByVDTJWWaEzIpmaKL7VTYdp1bMiJur6Z8EaFpldGwOp/7qZQyy2X6yvifiJiB5aGL7tvIyWsvUmupGS1j3l2nrVrSwcr3IWK62AAunlfviU/UxmgjkzxbQuZw0zb2602RKREjqzqi0MeMkuZPSxuo3XmfEcD0YU4SOYay/HWVW1ro5RhbWY2IVWnI3Fs9gnNvgI7thlrS6y9gUEqvuHSgv0oyYhqN5aJm78kLTDj8+cHRigfXvXprorjcb4vMxnPz2m+hgc/6ZZw6adXqbPyi5EaSBPbYSnd0oK3jCfGaMFgVAO1jSrxS4WZ8ntSACawHQIRvs7SRl02PU7EcSGXRwE4E9hRI8bBFa41nYValIyFzQT7PgFrQxK6T6hU232k3MtKuH1kOO0xa2hf1ooTnxi1iFdFNI3GvL46HizJqJ7gYUrNPmwjF6pFcd7Y0EvwcgjVtiE7k4uYgQtVRPZ+SmJ/WsEjhmEZjlaysw/xk1qFVIHLVNJ2mOOjppJ7fxBGXHxzdAdnAgUyBpM/DlCmijQyWeu5hGt8wb3ea0I90eRkq28Q1IWbOF47SFS8zfasJuDKOFE2lMJ9MYOjBiPuz+i8CmkPgwCdxDb3u91Xs00X20+r5c/B4zIwR9z6OVNuYI7b0pFtKl0Rm4Vdg3gAgs77xPfcGFKJwkkya2s5Zbjtx6oGjsId7XYZkadh+1cZhh67UxDzXU7KX264ymEE7lrLXUSEa3KhefIfMgS9t4ebDT9PteV+SMz2hh2cI3rYWtCPVF1kWaNufZUg08sqfu2ycb5O9jwqaQOJJfhpdaePXtAwsacsw6g3jf2WPel5Mhfy+ixMLZ/dxh2Lf24v1jl+mN54wW2gjKpRwXTWzXN6j1IRxpUCMcOXEqa3O7/pgdC9y1+/mrTXwMkpzSyE1ik+0r8vYsUrvzsnwSF4nrZTpNUHLM2MZdEctR24CcK1qYtvCtaWErzZrkr++iFDxu9OwaqCPxTUe0KdgUEmteRM1MqE++JrqfcvdjjJpY1xspfu9AS8/6IkGMPHsIM7SRT5wZhz6rux5q+e/QvODiMvwlzRupy7e6x9QnbELWNuvHfGDJxZ1qiyZy2kLUyGEeNBCZZgpNh0B61f9w8Lq7zh41zlrAZ2zjkstlDZI0QTaz+oRvTQtbsBw6mhLxFLYcHDEtxy8Km0JigyZ+aqL7hJno3oZYdaK79a+GX1ymbxXKmvkG30M70fLgTpy8Om2+XbERkTWYscUQWAtnN4lYhw7ZxE0CoziMROpPk5T6spmjm9W/6VEieK1y6K9WzMxRaTTFamzj6GAHSdqozmuDI8tbuqtD1dULNwljSiwlcJFy2Pr0AfMB+QbcxeLdPBLXQTabzIh3Xf2YtgUMgWtoFvK9BHneu6iN03SY3vngPLUPLd+6DGk2QAty2F5eQguJrLe7azDBJAZpW7dkpBNVcF89Eg7awwrYdAn2CDfayc1mxQoYqMCKkXWRxHU3G6JqAIMkzvvcq9qYP7KV492tSHavM0x9AygvpaopoXi7dg+t/RagyfD1UZfUO8LHQmIPJan35S47O03Brp+fm8jlJwzqA+3c1ovBZw/jCr3yy1fl5FkzwKzBjJw1sb2UodXQKFpTYPxTcbI1cq8tPnuETpw0rhbyq7+sezxWd5uIbuPj9FsfxpCKmtF8+qypWReRMy1BauPOlUEMO89lw3T8RqqjZWuT04DGkmI6qPXjiQzm01maEltv3ZRghLU4yxvWzJvH5pBYeajmQ0PLc84ITuh9OUZfr4V/GZBLZbH9iX0IP7ADH5wZQ5Q2YcXuoC9WwPbKEjqaPhy5BiIhSbzSycYf0wtBbYsgz8upayAF46Idbec14+TxfnsLf5tKrqg10dzOFXLUIM1c1NKx/R3I6nNo1LqaL5zsaUWGdr7tFrWwEqwPZ+oLrWMk8vBT+9eaEteDssZNWdSHJUP6rNkdYlM1sQqm4vDgfdegeX1Gr678skEmhT5CuPP5B7DApvS9Y5cRIrHMxPZict1uxgZQ4omQF4mA15pkw//qkXCE2GLJ7tXLoKYSWNeqfyzy+xjWbYNTWjvEK+SfTISi046cJrBvAIXR60tLw91GG2t/cbjXaOmbQb0nI0gGsWQWKVac7j1b1poSG4IMMbVM86bpLDs92BYaMFfuBJtDYiZM2TRLsbp6cdbRzob1Xu2LuDGKuQILbwitD+/BxdllVKbHMFhJVkerNs41W2Ek7D5cjHRguiPMCi/B8R6Rl2ZGI1d4rS4qEbZitzS1nD0bTQxBmjZFTbvQ4rdG7NYDby6TcMnOiOmtUJeaXmlSF9v1Ubu+mhB9AizJ1mg6kUIPbeFbg+XOqlI4WGO7vW3o8WmlpzvDpmliJ63fBWeL+TTXMul8L75udCvQV50eeHoP2rbQdDp6FmWNVtV7eU1wkG1JtlKX7W2Yp0pdavVhIUKnl2IyBJUya769/pjhbF6eCNO60NRNTRzSaT4zTs0eDXquQ0oqFGpdEXfy0FZESWR7US8r3BzUnaYBHjdt7kQyg/c/vIAT1+aw7ZkDTMutj9LJIY64Q3ioY2/1zJ1hc0hMDWCzu4wZMW1eu//lJrAZjSMJnuoFfu+pNlzN5PDKhUUENIVxHagXPWN3mw+pz9N61sBE0uvCeHcLEiJfvIJyjDJrLo16MXJfWtjYzlmmIUHblCdlmsy2h0zQjasQwQCa3JMLB1B0q9/4+uFFXBedVpeIS9v3xOlRvPSz43jp7dM4l82j47G96NxeP8BxcyixtjrtTuxv3Yodm2BKCJtCYjclcsnVjQv21qoZUS/9Xy7UXLId5SiOxC7h1w64setgJ165uGC+Pe2UzVAHNfFZVvDLjlbMkcC1V7E0TBwNenFloA0pG0m1yKqxnjauB0urkicZSXhHoYy0342rfa1YYkVQfDeElA0r0HoDH4Le0JDGXSHuKYu4P373LN6i2XSKZkuSZtS+f/o5PPnVz5s5JTcLPVILD3ocbhxq3YHHOg5Ur9w5mJ8NcnQLWLz0p/hOdBpXnJ11tcI0dtbuXYDsrNXPHdS+KLq5z6/FNkwCP58fxWBxiQ6XA5evJfD//bPT6Cs58K+e32q+81YSqUgYrbVxxdVmFkpUDPUcNSNyDNYeTWNLNI62cA6u1hLKpqesic0SrEg+WUZhxoYknUtp8onOMFy30sPQJBZpXA3aiAbRaArXphYwMx9FjGbCktOJJJ3XNpofww/vQs/+EbhJZM0Z1icXDHVuIGaVi9491ESqTm8EB0ngh9r3IOy6816JGjaFxD8e/SHeXrqCIpvMJtHfIpSU24tB5NVncdVcicT6KsR1TNTbgpn4X0nhC/lL2FKYM62O0uvzOvEXP7qK73zvKl7Y2o69fSF0hdwIBHyY9rRhlIZstmy1UHL+tG5ZDeKqmZmWLqI3lUC7L4OwO0+NqB72ajjeW6YJUYySvAkXFr1+zHUGEdUAhhXi5sEb7Da7aTEU+7KIO0niLsQQ02w9hx1pnwetzcQlqWU61Oii567mwoKOZe/qje1aOGnedk/YOHEH27ZjZ2iL0firULhbzkUDNoXEf3n1JzixfNF8XO9uQTVcZFDy9Y0OH52mTm8rXHZ6z8UMEoU0ciSzwulLxZbcRCT+48Gtik0T27uQwfOFa9hVmEGxrKbUikUro8dTBfz1S6N4+/1ZbIv40Oa0IVHxmD5zTzCAVtqufr8XrWE/QkG1GFbapbBF7CJVslZiDeVob9Jr83uLLGzRgc8okXC0m/NZJ5bpnC0H3GbmWuN7cNeHhom1NpzmQS8uxzE9G7U0br6IRafd9HC09ZO4j+whcYfXatwVKM/WsWRr8sBfKREbK0eLK0AtG4Df4UWLO4g2EnjA32l6IdRSroGiutXCaMKmkPjb117HBwtn62pYfUbvOI0GElit4KVt1ccYdgVNsyRhdXgiZtP5TCmLxVyMRM4gXSM0SZclqVPFLH9zRujWWCLJIFIbYldT2pRoaeAW/n2hOIaDuXESWNMqG90JF4mQSBdw7moU4/MFvLfsxdszbPqzBabRDh/J4qQD2B7wwsNnaWZcS8iPMDeRujUSoEZ3G4tB1oE2Q5BqnpWeigYzSF6XJqEzXK3g1pOx8mNMBZJXxJ1fjGFiahHzy0mkeX5Z6aW5EOppw9bHSNy9W6oat0iNa62hrOLUo2uQzHSoX0Ffywq5fAg5A6YMRN4uXxvLocWUjTTw3cCmkPjVmaN4c+44bcGCEZ5QL+S1qF1pFv0q6mu5NK2fmlZC0lZPWtlZ1+trLJSpaUjoNIktDR3LJ5EiuWOFFAmdobYuGKKnSWyRW/abmlslTaTWDL0wqfVkaRoPkMDukr6310jgGsgNeEjYa94+vOTZjklXCMhmEWdTvXR1BrHxOWRjKUR5XCQRA5SVl9rORyctQtPAXRVamKQWuf20eyPUvCHuS1uX6HDp2fYsK6EeKPnUFZ9IWyOuXt6cnYtiYTGBuWiSrUIZMyRzMRxA/64B9D+wHd27hkw+5aBZpkI1omo6DGl5UgM4ijdEhRGkNg06WfG4Ly3byrJoZzl0k7yeW/h0gcpXj7keB24Wm0LiDxbP4uXpD5AopkzTfX3ocWsTXiOs/hlNa0hr1e4Wd8AiLQlrSOtdj7Trx7sRVECL+TgJnDXENuQm0eP8FdlliqRJ8FIpjSPZy3gse9F8Y6RsTCblkc8yFbb2THXg2zHjasfLrmFcsNHhkmirxNKabeYjLgwuR6pA4ixPL2LpyjTi1+YN0VMkONh8B0lWX0GaO4tW2tV+krLI84EWP7xeD4KMJ0hyS3PrVSkNA0vbxpJpzM2zwpC00XQOC4wjyTA5mjG923oxQOJ27Ry0ZMyWob57TNI3po2uUTYuOqQRElR+hoaG26hdJf82TwhtbpKXBN5oVsyGaCiiWyuv62FTSLyUi+Ob46/ianKSmWch12K8ThprpK01TbKXRNigmifW8hXS8nd9Tbt5QqiH0iTNLS2dKGRRyUcxkL6MSHYSRWrhSjGBSiFBL4v7hTg1ZI7JsEMrBM+6O/CSe7vpavRYunJDiP9mERMSViTUvt1hM+ZHnE3/8ig1N7V3JpFGlBpVmjiohQBTWbjY3Ad5v9flMAR3uZzmMwpLvLbM82lqcFdLEN3b+9F/ZDs6RnqNmVAqrGpckdW4YDxQ6+l3eo38pTxk16q1kzOmQQmVhcrl1rBx+Wx2yW0KiYX3F89QGx9FvJA0GqnZdVolrfW4gITmVrNEp4eC6vS0WjVd+3TQNgObLaxKbomkXuTvIjVmDGX+VnILsJHQGRL8XVrOR53dyOTTxjSpt7WVjga7ewOskJvaVtpbJ0Ru2cKFWA6xa4tYmCG5qXFzSZpFdM4UXpn1BKlx6ZT1H96OgFYlMtpW5NUbH1Yrp685Oen8iqQyDWrKo9NH+ZOsIrBMgxul88bYbOlvjE0jsfDW/El8uHgOs9klY4uKytJHyoqEJQ0rgUXYJIm0nd4WdJGwrWye7mlQIy/lopimrZ1nrpeyUSznE8jTmZRpIpOlSHmkipbdLTJZPSY3T24Vk8/lNVM/kzR77CS5uU8EroFh9K1o06tAspZtLFqR2+E25AxQm8qelcPVRS1bMw2kSO4cd4+0zdhUEss0uJqcxoX4OJvkKB0yy7aS8GpOmIQnzftfAnK0oWVqidCysWNspWL5lPn2dLIgbV0g0fNmX33bq+QWHfSnSnL+UzF5nR4zfTFZTFvXCaNfea1mmmliTc0s86mbi36F5N1NTSs7VmVgTL5fImwqieuRZeFI68jGuhWv9b8EyHFdoN2drHYBal+9JRlqbNni6gpUl2C6qrkVXqT10QSTUkgwbK3Q3A6X1WPAVk7aVjaszLF2OmIRFzUtte0vO+6YxNIENa1wH3cG9QossAWTZlZ/dpQa3Bq4SRnC5ytFY6KoxGSamW4umgPq6pID3OvvMJq6ASrdX/Li+dg08X1sLqStZZbESegQNa80rch7X4F8rCReqwL+C1AKn2CsJ/1fjhK50cjEHWCtcGpnPqZac49DUqmTzCYKyYpqPbLe+wQWPkYSrw8J9JdDdJsNSaVOMncoJIu4G9NXV6yr9z4+fhI3Seo+gT9u1BP3+tI2V38JmHzfsbuPex533Zy4j/vYbNwn8X3c87hP4vu4xwH8/wHXF/47lfCx3AAAAABJRU5ErkJggg==;" vertex="1" parent="1">
          <mxGeometry x="758.31" y="130" width="121.69" height="110" as="geometry" />
        </mxCell>
        <mxCell id="V_7yEhAnlDN46QahRNtS-13" value="" style="shape=image;verticalLabelPosition=bottom;labelBackgroundColor=default;verticalAlign=top;aspect=fixed;imageAspect=0;image=data:image/png,iVBORw0KGgoAAAANSUhEUgAAAhEAAAHRCAYAAADUnus7AAAAAXNSR0IArs4c6QAAAARnQU1BAACxjwv8YQUAAAAJcEhZcwAADsMAAA7DAcdvqGQAAI3tSURBVHhe7Z0HfFNlF8YDbdl7ypSNTNmCDFFUVBQUt4iiojhx4EAR9wRcOBAHogiKk09RQQRkKHvvvfceLbPtZ885T5BbrklvW5rx/H+/8JA0ublJbt6873PPyPbXnDXJPkIIIYSQNJIt+R/s/4SQ08T69etF58yZIzpjxgzR48ePi4YbGEag5cqVE61fv75okyZNRHPkyCFKCIkMspsSQgghhKQJOhGEnAYOHTok+sADD4gOGTJE9OjRo6JuZMuWTTTUvqZp3a8qVaqI9u/fX/TCCy8UjYuLEyWEhCd0IgghhBDiCToRhJwG2rRpIzpu3DjR5s2bi1533XWi1atXF82eXef1oepABAL7ffDgQdG//vpLdMCAAaJwZPA+tGzZUhSvmxASXvCbSwghhBBP0IkgJBN55ZVXRJ955hnRa6+9VvTTTz8VzZMnj2ikgOEEjgQYMWKE6K233ipaoUIF0VGjRomWKlVK1O3xhJDQhE4EIYQQQjxBJ4KQTKRjx46io0ePFl24cKFoxYoVRaON2267TXTw4MGiy5cvF61ataooISS8oBNBCCGEEE9wEkFIJvLHH3/IpU6dOnIpXry4XKKVevXqySUmJkYuEyZMkMuRI0fkAlIMUpqkhIQ+nEQQQgghxBOcRBASBMGujN3uF+zjiZKSncEMDUJCH04iCCGEEOIJZmcQkokUKFBAtGbNmqIp8REp5MuXTxQsXbpU9KmnnhKNj48XDZfVOHqA3HjjjaI333yzaO7cuUXBO++8I9qjRw/RgQMHiuL+OXPmFCWEhAd0IgghhBDiCToRhGQiwToR6C3x8MMPi/47UyGc6NChg+igQYNEixQpIgqcTsSHH34o2rlzZ1E6EYSEF3QiCCGEEOIJOhGEZCLBOhFJSUknabiCGI6UGhCngk4EIZEFnQhCCCGEeIKTCEJCgOzZs8slNjY2rC6oPOm8EEKiA04iCCGEEOIJTiIIIZ5BZUlcCCHRBScRhBBCCPEEJxGEhACjR4+WS6FCheSCmIO4uLiQvuTIkUMucCLuuOMOuezbt08uhJDIhpMIQgghhHiCdSIIyUSCrROxaNEi0ccee0w0ISFBNFw4duyYaLt27US7d+8u6nydrBNBSGRBJ4IQQgghnqATQUgmEqwTga9hYmKiaLiCDA23WhF0IgiJLOhEEEIIIcQTnEQQEgIgu+Hf1SDD8cKKlYREF5xEEEIIIcQTjIkgJA3g64Jz/4EIFBPh3N7ff/8timyHYJ8nown2deLvx48fF61Tp45o0aJFRZ2P79+/v+gjjzwiypgIQsIbOhGEEEII8QSdCEIykWCzMwYOHCj66KOPioZbnYikpCTRCy64QHT48OGixYoVEwXMziAksqATQQghhBBP0IkgJBMJ1olAn4nXX39dFE5EVsVEADw/nAa3/UEMR/v27UVbt24tmtJX49/QiSAksqATQQghhBBP0IkgJAjwNUmrMxCsEwGQ5XC68Pq6nGA7qBGRPfup1ydOJ2LAgAGit9xyiyidCELCCzoRhBBCCPEEJxGEBEHKSj2Y1XrKivzf5h6up6zM3Vbn/+ZUVSAz4oJKks7b4+Li5OK8Pa0XbCfQ68Tf8b4ULFhQLoEeRwgJTfitJYQQQognGBNBiAfwtQnkTnTo0EH0p59+El2wYIFo7dq1RaONtm3biv7++++iS5cuFa1evbooISS8oBNBCCGEEE/QiSAkE3n77bdFUYmyVq1aoliJlyxZUjTS6dOnj+gzzzwjijoSQ4YMES1evLgoISS8oBNBCCGEEE/QiSAkCIKNgXCjXbt2or/++qtokSJFRO+66y7RXLlyiWY2bq/jyJEjog8++KBosA7JrFmzROGsYDuoVDly5EjRmTNniqKy5bRp00SbNGki6kZ633dCSOZCJ4IQQgghnqATQchpAF+z3r17i37wwQeie/bsEQ0V8ufPLzpixAjR888/X9TNCejatavo119/LRofHy/q5JJLLhHt27evaI0aNURR4ZIQEp7QiSCEEEKIJ+hEEHIaQUxAYmKi6Jw5c0R37twperq/jnACpkyZIoosCvSw6N+/vyi6bKZUp/w3Xbp0Ef38889FBw4cKFqtWjXRs88+WzRPnjyiiJVgjAMhkQGdCEIIIYR4gk4EIVkIvn5Z/TVE34ovv/xSFFkjhw4dEu3Vq5coYjrgVDidiJUrV4pWrlxZlBAS2dCJIIQQQogn6EQQQlIxadIk0Ztuukl048aNop06dRKFY3HHHXeIDho0SHT16tWiFStWFCWERDZ0IgghhBDiCToRhBBX5s+fL3r//feLTp48WfTiiy8WTUhIEIVzQSeCkOiCTgQhhBBCPEEnghCSqkeF8/qBAwdE27dvLzpx4kRRkJSUJLpmzRrRChUqiBJCIhs6EYQQQgjxBJ0IQkiaefTRR0VR0RKVOBkTQUh0QSeCEEIIIZ6gE0FIFuCMOQg3sP+ffPKJ6I4dO0SRxVGgQAFRQkhkQyeCEEIIIZ6gE0FIWICvaUY7F+nbLmIhMIzExcWJZpXD4v5qMuv9IyS6oRNBCCGEEE+EvROB3Q/Xc8uEZAT4Fqf3a3C61utr47WuxM4jIr5V8frMJXPqM1fOp1ouT9Z+r0/X+0FIuEInghBCCCGeYEwEISTTl9zfbUgUfX+VxlAs2KNOxDF73kQbhrKblZJk188pGiP6cLUcou1K67on0G72X35c9Nxies96hXU7sS4PdH35mfy+EBLu0IkghBBCiCci3onYtGmT6Lp160SzZ4+MeVORIkVEq1WrJkqiE8QSfLRKV94v1NbsiJz+w/zkpfSJa4GW2IH+Hhy3Tjsq+vNm3b8DZj2oDxGYGHt67MV15WNFP22UU3TePt3StF2qH61Wp0N9B5/vhxa5RCvmTd/riFYYc0YCQSeCEEIIIZ6IGCcCXQT79esn+vnnn4uiln+kGS5YGeTKpSutu+++W/SFF14QRb4+iQxO+AIn/pfCC4t15d1vieoNZ+pK/b0GGkOQI4uWCbeYA/HDBnUgDiXZilb+TTtJ9rpz2HGf14IbEu3tOG7f7/jDqm811u/FfVXUk4jL7vWZSTRB5yXt0IkghBBCiCfC3ok4elRXPE8//bRo3759RVG7v0OHDqL58+cXDdeX65whw3kZO3as6KpVq0QrVaokunjxYtEcOXRFSiKTVuMPi07ZodkPOLpvr6ROVPodCWzRsTLz33zy39+0rIiXFun3cp/FQDjulgr/n/F33ADserL/8SdvMEmf1vdkHX3dN5RTR2amZYEgK+PKMvpGFIizNyTAfpHohI5E8NCJIIQQQognwsaJcM4Mjx/XpceoUaNEr7jiCtEmTZqI/vTTT6KR3k3wyBEt+ffYY4+JoqviddddJzp8+HBREpmU+SlBdMsh+37Iv/+sDuw/HW1FPqChZjMUyXBjSp834bg+Yb3fD4muPKAOQPZAFoQT3C3IUQnORH6zGgroy/XtPaobQH2Iwefo66/ELI3/JD4+XnTlypWiCQl6fIV7Vht6vJx99tmicKZJ+qETQQghhBBPhG1MxMGDB0U7deokOmbMGNGFCxeKIjYgWsD7cfHFF4vOnj1bdNeuXaJ58+YVJZFFqf/pSnGbZSU4kxBQZ6FoDv1Pv/q6Ir+pPCopuHFqB+HUt/p8X69XZ/D+WRoLsducgMBJEW5bDID/YfqfbPb443Z7CevB8b3ViWheTNdLaXyWiME5zMPRHTdunCiyujBuINbMGRMQpj8XfrD/jRs3FkUMXbNmzURJ2qETQQghhBBPhK0TsWfPHlGc44Lz8Oeff4pGG8jWeOihh0Tfe+890QkTJoi2bNlSlEQWJUaoE7HziH6N3WIQcCsqWbYvo8EDL9fRIAl0zfTKY/N05frhSj33nKDJIqdt5Z9odSiK59IX+F1zdSBamAPBMhEnM3ToUNHevXuLrlmzRhSxZeXLlxdF7Fm4g7o5CxYsEJ06daooxs2BAweK3nbbbaIkeOhEEEIIIcQTYetE7NixQ7REiRKi11xzjei3334rGm3gYxw5cqRo+/btRXHO8/zzzxclYcqpDQbfbdM1OwcxCUd1YeXqAGAzFiLhQ7mEzhV1pXZhSY2VuKpMoJiJk7l9utar+Hq9WhBHbD9AZhkBifY8zYrr/r5VX52VRoX1hSEmhCioH4NYshUrVogOHjxY9LLLLhNFLESY/jykAq8nNlYduP/973+iPXr0EI2J0eNnyJAhos2bNxclgaETQQghhBBPhK0TsX37dtGSJUuKXnvttaLffPONqJOdO3eKDhgwQNStt0SoRiNjv1q3bi16zjnniALs5+jRo0UvvfRSUToRkc2QdepA3DdTHYl4O4V94jDGf059HFsogS+XGQ+o7Fghn64vOpTWlRscisZF9fY8DqOi6wx9/mG2P3AiTv42pQPsvm0Q2z1usRedzEl5q75qccvOICfz9ttvi2IF/uabb4rec889otFW4fbll18WRcVj/D6gFxEJDJ0IQgghhHgiYmIi3JwIVCr74osvRLt27SrqJNTPAaJiHM5Z/vzzz6KATkR0Em8r/kv/1EqRU3bqDV6PYjwOq4uc5jjksPQGOBXoqtnaYhFWa6FD36J9ag2gXgM8gxPdRzOWRHMi7qmuDsRLtVWLIOiDnESXLl1Ef/vtN9ERI0aIutVJwLjidGgjBbz+bt26id5www2iqJtRsGBBUeIOnQhCCCGEeCJinQjnDPrAgQOiWMEjGtdJqDoS2K/q1auLoj4GwP6ilwgci/Hjx4siloJEBgcs9gHZGJsP6X+umKRZEhsT0nb84t7O9aZzK/772X+czTATnQ/IJPA0SWZ5fNBE60J0qagxHLlP/fWOeuBIojcGxsN69eqJRhvosQQn4uqrrxZ98cUXRQsXLixK3KETQQghhBBPRHxMhBPESDjP8TnfhlA9B4jYCGdXPew/YyIiFRyfelzqUezz1RipFSubW2yCGRO+HzaqVXHYYgYAjppUX3oc7oFGA3xPTvP3w233Es2J+NC6dN5aQWMikG1CTua8884TXb16taibE4Hx5OuvvxbF/VFnIdRJtGCZsmXLirZt21YU2XzA6USg3hCciEKFCokSd+hEEEIIIcQTUedERCpuTsTYsWNFL7jgAlESWVT+RbMyEBOBCo1HzIHw/uW2DWUzbyPZzXlw8QjcrIOMwrafaN1CJ7XNI4peGf7nddvtKCVYJ2LSpEmid911l+jSpUtFww30AEF2Hl4/oBORfuhEEEIIIcQTEe9EoEvb8uXLRXv16iUabpXZEKNRt25d0Z49e4oCNyeCMRGRhXOB3WGyOhGjtuhxjvoMzgU4rvsNBQRP+GMb9IHO7TuvO3Hez/mAVH/PILD7eax+xZxLcotWTWc30kgnrTERGD+2bt0q6ozFClXQfbRatWqiGDdz59bjBNCJSD90IgghhBDiibBxIrCbWJEH60RgRvrjjz+KXnfddaLhyp133in60UcfiQI6EdHJuO26Jr9qstaHOHAM3xMRVwfBD+7gNgpgO/Z397vpHZMDeQ74c6odc/uDbddWwPgrundeXFJv+fwcdRbPyJVqwyfh+vSupP0RoUywTgRAlgMc3VDH+XOGbBI3B4VORPqhE0EIIYQQT0RNdsahQ3rueO/evaKhWgciEDin56zpTiciurncKlWO3mIrR/k3Detn3NF1NLA/IKjCef/0fp2yW2EHaKzWe0g+qt9b39oFqsf0dSYdVYexXyetxNqjSoD1UEbtZ5iTVici0qETkX7oRBBCCCHEE6wTESHgY3T2zqATER3sOKLa3hyJ6busUITDOEg/Lkt6p0PhbmkIyXbHbDnVWUteM1d10WRR319fiSSvXyPqS7AXiO2a5M6jjkW5skVEO3RoL4r6BlWqVBF1w+XVRCzBOhHIxujfv78oem2EW8VKVKi85557RGvUqCEK6ESkHzoRhBBCCPFExDgRmEF+++23opEOPjbEduA6YyKiFf38tx/V4+H2aepI/LLJ2n3acYKKlq7g7wFHBZc74qrb81jMA7Itkn9+V/X7d0SzZ98jWriixkKUbqkryoodRXw58qlmswXxRi3I6lurC0pfwuK8oscO6A507Xa76FNPPSXq7J0QbQTrRKCuzq233io6depU0XAD3Y4/+eQT0UaNGokCOhHph04EIYQQQjwR8TER6NqJbnT333+/aK5cuUTDBTgOV111leiAAQNEAZ2IaOG/l/oJFgoxc7fmZ+yw3hIvLdaYgkV79XpSkN/6VM+G/wT5eP8DYtQ6SN67TTSp3w2ivlXzRapef1C0ZlcRX87CqtmtsGystsbw17/AZhPVcPEdsyQOlAOY84bqph/1e16pXFXRwYMHizZo0EA0FalecGQRrBOB+jr79u0TPXIEMSnhAcbDnDm1uyuy2eLiNIYG0IlIP3QiCCGEEOKJsHEisJtprViJSmszZ84Uffjhh0UTEhJEUckM9wvV+hHYryuuuEL0ueeeEwV0IqIT58J55xG9pdkYXZrvs5CIA9ZU41iQhQed2/VKMuo+7NPva9Jzl4vG7dO6D8366DOVaiHiiyugiq8hRifsR6rRyrGD2ezpjqux4Yvfojqhq94xcavGTEydpuf4a9WqJRotsE7EydCJSD90IgghhBDiiaipE4FzfAcOHBB1Og+h/jZgP3GOL29eXVEB7P+YMWNE27ZtK0onIlLB8epYihv3zDoq+ulqjQlCrwlXo+2/N+eZpFgNakh+Wo+/uE1/i140TJ+wsBkB2bCcyaCvofN1Htql+psuNH3lc9UU/f7770RrnHVy/YBIhU7EydCJSD90IgghhBDiibB1Inbu3ClaunRp0auvvlr0q6+00l20AWflzTffFH388cdF4Uy0adNGlEQap7YQdqsR4Wtv3T2n7dS0Df+X3fkwqNto4AxScAGbScphlSj/95bqV7qya/W2RvuXU6PM3yrDv1m3/Qi0f/7Hn3zH7BaMj5t3zlP9Xcsf+O648l7Rl1/V/StSRCtfRirBOhF//62O0WOPPSa6dOlS0Rw5zFnK4J8NZyxaoO27Oci4/ehR/QIg5uWtt/Q4bNiwoSigE5F+6EQQQgghxBNh60Ts379fFD0iUNsdNd+jFdTBeP/990VXrFghGqiHAIlMZli9iMsnaZ7/9gS9Dgfg5HX7ievA+feAYIVo3TeTHmwmWrGVHoeNnhXx5bI6EKhX4Xxez9j24vKrrjRjslh91QL2NZjUXXXDSNW//5wh2qjxyRUN3d6XcCVYJwIxZ88+qx8YnAngdA7Si5uj4BXUtWjWTI+/nj17ilatqvVCAJ2I9EMnghBCCCGeCFsn4vBhPdf78ssvi7700kuivXr1EsX1aGH69OmiWGlUqFBBdPHixaIZvXIg4QFW+usP6X8+WKlZSv2WaNZGMtI2suvxEeO2rHBdktsNGEZyaPZQ0u/aqyB5iPasuPwH64lhSRDJ9rTBLvXxZ9zdCW7PaXUmFg1UndtHtfmbuoXS55+8hR8vVH280wuiD/d4SDR/frMyIoxWrVqJrlmzRtTNicDPArLZEGOQVWB/Ao1jzp8zxHDky6dNV2JizIIz6ESkHzoRhBBCCPFE2DoRYPPmzaKtW7cWXb9+vWiXLl1EL79cK+SVLVtWFFkMpxtUxqxTp46oc0bsBhyXRYsWiWImjo8NdSBeeeUV0b1794r+8ccfoszKIP8GvTUW7dPvwVbrPTFojToTo7eoU2GFL/8ZIFRPgBtsRei46sul9UsSn9LvY8Hjk0QvHKLPl+cMEb8T4X+4cztpJIfTgXhdtfYDqlWu1w3H5dcnymFGA+pG1IpVS+KzT7W3RtmyZUQjjUsuuUQUMWTff/+9KLpdRhtwYu666y7Rjh21XSyc7MKFLXiHuEInghBCCCGeCHsnArs/d+5cUdRHwEoc3TpR6TGriI3VLoZwTAYNGiRaoIAtoRygwibO1eHcHc5N4nXHx8eL4txd//79RW+4QbskBut4kPDG60L+01VqTTy9UKPZd/ibNXocFvKZE9Gpkmj1Dnruvd6jIn7HwG3Uwf4n+/9j6oKbA1HLsi+qXqcK5wHPi66gszSkyrf0M9U5fy0UrVU7MntqPPLII6Kom/Drr7+KotdOtPHDDz+I3nHHHaIPPvigKGLrnF0/SWroRBBCCCHEE2HvRAC8DFSynDdPS9PNmTNHdMEC7RqI2ITTBfYLedmTJ08WrV9fE9fhMCBmAxw7pueoL7xQz9VOnDhR9LbbbhNFf/wGDRqIXnTRRaKouIeoZEJSOGyxEB+uUofro1V6fG07rMfnvmNuw8B/WwL+v1rhieT1mg2U9LiubC//ZbuoPyvDNpPdDk9UlEzSshInenyouOJ0IOaYA1HHHIgq5kCgXoRz92PMmFz9oyrqRsyZro5mvfqRGSMwcqQWxrj99ttFzzrrLFFU+i1TJjJjQZygfg6cXoyv6L2E2AgSGDoRhBBCCPFExDgRTpCFgcplWZ3nnJCQINqjRw9RzPzr1q0riuyKdu3aiTqdCFSMQ/YFXh9iPeg8RAdL9uvnvl8PD1+uGF2zbzikt689qF/n/cdVJ+3Q25fuVytij30N9sN5sCW/fzWB0SCQFeC3IExjNObHt2KmSOJTV4l2nKiVD/Nq2RJfNgvRWWXNdteMUD3HYhPylVdNNufEjz1PDjXgUmdhOGIg4EC4jW7ZbHcPblD90Xp5zBlnTkTDyM5WuOeee0Q//vhjUYxDiA1o3LixaGb1yghEYqIeAKh3U6xYMdFAHDx4UHTjxo2ihw6pxYXxH1luAwfqAYT6OnfffbcoxmFmZQQPnQhCCCGEeCJsnAjsZrhXXty1a5dov379RF977TXR4sWLiz733HOi996r3QVRgXLKlCmiWe2okKwFDsQAVJ5cpsfDYQsmiMmm6wJ8qw8l6n9gPFhhylRGA64n4e+pRgXcI9UfFMREbFommvSoLu2v+HWbaCE99e7niBpqvj914etLtMO61QDVfOVU4UjkNAdi4YeqcCAQA1EZWRjI/tC3w5UYM+7W/ab6p5YJOBET0SCynYjdu3eLfvTRR6KvvvqqKHoSoWLn6Y4hA3AiKlasKIrx8uKLLxZ144svvhDt27evKOoG4fcDFTiRtYdsDGipUqVESfDQiSCEEEKIJyI2JiLUwYz4l19+Eb3xxhtFUTcC+dx//fWX6Pjx40URK0GiDPuWon7CAbMWFh9QHbZGnYlP16omHMVS3B5gywULofgX+PrjD07Hwfl3oNcTMXzg6WJ1hefrcqZI3a6bRGvqKWdfnJaR8G8uwZruTlTjzZesu+9r+YFqkZqqC82hcHMg3LIwUmHPG5tbdaa2zPAt0UKVvrlTNIurdu3aopEOKuIuXbpUdPbs2aIzZ2psC8ap0+VI4Hng2P7555+i+JkaMEAPhJtvvlnUCRyI3r17i6ISZ8uWLUWrV68uiu6elStXFs2d2w4IkmboRBBCCCHEE3QiTjN4uxHbgRiHCRMmiKIOBOpd4H7ObJNMA0eDrdiCxuVxXjdHggPf3gO2go+3rIyRW/Sc8vjt+oe5e/T2JXtgGeCTMRBrhA8Kf0Yb0FS3qzQ+Q9Mczi+hd7jpLM0Wuvcircy6bLfm37f+TB/o7J1hIRypHAlkcZRsqrriS9Xa96n6HQiLgfA7IUEC52KMGoC+ysd0pTpk8FDRcuUtKCPKwHgEhyKzew05x0OArJBvv/1WFJWIt2/XuiM9e/Y8SVE3p08fbdv6xBNPiMK5uPPOO0VRCTirKxhHEnQiCCGEEOIJOhEhAqKRUVnzpptuEl2yZImo05FIL/jQT57/k0jhiB0mCeZM4Pouy4KYZ46EJW/4FlodiR3W1bN0bj0yKuU9eZ1xbjG9PacFV+QxxwCaP05vf+F5DTbo1/cN0YvHa9R/3tIiviRzTgCch4QtqpOs++YOPTXva6inuH2VrevmiRgIHMEBhjHH3RCb8fW5qg91fEr0iSd1xYuVLb8noQF6XMB5QMXJzp07i37wgQbRDB6swS0PPKAH0JAhQ0TdYihI+qETQQghhBBP0IkIUVBxDTPvrVv1pDG6kxKSHvzJG8YRi31A74pYKygR51hm5Axy2bHB8vObNNGlfp7zNUujsTkK/q6ajv2AI7FfW834EvRhviJaUNE1CyOwY6B/yVFQ7zntSRHfIuveOW3iNNEmTZqIkqzFGSsBB3bxYu3NghiHqVOnit5yyy2iiHkYNmyYKJ2IzIdOBCGEEEI8QScixEFlOcywSxQvIer1JK1zhu/HeRS4/NlfyTDY50/r/UloEuhzdPl7r169RN/p/7Zos8+0h8wZ2prhxP3xeMN/M5yKgMsdlw0Z6Bq6S0OOfL9YVsatl3cRfeNNrYhYtGhRURLarF27VhRZGz///LMoxjdksQ0dqtk2iDEjGQ+dCEIIIYR4gk4EIRGE88vsZhycLvbs2SPatu0loks2aLrFRT+oxZC/gu5hEpp7ZPBoBAfCZz04fu6gWjVWYx8QzV+jRg3RE2BHsvodjG5cnVMDTi26byJLA907GROR+dCJIIQQQogn6ESEKanXSVw5RRPh9mlv2qxpFi1bthDddljPaTezXhhl26gmmWOA7p3A+Tr9gxb+YDfgdnT93KStF3xTn1U9ukYrFX7/zQjRS9pqt1G3lS4JD9BT6P333xdFdsbLL78setFFF4mSjIdOBCGEEEI8QSciiwl0zi8QE3boueUFe1WdW6mQT29pV8oS8AnJQtatUwfi6qu19OTcVbNES9QX8TXX1ge+/JVU0dUTWRr+nht2oGfT1h3+HhywIqZbPYpF1nOjSU2NgXjxxRdFW7fW3h7o0UAig4QEzf7Zv18rpBYqVEg0Vy7rLksyHDoRhBBCCPEEnYgw453lujQbul51U4IuzQ4n6tLshBOhHysqDhaMU32omq68ulXRJZzTuQD7bAU4ZI3+p2AO3V7nM21DDnAQuW2PhAen63PctWuX6ID3PxR9td9LoodzavOOYtVFfIWqqhY+S7VgZdXD+nDfVi006Tu4TnXHMtVj2uzR16WTdsVFV8fq1auJBnT+eECHJOl1bknGQyeCEEIIIZ6gE2HstO6Gt0zVSmefNdEVe8lcGTPj9bqwQffFe2fqDv6wScPW9x1TTbYuhoG2i+cvmlPveUEJjZHoXk2dhT32+iftUOfhh42qBy1KftqFuUXPzJMx7wchKcTHx4uuW6dWwi8//yr656RxolPnTBLdvfWgqA+hPRqM7yt4hh6XDes0FT23sWZ/dLymo2jFihVEcW482jltBksGPZHzx8m5ufn7dID8bYsOVGvj9RHHrRcMus3WKaTr5fal9QAqlcZx/ZCNg3hULoaY+aETQQghhBBPRL0TcdxW+p+v05V31+nqRDQvrlPNH87VvPISmLkGmGEH+PM/f9d7ZHO9x8ncOk3355sNOhU+kqiPtyaLacaa4flyWFR7sRy6Idus7+Bx/c/BI6ov1tPX/3TNU8dCEJKRJMRrdP2BgwdE4VQcO6rWg3+0Ms2RS4/LPLnziObNl1c0f360+yRpYa85PFhp58riZSY+bgx3k3fqAPb2Mt3Rmbt1XNxn+33MDhAcJ4idQPdZOLEXn6EvsOdZevyUdXFY/7dZtz9snT7BXZX0/m1K0ooAdCIIIYQQ4omodyIO27muB+boiv+TlepIxNr06pyi5kg01xiJEhk1NXdOsQ04Ap9bVsS9s3W/jtk5vmAdjFQ4ni/ZZuhJ/u2ezNO1dcbdtIi+/tUH9X6F1Jjw3VzerAwSlYwbpzELe/fuFe3QQZtSxMRwhRbOfL1eB8Thlv31dG0d9xoWyphxJ1icDxuzTR2IXvM1eGv2Ht1PjJfZ7BGpszb0dvzKJdsW4+xu19s41sqc52UH9I6Td+rrn7tHn/cmy0p7oY45F7nT+IIiGDoRhBBCCPFE1DsR8RYD0G6SrvgnbNcZqAX1/jNv1XlWk6Kq/RvYzLxwgPkX3lXXCeup74CZdZVf9NzwugS9wfXZXJ4n4NMDxx0L2hQd50Rj7ImL5dD//NBCrYgKrlkaQT8zCUP+/vtv0TvuuEN0w4YNom+//bbo7bffLpo9e4DvBzhx8lqVZClXTdZxcIRlZ9U3J/Kzc/R7f3bB0/s5/WUVeR+bpw7ElF3qQGAvnLFhuIpRyA2Ms3lsnMsTq488Ys70gaP6vKXz6XH8hb3+NpbVBpzPc3rfndAgyG86IYQQQsjJRKETgZerc0Y4ERdN0Ep5Uy3617+Qcrw75fPq47pU0HNjz9RSTS94moXWA6PuaO2HD0ckECe/qhOkut3tjgae76jNyDHNnH2xRr/Xs3OjLg8nEcqUKVNE4UAsWbJEFOTNq1kRcCRwP1YWDDFcvv+bdLjxXTVZ/zPDxkF8/xuZI/FpY12R1/UaI+GGy37dPFXH5aFrdEDCuHziuMIDA6H3R+wEHuVX+w+0Un69/802zhewELAZlg3SrbLecH4Jl9gwbDiD36ZQhE4EIYQQQjwRfU6EY4aYoKf+fFdO1hnvmG0604xxmelaMoOvoNVXqGuV0B6qqjPWq8qefM4sWHCO7p3lmo/cY66eAwzWiUg7zo9dnwivr2JefV3Dm+vKo5FLDAi2kmm7SbIUOBBdu3YVXbx4sSjAihDDCByJd955R7RLly6ipy1rgwekJyaZ83D3DI2JWGyVINEdFb8SyFZ7ooaOdx3K6PWMXo2O365P+MAsdUYW2f7EuBXIwc34/NOMPhDZG0jCQ4zYnmP69wetwm9Pe/2FkObhALsB5yOSD8iM/uwJIYQQEiWwToSd+3/C8o/7WyU0ZCX8e06ZAq7hXctuK7ES1q6+en59YOcKeq7sBstDRhSwGzbR9T05T5//jWW6IojFSk/+Tc3Je/cvcIPbA10onUf3f2RLfUF10xiN7bo/JKTBMABnIVAMRCDy5NEYmkGDBolec801oqwjEZos3a+f/00WgzBnN1b+Iv7vNYbF/JbNgJgBOBNltJWJnxPjAf4H/nuEeHK+joP9zZk9ZFatf1h2PhzXnU+TZnQD6EmUZE5112o6jj9vdTNKB6oTceKFRzz+z4QQQgghJC1Eb3aGzTRNfPP26O31f9Va/TEu57rcQExD9mz6H9RVKGa12lFrvW5BvR29OQrqBN4/s311ic68n5qvTsSJ2Iz/Bh9iqnvjBtwhAC1tv8afb9YKiSicjoPz+scffyzap08f0ZUrV4qCSy+9VHTChAmiCQlaz6RCBe2WuXbtWlFQunRp0e+//060adNmoic4+chNdRynukFJfbPLHUlQLLdKjdf/rU7EXDgRLsZRogVPob7CWQX0jrdU1BX73Za9gJ4VaeXGKTr+fW2Ve2N0c6nAr5f/U0/18eMGvWPqo+Tkv4NEc6i7Wazb05aFx0qVqaETQQghhBBPRH1MBLByEb5r/7KKbRtsBuwyEw8Eshzw5uazmXRuS7fIZ06HTeT9MRO5YvURM3apZty817ZkTolPFxonblbx3VpRZ9yfNNZzfyQycToQn3zyiehzzz0numnTJlFw1113iXbs2FH0lltuEd2+fbvoBx98IIqKlsOGDRNNsraxZ555pujw4cNFzznnHFFymsBAFGBAud4cgG9t/Eu1ysTjbXv+Xw87jgrF6Q1lLLbq8lI68F1TTge4BoEq/RrX/W37sdZi1DBQpsKxQ4EI8D4k2g/BLZV1/HvOeghVtPpAJDV0IgghhBDiiah1IvCij9u5r9+363/Qza3dJD03OMluT2+9Bjwf3u1Ub7rdkNMci+NwCjIYhFg4P3W8vEfP0hn4q3UtWINEFE4H4tNPPxV99tlnRZ0OBHphvPbaa6IjRowQffTRR0X3798v+uWXX4pecsklok888YQosjPwvBUrVhT96quvROlIhBbvWxfj5xdqttqOI/q5pRr/MH7A2bQRxOnAFjDHtaCNa7UK6vjayHoRFdMyNL6z7fbziuvt15gT8cN6cyLSOQDj0dgvNxItTe7purpjT9bUcTBQdl00QyeCEEIIIZ6I+piIeMsDvtaiko+YA1DKonB/3qROxEE7V5a++fA/4N122VCAP2caeL4e1dWJeO1sOhGRTKAYCFSohENRtmxZ0TfeeEP0+eefFz1w4IDo4MGDRTt37ix66JBWGuzevbvo559/LppoYe/I5vj6669FmzRpIgqHhJwenOMN6tXcMlWdiO8sNiLJ7pnq03EZsFD5ET8v+JWJtYqTec2ZiLVlbF5b6SN2DL089tsOuRWqdAX3x/6l4tR3SDyq1z8+V7PTulayHSKu0IkghBBCiCeix4nAq3TMaBMsJqLzVDsHZ330i1hvjAPmQOBcX4YRaKYccCadseDpPmmiM/BbK/AkYCSCOhBwEpwORP/+/UWvv/560RIlSoiCN998UxQOhtOJuOGGG0Rz5tRzyvHxWncFFStHjRolCpC1MWnSJNFy5cqJktPLxB1qwe62lXjZPDoiPDFPHYlx2/TvqIMDMG64ja9OcDfnr47jqj92y32Va3fA/qDgDzbssh+42fl8uAFOxGCr2HurVR4m7tCJIIQQQognoj4m4og5ET0X6Iz77SWq2ewkXJrPxQXCbSqM6xn9fEECp2XhZdrzoKb108/i3SIu4GsbKIbg+HF11h588EHR777TypGo7wDQdfO2224TzZ8/v6iTQE7EjTfeKJojx8l1RtavXy8KR2LGjBmi4IILLhBFlkepUqVESQYR4Iv89y51Gnpa9+DNh/V6DsuK2BCvG0iw0rw47PxGgMopCPDEBv7qtp1Afz9BoOc79ZYsFM6Xz+pRDG2qTtoVpenIBoJOBCGEEEI8EYVOxMkzVVybu1f/d954DQuOt6hgt/msZ049Ec5yqln30fmXaBs+1wJxJKzYuXOnaL169USdMRDBOhDAqxMBVq9eLYr7TZ8+XRS0adNGdOjQoaIlS5YUJRnEycOfnz1ajsF3yZ+apTZ9hzpYOa3OA1bqXmPDTtuw53iiYJ830V5gGYsF+ewcdSIusp5HxB06EYQQQgjxRNRMIlJmojobTZlpYn564lqN/Nnk0rVirFySjiXLxXn/dHNiR4IijXf3TOsSMXJJcSDEhThdT0zSRYqR+F9mYpEiReQycOBAueB6igORcklxIFIuKQ5EIBfivwi0H6BSpUpySalYmXJJqQ+BGhEpXHbZZXIpUKCAXEgGkfLZpFxchrPCcXo5M59epETlP5eUITDlkuJAnNKFcNmek5SHnurhfmw7Ae+XCscOYAPZ/vlp++eSFJdTLr4cufWSK69ecubRC26P/ec+/1xqFIqTS6lc2eRCAkMnghBCCCGeiPrsDCdbDuvb8bjlR39pteSzWwHHDJ+bYoP2KeDDyPDncdmwBVv7xp6vedEXlOA5wEgElSJXrFghWr58edE8eTQbJ1jcYiK+/fZb0Q4dOojGxQVX8XTRokWic+fOFW3btq1osWLFREkm4xgXvt2ox0mPOVo3Z0O8BgvEWJqaY7jy43a7K6jr4Kg7kYqAG7Y/pDgJKeTU4y553x7VuX+I+nZvFUnerllCvtzqumXLX0g0Od8Zoj2vay36wrlaHyW4ozi6oRNBCCGEEE/QiXBh0yF9W95YpmHLby218GUjxuv0K81TdgOJ2Wn8uHB3t3IC6O8/qY1mZeTktJL8B25OxJIlS0TPOuss0bRy7Jh+v4J1MEjm0m2GZmkMWqPOhBXuDdzNGMMThisV/7AXNDZgZbMtJCM9xL8h+09+ddKS50xQ/V0rsiYvmSfqS9grkj2PHl85c2kF1ey5tRLlkQQd947v1uOuQC7Vyy8+V/SRHlpfpWHDhqJOPL++CII/GYQQQgjxBJ0IFxCJ/NNmnYkfMCPi/ZUaKzHdKryhomWyzUmz+eekUNyueH2z8Tj/jNd5A67H2kouyUpx+qfwJ4PX93Jdzed/sgZXgCQwbk7EunXrRBFrgWGFXTlDk1TjiYPtR/Qej8zR8e6r9dbN04aTVE6sY4POYcmdIB9ox1NyDo3d8h1WR8H3v74iSb8OE42L3Sha7TodsMteJOLLYYk+KUkbgmmyviz/7evHq278VmMsYncXFe3Qsb3os889I4qKqjzO6UQQQgghxCN0Igynk4Duntf8pRUs19rEF9kbB6yiZcojlUAzUef9nFPuQNux2+PUOUiK0XN62dFkzh6euHSm/qe4rghjilkXRltBJFs6RokYnakvuVgdiELWtZSQ/wJdPp9++mlROBFr164VRVdOEqoEGmdO5qCt1D9cqePFu5athqwNf2+htG027ZgDkbxhsWjSly+I+maNFKnVVWM4Klwp4stXVjWHJl+ccCBsP5EcAvA6juxXPbpPda4WdPVt+F4H2svbavZRv7f6iKbUPEnBzZHI7LclFKATQQghhBBP0Ilw4Zit3D+wmfdDFq2c3ZpKnK5TYMlxdg4wVus3JE3WLowF5/4qum8xuiHqDhW0qOODSTo/TDxiXUkLa959/gYXij5yZ2fRZ5uXEyUkGO6++27Rzz//XPTwYf1e0ImIDJwr5yX7dSAct011o2Wtjdys4+LS/XodTq4fbCC9vy7muPoOat2HxAEPicYtGi7a4EkRX6WrVePyquJXzRkSFnC37A4x1vrl8C7VLZNV52tIkO/8ateKvvHu66IVK1QUjUboRBBCCCHEE3QiArDTopSv+VsruE3YqsESMZlc2DEppZ77P+ScrDPu46M+FK18ZIfotQV1Pxrk03lgubzqWOSy7omoUHjkuK4YlhzQ/R+9V6fmk49rLMRNl6oz8fSLL4vmy2tTeUJOQefO6mB98803okePqtNFJyIywI8BVuwL9+kt98/S8WPZAR0/EixWIh4lb4FzA04C/d1JSp+Lf0j89GFR32/vizTprTEa1W4R8WVDbJjt14m9sifCz5zjeXHV8Sr8ZHOM82vVAPbNVQPCd+P594g++2Jv0dKWtXGCtL7g8INOBCGEEEI8QSciSJYf0LfprpnmSNg5QW156XOt5Ja6foSRagqsNySldJb7hwJDHhPNZk7EaxXVaWhTuoho0VzqOBQyzZYd80GcBMQTqB49ps7EzkN6DnvxHo2qH7ZJdV5uzYf+8ssvRWt4rDxIIptbbtGl3/DhelzSiYgO7pyh496gNeoAJFl6w4lxD/859c+J+19xi39Dio2DSTM0+yL53UdF6966XLTW/SL+GIgkG46By1ZP8N+76789u8VGoHcSYiz+ekJ13ddqgQwe9IXoTTfdKBpN0IkghBBCiCei3okIOGN13GP1QZ2KfrdR9ZPVOjNfsdsKS9jU3JIpXCe6J9D7J8fqlLdg/06ihZZo6bShjcqI1iumCc+5c9jJP2w42I/PmU5ij9twUOtgvDFfV5K/Zyso+tlAjcE4p2UrUUJSSGtMBIYXVq4MMzCs2Me2zerjdJupn/dPm3Tpj7vBkXA87J8b9H/ZrFsn/n4C3NP+4j9OVBP73ipa+KB2iW2mBSp9xRuoJuruZBy2G3EF9Pk3j9cb9qoB4ivbRjXWmt+O6aZ6aTl16F7rp7FlZctaoYoogE4EIYQQQjwRNU4EXiTmuU4C/d15j3g7B7f5kDoSWzTUwDd4jf7hMzt3GKjrHWIlCnynvQgKjVEHYHiLaqKNShYW9ZPmjyvAK7OZ/65DOqXvv1BXlN8e0eyQUX9oP/7yUTSzJu4wJiJaOPW4gToRT8zTz33YWhsILVYAFXRdh71Um3XcYI5s8hrtwpnUT7MfzrlPK/FWtWwM/+PteQFuxlb9t5gT8q8/KI4HoMfGpnGq05/RO5zRTO9Q+wERXwErCzFVkzJ8e386Q/STDz4TveTSS0SjAToRhBBCCPEEszOCBm8Tpq4Kemy8b5Ut31mmM/QtR3SKnA1F2v0TYtuOyfE1c0Xzv3yZ6Njzq4s2LmFF33H/WMz3bEPH7YmdU2kn/t22+2EzcbZkOGorCbvjviN6/faJi0SLNG0t+vFwPScJ/Js1zWh4Lj00oRMRWXj9HqPL54TtOs7BeR21RcclZDGkuZ6O1YVI+kUd2ew/vyTa+vVNouXaiviOayiXH//rcBkOXW7235BDQ8F8m6yL5zRzGAqrIeyr86AqHIhYNWp960apTuyp+mr3fqKP9ewhGg3QiSCEEEKIJ6LIidCXmWxzUq/r27926RT77x2qX67TldhmmxmjwmXAWAibqhd/4xrRC3fOEf2izdmiaNx/3D6d52avEkV9iIfr2ZTY6j+4gk/X6khsOJggeuP4haIftdB6EDUL5xPFO7MxXl/QuaMWiA4bqaXaWjRvLpoaPJHXd5aEA3QiTg9uTlyGOXRev66OxyXZ9X3W1XjOHtXXl6ozMWG7OptoepzdNmBX/8GxA7nNiRiiXWLzzNY2ms1fOShaypLFErVshT8GI9mGQewPSPXycIPdzx8DYQ7EdH1aX0Erk3O2turwFdBmnX6Hxb9dc1p+0aQl341V9AGv9HtetEABe4IIhk4EIYQQQjwRdTERKPU+33pITDRHIZ/NaGNthp9kb8u8ffr3abt0qrtLF16+PeY47DxsU1ObjsVghYB31T9ltRtMkjYtEy3cS1f2S69qIlo8t5VIszvCOZm2fa9o18lLRe+sXlr0QTdHwv+8+h/Ug7j8d43BON8qX77UoLJovjjHyUtrsN9z+grR+LN1P9/9YqhoalK9YBKB0Ikgp+J36yn0nsWG/b1Tr8OhCPpXJp/1ynjuBtHSOfU4a6QLe18hDRnzDzN7dDj05SmpmlOHNV+SjdMAoxL2wxkDMd1iILD9ui4OhB/bTk5Lnht9u+oVRTR948XXNNuuaBHboQiGTgQhhBBCPBG12Rm7j+rL/sEqT362Rqeu8/bq7bltYX7YrIuDeorvBDa1ReyDc6bruiBP0hl6wVHvil4wXhvUf9u2oagv0TnlVfAxjduiffUfmqol1LqmciQs2wIxEPvVgbhijOZdn19ap8697f5FcqEovIqTVfs1hqL+b/r4bTt2iubObeHJDgK9fDechyGzMkKT2267TXTYsGGidCLCBMcX0+v3dK45uFMtNmyk9RCCs7vZ6kjA8XWLDcPNJ3/r/yG/ORGPXSF6ZmntndFAF/a+/DbMHddhyTdFW2r4nYIGFtOQ3w7DRGRx2BMF7UDY8/iHJeeOOrb3x92q7YtoGsfzLz8jWoROBCGEEELIqYkaJwIv0jkx3msOwxrriTFyszoF327QGfaCHRZrgCk1pl12FTe7bR/X/W/ycV25FevTXrRvAV3Zd65mFSGD/DjGbt4t+tA0dSQQI9HdHIYNu+NF2/+hDsJ5pdSBeMbvQFjsRYDnS7S/Vx8xS3TIL5oY3azZOaKojZ/qhZOI5JJLtBLf77//Lpojhx5HK1euFI2mngGRwIhNOr6N366KrzGc2LUJ+v3fEK8KB3ePKepFWDIZDNATw0GqAdDwV5B0DBx5zIn44D7RIhsHijZ9WfeveGMRf8+M7dNUZ76gCgei0bOq+cqrxthwF2wMBCphphoeHa8nVzHVX29WvaKQ7vfLlp1RtKh2R45k6EQQQgghxBPRFxPhNrM0DlpIwSbribHigD5glEUfL9mv1xdZ1sa2/eZUBJyO2RMd1SYbFV88V3TQWTrzbm3ZEqn2LwBwJB61LIqOFUqI/rJeHY5mJfWkXe+zzYHI/d8xELjZuYBo/dts0eeH/SDaurVWsgwWHGYZFeswa5Y6I1OmTBGdPHmy6I03aj//K67Qc6rZsTQiGULVqlVF4TzUrFlTdNw4bTZQsqSGyWf05x3uHDmihQ1y5swpmlGk933eZU7C79t0PHtruVqzc6wrsb8wLsDTmGa3583mGFBwt5NvPXHdsZkT97M6EYlfaTfMnJPfEG31msaClbYumqgTkc2+3tvMkZhlWRx5y6k266O6f7Xq1CdUC1kdiGCzMJxkt2EU2/3tLtWHLu0l+vwrGhORMyey7SIXjrCEEEII8UTUx0QEyw6bsR+wGIoDVkpyv+VBb7Qo4E12DhELAzxfubz6vxLZdArd2ypTvlRZK5q1spiFVDPfVFN1YDfYVHzIis2iqCPRoKhWoJzQTrM+csTYfDHVdv4b3P1hywYpcsOdos88bScVnW8oHuC8PY3AaVi0SHt4wHGYN09jPHbvVgdm165dojt3qvPSrZs2+H/vvfdEY2OtAAjJEMqV0yXexo0bRRs0aCD622+/iZYooU4YOZnFixeLPvXUU6KIJWnRooVonTp1RJs1ayaaK1cu0cxHv7CHzHHYaFkPv2/TGyZbTNiPG9WiPWLjICo1Ogc6Ky/j+vVH1kaqcQjXY+11z/xZ9Qt9vy58fYlouXYivmNawNL/9FgOw5GY/Yoq/n5ou2oJC+Wqg26ciIGw1+/cLTfirMDvok9U52uSnW/Aa4NFu9x2q2g0QCeCEEIIIZ6I2joRgcHb4janPhnUbD/kn2rr4/Do3LYgznZMnYiL6unK49kK+UVbOJ2IQE9vU2xUorx67HzRvLG6RNh5WC2Tu2uUEb2vbgXRgL02HGA3rh2rDsB1r7+vev11ol7Zvl2XBqNGabYHHIepU6eKbtu2TXT//v2icBxQl8AJVnadOnUSHThQo7rj4uzkJckQypfXcPcNGzaI1q9fXxSfI52IUzN0qFZ6veeee0QPHDggWqyYhvejx0LBghrDdNZZetL+nHN06ex0KtzqtGQUh22YQDbGasvOWLJfgwamW52IuXv1jjstRmGtZbn5m2Vg/LKr+fLouvWMXPqHkrlVC8WqnlNCv6+NYvT7/tR1V4luLfWXaHOrF5FXhzVfksWwpXIk1Lj0zX9bFVkatayeQwEt1HsiBgIDnQuOl+GvDzGhu2qxJfo5vfu+1v9p3MTSSKIAOhGEEEII8QSdiNMMorQvaqwruO7F1Dm4ptIZon5LA1NfJzblXn9AHYhrzIEolFOtjo9aaLQ8Kk0+PE2zNlDZsvvZaXQkbD+aWcXK5z4dItrW6gXg4HHu7qFDun+oJ4BzwohtwDn1rVu3isJxiI/X+hZu4Bw8sgIuvvhi0erVNeEbK7uKFTUbhdkBGQudCG98/fXXooMH6zlzZLMcO+YshXsyTqeiUKFCojjemzZtKgqnAtczy6k4ait31InYa47DERtO4s0ZOIasEfn3xDiRxwrr5LTlay6LrYizYIoiOVULmHP79htvib72xquiZ728Q7SCxUb4K1Ia+LqjbsVBPUx9cXlUUdch1Y65gD/j7uj6uVI/Tt9Ey/Z45kEtTPH0M5qdEU0OKJ0IQgghhHiCTsRp5tgxPaff4149N1po+h+iLzSpJpqqIT6wLIwNB9Rh6OhwID5uUUO0QgHNs8ZUfMwmzWLoMR2VLfVk4gNBOhKIrajx43TR5Zs0C6RwYYvhcKFhQ80KQdYEnIa9e7UbqRtVqlQRdToN9erVE0UFOKzMUJcgJgbh4goOazoRGQved5zTr1RJw9v/+kvPWZ9xhjlq5CSQTbRnj9Y7wPdg6VLNpkIs0MKFC0Xh2MG5dANOBWIpnDEVjRvrufk2bbTAAm4Pl5UyjrPLL9UKvzO3/Sl60Uf6vS5cW7/nx83A9BfQNc1uwwJ+5ZKDNGCdxJhDkqDGqe/3u3WDVY9q9+UBH2usWKOGjUSjCToRhBBCCPEEnYjTTJI5BJMmThS94/K2oitvaCnqPwmHmbNNqVft16n2DeN0pVI4FxwIXbFXKGDnQFM5Gfr4PzZptPMj5kjcXk1jJB6qi3Z3zsfp9aGrdOr94S69PmmBxjYEolatWqKIhXCjS5cuovfff78ozuXmy6eJ2HAaMrrSH/EGVsyHD2vl1fz5Nbuobt26osyGSRsYD+BU7Nu3TxROxbJly0ThTMCpmDNnjiju7wSVWjG8IzbpwgsvFA2WUHH08Ppv7axdZLcV1velTX8RXyEzclE/AqOZc6/dbk+F3RH1IA5pKIbvbyuPkzRTx883Xn9H9LrrrxGNRuhEEEIIIcQTdCKyCJzrO6eWnqN8soKey+xc3bog2grluH08j1m3zrUH9RzpW021h4EzBiJV1LFj6j3GHIk3F65XPUen8DUK2XaMY7a9uj/oyvOJfppw3eVOKxLv2K7zhieeeFy0b99+om6HWYUKGptx883aBq93b53qo+5DsLitmEJlJUWIF+BUIKYIWU9DhmiW1BtvaG8J1F1xgmyOMWPGiDZqFJrn7IP9ng75XF/3E710fDlYUJ3Sc18U8ZVupYr6Eej26R+eUmHPZ8+f3YadnBbytfp71dla/sGXZ7s6oy/2ek208206bsXGWDpJ6oEx4qETQQghhBBP0Ik47ejbnWSxC0MGfyb6wn26wp96VXPR4nk0BgAfz5K9GhORzypSlneNgXADM2O9/8I9evKwfF7dToEcFsZsPTY+XqwJ1m9t0uedOl8rShawc+CBGPuHrnwuvEizKwKRN686IcjKuPfee0URM0FININ6Ku++q0viX375RXTJEu0p4VbJ9fzzzxf96KOPRJH9FGoE60QcOaKxOJMn/S36RE91JOas1147ZbQ5sq+GGgS+UtqaxBeL4dKZnWFPh79v1WbAvmVaYNS3/FvVCsW17swrL2lTjmuvv1o0NlZjgDAKp9p71z9EDnQiCCGEEOIJOhFZDKKrO113rWjB5TqjHtpGKzP6cc5kXbIwTkx9A4B2e7i7XR+7Qes63DJ2rujHP/xP9LLLrxD1E2CGfShB61kUK15cNMGuI08dDsM772h085YtW0RBqVKlRM8+W7ud3nmndg/t2LGjKAh2BUNIOPLJJ9omEpUu587V76WzsisqiaIuC75vjz32mGjPnj1FixQpIhoprFm9RnTYkK9EP/78Q9F1+9VJLWw9MvJoaIgvznpeWNkdf8XLg/q2+Xar4eorVUBjH7rcdIfoVR2vFK1XX+vVMAvpBHQiCCGEEOIJOhEhwgrLB7+/802iZXfqTPqDVrVFc+aw6N9Ey8IIFr/TYOp3EGzlHqt/GLtOE6G7jdceGT3e0gpsd96lDkCsoyKknwCOBCrloVcA6grMm6fPg3x4OBKff/65qBOstFq00JOcyOKAs0FCEzpFaWPChAmi+D5MmjRJFA4DqFpVs7PwPUD9DnQLhcP5448/il55pa6k3Qj3z+ngQc12W23OxKIFGiuCcWf7Du0KvGe/vo+58+ZSzaGxWEULqvPQ+rzzRGvX0zo3lSppLAQqgfrxj3sBBsAogE4EIYQQQjxBJyKrcJnALrIVeu9HHxHdMUN7Erx0rmYtnFfBuiSiwiScCefH6N++PYF1z8P1hMMazf3aLO3y+eUK7YnR4633RLveoecC01sp8qknnxR97fXXRXG4ff+9JmAjxmHzZn1+OBQff/yxKFZSACul2rXVobnEuok+88wzoqh0SUg4sGnTJtH+/bX04k8//SSKnhpObr/9dtGuXbuKNmvWTBTfI3xf0GNm9OjRouhlE3G4jKMAWS2HDmlWx1HrRYJeOzGW7YZKuYF7vwR4wiiETgQhhBBCPEEnIkRBjMSXX2nj+rEDdaVSOrsmOl92pjoSl56p5/JKFnZZgR/V0m1Tt2ilykmb9JzgZ0s05qJJ20tFr7zjbtFLL9FeHhnVq2Kanattaism0KNHD9E+ffqIotY/WL9eK2qOHDlSFCs19BIAefLkEYUzcc892h3Vrb4EDneeoydZCbIuEAM0e/ZsUWRVgAYNNEvr8ce1HsIFF1wgWtyynhBThHoQyN4Il/oQJPyhE0EIIYQQT9CJCHFQMx8rjJE//yy6aZqWVtuwaL5ofLyuYLDAxod6zEImKlXSHhWVm2q30GqtdKVyYUu9XjmTVirHjh0TLVtWe4Kgxj9WWLNmaV0MN1CJD+eIhw8fLorodWe+POpL1Kun+dw4d+ysL0HI6QRZF6g4OdG6+O7YYe0hjTJlyoiiq+1ll10mii6pTn628eCBBx4QXbdunWik14cgoQOdCEIIIYR4gk5EmLFzl8Y2bLNshq22kjl4RFfszjP9uF6ysJZsK1la++CXK6fOQHaUbstkrrlG++3/8MMPorGxWvcCtf8rV7bScgHAOWA4E4ipcGZxgDPPPFO0pTkuvXr1EmV9iVPDmJGMYePGjaLvvafZTsi6wPHuBFkXt956qyi6bSLmx41XXtFeDv36abfcPXv2iAZbH4KQ9EInghBCCCGeoBMRLuBTCtMFIhyDJ61uRFKSBmsgehyxC2ldAeMc8JQpU0Q//fRT0T/++EPUCc4to77E008/LYpKmoSkh2CzLtATBt8HZ9aFE+cwje9Jhw4dROF0IPZhzBjtoovYI0IyCzoRhBBCCPEEnYhwxc2ZSKtjker+zsNB/4DDJFinwHn/5cuXi1avXl0UwIEYOHCgqLNehBO3/cDtq1atEv3uu+9E0f3Qrb5EnTp1RLt16yZ62223iUYbzvc1MVHrkcycOVN0zZo1orlyac8B9G6oVUt7DIC0HidZTXr3988//xRF7INb1kWhQhqT9OCDD4oiVgFZRGll9+7dohdeeKHonDlzROFo4PvE+hAks6ETQQghhBBP0IkgpxVkYaxevVq0YkXtkofrGQXqR6xcuVIUsRLI03eC+hI4hwxH4uqrrxaNVJwr8VGjRomiQujatWtFDx48KIqsmrx5tfshVr6oR4D3MVLZsEErvb7/vna5RZ2GxYsXizq5/vrrRZF90bx5c1G8f15xqw/x6KOPiiLWgvUhSGZDJ4IQQgghnqATEaXgQ8eZYOf1zOLOO+8UhTOAww8xEzjX7oZz5RwsOEc9bdo00UGDBokGqi/RqlUrUay0a9bUbqqRBmJInnvuOdFFixaJBiJHjhyi5513nuiQIUNES5bUni6hgtfjBqCrLF4fKq06sy7q168vet9994ledNFFouXLlxfNKF5++WVR1IdA/ZQRI0aIImuDkMyGTgQhhBBCPEEngqSLtK7wkEcPRwJgpXfHHXeIel0xBgvO9aOnweuvvy7qVlEQef1t2rQRffXVV0WxEk/vSjer2LJli2jbttq9dcGCBaJeQQVFZCEEqrgYquC4QNYFrjuzLgoXLizavXt3UWRdoKssYkgyGnxev//+uyiyP8aNGycKR4SQzIZOBCGEEEI8kelORLiu0EjmgJUczi2jTgPy2ZGtcbqZN2+e6G+//SYKpwFdVAHqIkyfPl00XFfa27ZtE0UWBs6to2sqwAq3U6dOoqjDgYqIqCcBqlWrJop6CaEWG+EGYnLefvttUazonfVFwKWXXiqK7AjEhJyu4wFZGIjpQdYTnBN8DiS0iMTfQzoRhBBCCPGEZyci2BmV836RNhOLtNdzujh8+LAoKiCGCqgvAWcCvT3QC+G1114TfeSRR0Tj4uJEM4qMPp5QcRJZKTNmzBDFynvFihWiu6w7LJ4ffPjhh6I413/s2DHRG2+8URQ9S5yOBGIrEBsQ6iAmByt8pwOF+iGI5UGlyNNdERI9ZxDLAkcJxyH2J3fu3KIkc8ms8T+cflfoRBBCCCHEEyGTneGceYXaTCyz9yfUXi9RNm3aJIq6CQ0bNhRFJcBQ+bywQkVMx/Dhw0XhqGzdulV0+/btosGC2I/GjRuLgssuu0wU2QFOJwKxBOFybh7vC+orIPajc+fOonBekPUQExMjSki0QyeCEEIIIZ5gnQgS1Xh1gELFOYLj8MUXX4jCAcBKOr20aNFCFLEAO3fuFO3bt68oHA6QL18+0aVLl4qWKVNGNKsJ9vMaPXq0KOp/oMsm6kGECqFy/BFCJ4IQQgghnqATQUISrrRODbqSoo7F2LFjRdHFMVhKly4tikqciKVwo2zZsqLIXtmzZ4+ok6uuukoUlUnDrYvk8ePHRTOr0iQh/0U4jnt0IgghhBDiidPmRCC/fNiwYaKzZ88WxbnTUI92xsww0NuF+6FrX7NmzURvuOEGUZxrJeRUuK1ERo0aJYrujZMnTxYNBByH1q1bi6L3x1lnnSWKmAX0DhkwYIBoWkHMwMiRI0WbNm0qmj17eK9TwnFlGIo430dkw/z888+if//9tyjqXiDbJ1zfd7xejPf4PcD3DxVPc+bMKRrOxxmdCEIIIYR4ItOdCOTZP/TQQ6J//PGH6IEDB0SLFy8umsm7cdpBxTtUjrv44otF33//fVGcKw7nGSjJfJ577jnRr7/+WtStlwMoVaqU6PXXXy+KSpOVKlUSLVeunKgT9DTp06eP6KeffirqFvsAmjRpIor9vOSSS0R5PJNTgQqnOM5+/fVXUWT1oIKts+5IuIHjHzE2qAiLXjSoO/L444+LnnnmmaLhCJ0IQgghhHgi05yIQ4cOiaLLHVY2HTt2FL3nnntEMQONNHbv3i2KrnqIfr/11ltFBw8eLErIqXj++edF0VVy7969om506dJF9JZbbhFF1kVasyNQBwKxShMmTBCFU4GVIuonoKspurFGO3QWTw2OH9Qb+emnn0S7du0qet1114kWKFBAFBVYwxV8/ngdqKeC34M///xT9JlnnhFFz5a8efOKhhN0IgghhBDiiQx3InAuCysY1Nhv2bKlKCrr4dxtpINz2HBeEIX8zTffiLZv316URAduK9V9+/aJvvXWW6L9+/cXdYtJKFmypOhjjz0mihgI1HPIKFAXAs4i6ifg3C4hwfDuu++K9uzZUxTj4ZNPPilatGhR0UhnyZIloujJgmyUIUOGiCKLKpygE0EIIYQQT2S4E5GQkCCK6NuXXnpJ9PPPPxft1KmTaKTgtrJ0MmnSJNFWrVqJYkaOyoMkusHK7KuvvhKFM+Gkbt26ovh+YeWCfHNCQpFrr71WdOLEiaIjRowQRR2dcMVt/A/0u/DCCy+IPvvss6IffvihaLdu3UTDCToRhBBCCPFEhjsRqP/Qo0cPUaysxo0bJ9q4cWPRaAPnlpGNgmhkdGEk0cnHH38siu8Lvj9O4EB88MEHos2bNxfNKJwrJ8Q2oc6LM28/T548oojNIORUIKYHdXLi4uJEBw0aJIrKqdEGnJjbbrtNFFkaDz/8sGg4QSeCEEIIIZ7INCfiwQcfFP32229Fka3RoEEDUSeI/t6yZYsoemlk8O5lGgULFhRFDwEneH1YwbVr104UvQZIdDF37lzRq6++WnT16tWiTuBAoNJpixYtRDMLrJAQw4QeB07QEwP1KHCON9i6FE7ng0QmK1asEEV9oBIlSogiBqBq1aqiTpC1gBi7cDlOUBeiWLFioqh74WT06NGicCKQZUUnghBCCCFRw2lzIlChq2HDhqIANcUvuugiURBuK5T8+fOLYgXnrIWOGTUqkl1++eWi6GJHogNUnkTtfHTndFK5cmXRzz77TBR1VjILVBRs27at6Jw5c0SD5Y033hBFj5xw795JMgY4bOjhghU6nIhq1aqJAjjWb775pujatWtFUZ8k1Dly5IgoHEPEOjkdF3zv4UQ88cQTovj+hBP8phNCCCHEE1nuRGBldvPNN4siPx5ORKg6Es5zuqi4BicCzgSgE0FSePHFF0VffvllUaxcnHz33XeiiJnwCrIrEBWPc9IAvTJee+01UVTKPHbsmGiwoBvvwIEDRbHyxPcD54o3bNggGs5dC0nwpNWJmDlzpug777wjumrVKlEcv6EOYt8Q84a6D2eccYYooBNBCCGEkKgny50IZz466imEG7lz5xatUKGCqBM6EdHN5s2bRc8991zRdevWiTrp3r276Ouvvy6KrpluOB0xgJUevn9wAuAAIIto4cKForNmzRKFM+gcFtCTA99Pt/thZYmsjerVq4suWrRIFNkeWJGiYmuNGjVESWSRVicCzhyy9MI1OwOOH16vc//pRBBCCCEk6slyJyJaoBMR3fTu3VsUsQfHjx8XBagHgboh5cqVE00rztgGrOicIHsCKyc34Fxg5YgutK+88oqos5KlEzgphw8fFnUCZ+aTTz4RpSMRWcCJuOqqq0QRO+bmREQLdCIIIYQQEvVkuROBc2Bjx44VxYolXM6BAeQxX3HFFaJO6EREJ4gdqFevnqhbLMTQoUNFUT/Cefzja+r2vYAD0bdvX9Hdu3eLegVOSL9+/UTR6wWv5/777xdFb5xAjkYg0AvkvffeE0VMRbiNA+RknE4EKpoii8fpRCA7DzE66L0RLnVH4DBWqlRJtFatWqLO2CY6EYQQQgiJerLciUClPKw8kJ8ebiuQnDlziuKcsfOcNp2I6ARdOu+77z5RZ/0FxELAiUM0d7D88ccfop07dxbdunWraFpp2rSpKI5LOANQZ57+mjVrRLFixPcbzoRXJ6Rr166iffr0EXXrReMkkFNDsoa0xkT89ttvos8++6zoypUrRcOlYiWcdFRgRl2YmjVrigI6EYQQQgiJerLcicAKHRXKsJIK9XNgzpVP+fLlRTGzLFSokCigExGdIPtg2rRpos7YgWHDhoki5gDda4MFsRDPPfecqLMCZp06dUSx0kHFSDiA+D5ipQTNkSOHaLCg/sOCBQtEUXkQz4NzwzNmzBD94osvRJ11YUqWLCk6ffp0UXyvSHiSVidi48aNosOHDxcN194Z+N5jnHf+HtCJIIQQQkjUEzJ1IhDVevDgQdFwAU4E+sa7nZOlExFdIKocUdrIagA417906VJRZ0+LYEGUO7oFOlf2F1xwgShWPgDfs0AxB/g+Y//xPa1YsaKoG0ePHhXFcY+V2ODBg0UfeeQRUbxPAHUixowZI1qmTBnRtOJ0CknW4LVOBGIL3OqLhAo4vnC8QQsWLCjq5qjTiSCEEEJI1BMyTkSkQyciuhgyZIjoXXfdJepcUXXo0EEU2QzovZJWEL1+zjnniDqzIpBVgXPNgRwPZInguFyxYoUojl/EdMBZaNmypej1118vGqjS5pNPPimKiprYLrjhhhtEUS8CK1cSngTrRES6c+R8fXQiCCGEEBL1hEx2xoABA0SdefThAlZ8qOSHuhGATkR0ceedd4p+/vnnos7jGivxbt26iaY1GwJMmDBBFM4GKv4B1J1YvHixaPHixUXBoUOHRJ9++mnR33//XRTdPQMBRwJZHdjOpZdeKuoE2SQvv/yyqDMGCvn133zzjagzqp2EF2mNiZgzZ47o1KlTRRHjEy4OBXrJwJE7//zzRc844wxRQCeCEEIIIVFPljsROId7ySWXiIZb7wy8fTinjXPK+fLlEwV0IqKLqlWriiJmwcny5ctFcT+voNfG999/L+p0PFAB8q233hLFcYnj9t577xVFZc1AXTkDgWyUt99+WxSOBPL8sTJF1oizlwgcvB9//FHUzdEg4UFanYgffvhBFNlGqBMRbmB8f+ONN0Sdr5NOBCGEEEKinix3IpBPPnnyZNH0dgPMLPA2uTkkqDSIaHVnhTU6EZFFoOMhf/78os5z/liR4Nxvnjx5RINl3Lhxop9++qnoyJEjRffv3y8KcPz99ddfoo0aNRJF3jqyH7ACwvGJ14PXB+eiQYMGonieuXPnirqBCpWjR48WddZ7uPXWW0W//vprUYwDoHbt2qLt27cXfeyxx0TdYiQCfR4ka1i1apUonAjE6Lg5EZs3bxZFhddw7eIJhxG/d05nGt8LOBE4vh9++GHRcIJOBCGEEEI8keFOBFYq3bt3F8U5LkSR169fXzTawEoL53xxrvfXX38VJZEBekVUrlxZFM4cQD0HdN90rlDcmD17tiiyOdCbwo3WrVuLwqmAA4bvZ5MmTUSXLVsm6gTH5+233y6KFSN6A0yaNEn0hRdeEHVmhYAPPvhAFCuuXLlyiY4fP14UK1Q83umEIOsJ40nv3r1FUREwEHQoshbUJ7niiitE4UQgG69KlSqi0QYcaHy/nnrqKVE6EYQQQgiJGjLciUBeL1YMqO2PFfd5550nmlVk1cpkzZo1oohev/vuu0UxIyeRAbpUIj/c2csClR0HDRokGmxMBLIdcO4U516dK3fUm0As0mWXXSaKGAmsgG666SZRZ8wGYhlQ3yJQhdmePXuKvvvuu6KIrQCo+zB06FBR1KnA/qJ76XfffSfqBmIkfvvtN9GyZcuKBgtiUH766SdRxKxcc801osjrp2ORObRq1Up0/fr1oiNGjBCtV6+eaKTj/N1BNhTqCr355pui9913n2g4QSeCEEIIIZ7I8ElEyjn/lEvTpk3lkrIySbkMGzZMLmklZQaHWVxGkDITzIrVRsrKE6vPFFJWeIFWeST8SKnTkHJxO26LFCkil5Ro87REnKdUlky5pDgK/878wfNcffXVcvnyyy/l0rZtW7k4759StyLl4rZ/t9xyi1zq1q0rl0Ck9MJIuaR0Az1VR9CUypcpl5RYCsRTpIDvYUpMRcolZWWWckmpI3Cqfhnp/d6mVMhMubz00ktySXFKUy74XqbEivw7w8Xt/SHewHiX4kSkXFJiegLF9UQSOH5TYuNSLikxgimXlJiflEtKRUtnVctwgU4EIYQQQjyR4TERYMOGDaKoh4AocNTMv/baa0XLly8vGmls375ddPDgwaLoGYBVFqLbw3X2SU7NxIkTRRET4ax7groMzz//vKizx4obOH6QDYGeFwB598jecKNPnz6ieH5nDAMqXyKaHtkRTjBswB1ArA9ifwBiD9CLA9935+MBovVRXwDAFUFslbPuhBubNm0SbdasmSjGJYAslE8++US0dOnSoiRjmT59umiKW5YCjnvUE0JsSqlSpUTDBbfj2MnSpUtFka2EWDjEBPXt21c0HI8/OhGEEEII8UTQTkSwMy6AFRhW3Jhxzps3T7R58+aiWMEEuRsZDs5LI6//kUceEXXL38d+rlixQjTl/GoKeF/QewD50agYiDz7fv36iTp7AqT1/SWhgfNzQy8YVGREV0xUsBsyZIjo2WefLRpsXMQrr7wiiuPN6USgouTFF18sirxzOAHgnXfeEe3Vq5eoM3sE2RYvvvii6L/jKVJwvt6tW7eK4vm3bNkiCs4880xRfA+cDsKYMWNE0bUTFSydWSN16tQRhRMRbHbGokWLRNu1ayfq7NXRsWNH0ffff180o5zBaPk+p/V1wjHD8YdeSYgPw/EBBwzbP12g9wyyCDt37izq7DnjfL3ohfG///1PFN8rvD700EGWEI5nOBL4PQxH6EQQQgghxBOeYyLSOgOdMmWK6FdffSWKXhlYyeDcLFZmmT0Dxfax4oGDgApiTz/9tGjFihVFARwWrIhw7hi9M1BJD84D8tvvuOMO0ZSMFRK+BHvcL168WBTnQrHCPffcc0XTCs6lPvDAA6I4DrEfzv1yVorEOWhUjkWsknPFX6JECdHPPvtMFHUmnKBOxV133SWKzKt/Z2CkgJX+Rx99JIqYIDgp6N6LWBLgfF34HmHFF2xMhLNHgdMpwTnp/v37i5YsWVKUZA4Y53EcwnlasGCBKHpnnO5uzvjdgZOICq/33HOPaEoGUgopmVWnAvUe4GjBScH3vkKFCqJwHK688kpROHhusUfhAJ0IQgghhHgiw7IznCsh53WAXGycI0JvAaxgTtfME+D5UcPhl19+EU3JsU8B/eBRyQ8rMFT+w0orJbc+hS5duoiiRjxWdlzhkPSAGBuseHDu1Q1UAoTjh5UVzvm2aNFCFFHzTnC8d+jQQRQ9P+Bc4HuCbA6nAwFQORPbwYoLt3ft2lUU44Jz/EBMB7JK8D0LttInsi4Q67Fr1y5R0KNHD1E4j25dQt1wG+dIcMCJhgOBHio4Tk/X+4rYn7Vr14rCUUBMDRyrZ599VhSxfADjPpx23K9NmzaiiKnA43Lnzi0aCdCJIIQQQognMi07I9xm6EuWLBFFvi7OCbds2VL08ccfF8W5ZKwEcW4L9S8QFU9IZoAYC8QGoH7Etm3bRJ2gVwSygbDighOAGCBnbARALw5kWeBctbPegtNBQJZISvXMFNAzA7Rv314UvTDg8AHEGt18882iuD+6gAYLYh2ee+450T179ogC9CxAfY1gHY5ATJs2TRSxHHCCSHiALIpHH31UdNy4caLI8oFzhRg3xLyha/WPP/4oim66kQydCEIIIYR4IsNiIiIFRG9jhYK6DqikB0cCldWwYkIFwGeeeUaUhDZYaeBzddZTCBe6d+8uiuwHZ2wCKgF++umnogUKFBBNqd+fArrsojuoW2xDsKBSJ2IYEH2O6Hes0K+66ipRZ7YEYolGjhwpilgMr6BbKbqE4lw7wIoRTkewdTvcnFZkoWEcQIwFKvTi3HqogYrCeP9P1b8kGlm+fLnoq6++KoosJNR9gWONbCh0J0XWCWLrIhk6EYQQQgjxBJ0IF/bu3Sv6xRdfiGKlhnOyqGiGehHPPKsrj2d6e3Mi8CGERwRJarDyQiU2zNSRJZDVzJ8/XxQrBZyLx4oYn2+4xPAARI8jdsd5zh8xEOghgWwhgFiE4cOHi2Klhfcn0PCAypFwIB5++GHR+vXrizrBcYKsJ2fvDsQYYYWX1mwJAMcBPTcQSwIQ6zFr1ixRxC644eY8OLnxxhtFsRIFiClBbApeZ2atVAPtL7IQ4FChngayX6BwrqKdHTt2iL799tuicKhRD+jAfssyPKpOHnom0YkghBBCCHGBTkSQIP8XXRSxskHe+xM9tTvjiy9oz4HUnG6v4fQ8H1b4WHmiSyPyprHyPN0rfKfzgB4NU6dOFcUKHPnaqJeA+gjh4kjMmDFDFNkQcNAAnAd00XRmSTjBcY0eN4hhQAwFhoty5cqJwmmCBuo9gdghrOScWSFYoX/88ceiOEefVpC9gkqVqEcA4CQOHTpUNNgKmIFANgj2H++7E6xgnbEScE4ym/Xr14viuEFMBOp5YMWNSovRitPRwfGKnheIlYADiOMIDg+dCEIIIYQQF+hEpJHx48eL4hw6zqkO/VJXNDd10mhwJ8432es6N7C/EPgeGQnqYyBvGiCWBHn+GbWyd64MAFbOqN/h5jwAPB69G9BdECvsUHUinK8fK1/U9nfGGGCliXPe6C6IHgF4vW6gkiTePzx/oOh9PA9WaIidQMwFeoBgPwD2B10/A+2fG+h5gHPTqG8BcLzie5xR5/7xutELAo4I6gfgdoAYK3R1xcoV3xvEFmUWyEpBBV44P4iJadSokSg5GXzOv1lMHL5/u+x4hnNNJ4IQQgghxAU6ER7BOfS5c+eKIso/0DlnJxnmG2TYhtJGw4YNRWfPni2KeguI/nbrepdeVq1aJYqV7e+//y7q5jwg/x91Pa6++mrRZs2aiaJeRLiBegy9e/cWRewCgAOAHi+oywCHAa/7ggsuEIVzgVr/wYJz6mPHjhVFV07EaFSuXFkU90NPD2ddCpyDnzRpkij2382BcoLjDt1HUYnWCfYTrzuzgAMCpwzHK3Tnzp2iAN1WGzduLIpYieuvv17UmV2TXl5//XVRVD7F54X9Q7YJ+W/GW0XLrVY5FjE3pUuXFo1k6EQQQgghxBN0IoImi5b6IQqyH1CRMDExURTR3ciKyCiwgsa5W1QgRIyKm/OAXieo3Iha95l9rvl0gc8BWQ1r1qwRTSvoLohz8+g+iN4azq6Df//9tyg+DzhzqATqrFcRLHBUUBkWjkiwTgSygVBxFueuAepB4Jw/nI7TBZwHZNWgMueQIUNE0VUYIPYEsQlOZyK9PTn++OMP0bvvvlsUDh9iStBzJKMdEBI50IkghBBCiCfoRGQQu4/q2zh9V5JodlsxZbN3N5tN184pqv/Jr4UEMwF9wmRzTDLLN3nppZdEsXIEqNSHFZPXLAen84AVG3oTOM8lO50HZ8xDsM5DsCveUAPdOpH1gDoAXilYsKDoE09o/RNEn8PpQP2FCRMmiKYXOB5wElDhMViQldKqVStRZE05Qf2Gzp07iyIGIavYtWuXKByBb775RhSVcJ1ZJejZg+6QyC7q1KmTaExMjGiwYPvYDj5P1EtBlgEq0RLihE4EIYQQQjwRck4EduaQnmL35bGJNW4PlfXhov26R9+s13PxC/eqA7H8oCr2MxscAbMkahTQeVuzovrCrj9TLYmSARZEE3fqG7Jkn26nW+VMszKCIqOzMuA8wHGAA5HZzkO44uaYoE5Gz549RZ09IwB6ajhjSZwULlxYFHUVEIPx5ZdfiiIWBvvhHE7gaOzbt0/UCRwNVIL1GqOAxyNbxRkLgZU0HJtQrcS4evVqUcScILbo+++/F3UCZwKxSMgSQ5ZNsDzyyCOi77//viiyfPB+Iasp0sHR6/ydwWG96bD+Z81B1UJxes9SeUR8xXI4Hxn50IkghBBCiCdCwIk4ee53RBfyviFrdYVT1mZ4l5yRtnN97lNKU48Txp826X69sUy7BP5lDkEiFnSBpmX2+grm0h240F7Xo9W1B0dOe5mrzdH4c4fq5B36PDeUt14dZzmdCHthyfbCPL6+QKDiHnplYCWKyndYCQeCzkPm8ueff4r++OOPonAKatSoIQqHAFkC3377rejGjRtFncMCumlihXro0CFR5/2Q1YGVMOpDLF++XBSxGqhEiR4rXvPpETvQrVs3Uey/0xkZOHCgKJ4PXTwB7hdqsTBw9vA6nb1gnFSvXl0U35ObbtIKusiicgOxTMiK2bBhgyiuw9mCMxXp7LIYt5836/j2l42/W8yJ2GqaL0aPl8I5VcvkVr2wpA7k+N3KFeDna/F+Hed3WAhM3UI63hU++TANSehEEEIIIcQTp9GJwNP890x/pZ1rOn+crnSK24q9Xz2dkl1Q4r+ndME9S9oZs01novfN0pXYin06c8yWXZ8pe3Z75iDfzUTcz5yJc4rrfC6HbW/LIb3DSnueigX09kWXqjWTO8DMNrPeCbdeGYGyMtLrPKDi4rnnnitK5yE4UIEQUfuIXQHIakDXwUcffVTUWfkyEIjmR/YDHCIn6JWR3kqmcDRuuOEGURxHTsIlFiJYUIETFTeHDx8uigqgTpo0aSLarl07UcROoB4I2LFjh+ill14qiuwWOEsffPCBKLqPpp2Tx6PhG3Q8rW8r7mr5M3ac8soUy64buFKd5lFbdT+3Jdj+4+fSxmn/y/LfrlIhn37fri+v+lA1dZDzxerjlpjzMGWXbv/HjarXlFWH+S6LeYsLg2V+GOwiIYQQQkKRkMnOSLTdGLNV9dKx1o1QJ3C+hkV0Rtfn7ECOBF6OzvhOvhYY//3tP9ttQdbmT3VGFu7WGWQMQhKcT4Drxok/Y3/0Fuf+WGjBCWx617wYZrT6hLUsu2OlxUxgxnq6cMvK2LRpkyiup9V5wEoZKyZEmTdv3lyUzkPmghgHvO/o+hkIOE6oJ4BKiplFUpIe96ioOGjQIFFnlgm6UaKLJ+ogpLWOQqiDnhyIfYEiiwagHka9evVEESsBJwcVKVE/A9k3iB1B/QhUfPXKQssu6zJde6aUz6PHz9v19XlwPbNxDttTzYF4cr4O+H+a8wxiglxuY7tJZjXnsWyNC0vqOJ3Xhut18fr36eZEVMin9xvaVLu6NikSPut7OhGEEEII8UTIOBGHbeb27kqdmT0+W2eq2WP09iTLOmhQWOc9z9fWmevlpTN2ZYE3I1Enpr7PLUuk6xRdqcX4T1L999uGv2az/51wIhycuONJ4GrNgvp8lfKprrWYkdsr6et+oKpZNQHAx+wWfe72d9y+aNEiUZxLxYoQK8933nlHFOee4UAg353OQ3gAhwm9JZDtgCwcgJUtov5xHOTJY+lUGQyeH70ccLw5e02Afv36iT744IOiqIsR7rh9T1F5Ep8fnCQ4NfgcAXpyIGYC9TrQO6N///6icBTfffddUWTBxMXpuBNoXHHy7nKNNXhhsepOy3K40erlvGpO85mnyZFYa47AI3P19waxCXh2hD6kHX1gkr0/yQiCw/bsaiVzlp+sqa+7vv2+JdjXrbrFipSw7I9QBL+IhBBCCCFpImSciHibefVeoOek3lqqM1Wci8JOJtl/quXXP9xgM9i7KqkiT9cVbMh5N//t+p/443qHthN0hv+31YPwz0zdtuOG3f9EGQfnhk4Gt9qC3+c7prfcUEVXAB831pVgPpcFFj7VIBcIruDwePXVV0V79eolCu644w5RRHfTeQgvnF9/rChxO7I74DzhdjgRzmyP9ILtYz9QJ+HDDz8UxYoYWSXO/UU3048++ki0ePHiomnFuR/hBrJrUC/khx9+EEXMxPbt20UBKoWWL19edPHixaL4/K+99lrRvn37iqa1twl4fJ7u1/uW/ZCg8s8brXKTjec9a+jKvE7BzH3/X1+iO/DiYt2veBtnY1wsCP2rf3fTDB5v5SX8FYxrmu6x+hTty+j70KWiKio3hyJ0IgghhBDiidCJibAV94crNcr64Vl6jsofTO2YAiJmwcoJ+K6ymdstFVTbl3GZuqWaSqa6QThowd6Ffji5Bn8q8DBs5tSbc8Xt7rgdf7nHsjAescqWlSya15U07kcgGjVqJOrsjlimTBlRZGcAp/OAFWKLFi1E6TyEFs5hIKtX4HPnzhVFt1jE2hw7pitHpwOBc/uoU1G3bl1RoqBb6NSpU0VRoRQVZuE4uAGHAk5GoAqYbtwwRcf14et0gMWK3Ixon5VR8DWx3kK32niOcT1Q5Uc3nMPhARvfb56q+/PTBnO+sUNO8P1I5/cC+5HDfrdw/YjVBbqsgo7v7zdQJ6ZC3vQ93+mATgQhhBBCPJEFTgSe7uQZFmIdUDGsxSg95xkToCsaHpds/6laQKeq6EnRrJg+vnERncmeFWRltFVWh6HKz5aVYTPgU++9d7A9zHBRnyK7/edJOzf4sFU8K6RXA5JR+7lw4UJRZ1aGE+Tlt23bVhQOBFaI6KFAwgvEHuzfv18UWRJwoDIKOAzffPONKGIaJk6cKOrGOeecI4psDDhdaQXDYLjGQKQVvN/vvfeeKLIxEIPixrBhw0RvvPFG0bRynznMH69WKwCOMt52jFtJx/V/JfLoOhd1crpVUUW9nGBxjofjt+sTPzRH92f+Hj2u3WIhMm5EVfxOum3ustL6ul6tq+N8bcvKCwfoRBBCCCHEEyETEwG2H9HdaTFWsyJWHNApG05VYR54YqdPniFihgeLorTFDtQuqFZCi+KqjSwft6gGmfsqWPhrMS0Y5jtoUboFvzNHJJATkXrHTsaflnHqOyT7nQj9O86Z7e2YVxTXg8V1P4MEh8UTTzwhiqhsN9Dl8eabbxa98847RXluOrzYvHmz6JAhQ0TRtTU+XmOD4EShzsAVV1xxkqa1HgOcBlS8RBaBM3vAyQUXXCD6wgsviCLLh5yaNWvWiKLeCz5XXB8/frwoPn837rvvPtHnn39eFMdBsLyzQh2QV6xOxHarE+EWiuCMfTvXKvheVkq1aVH9wzkWQxFsFsP/rBvzE5Ytssx6WQRbmdIrqBuBHkmdLAbiqRqqlQPFuoUgmfyWEUIIISRSyTInwm2ljNsH2TmzrtMcWRpO7AEn6i+cDHpy+JLsLzZtqmXnnArqBNBXOrdeR//2vDY1ftsqrLnNlIPG7QW7AOch4Rp1IjILfPxu54K/++470S+++EIU+eOobOekcOHCosi+qFmzpihq9jdu3PgkReU7krUg9gVdWhGb4BYDAypWrCiK7q3IpnA6Eoj+R0VFZFugjgF6QLiB7XXq1En0kUceEaXTpSBWZc6cOaJwGvC+Ll++XBSOxNKlS0XdKFeunChiodC988ILLxRt1aqVaN68aRufplnvoa7WO2PhHnMAAjgIOAqTLVYit8XKVbd6QfUL6waam9N8rjkUJa0LdBFHLNkfW3WLD1pMxGLrlpzZTkSiOeS1C+l+DmikVniLYpn8xJlI+O45IYQQQrKULHQibAVsS3OUFt9gfdvzWMIwonm/W295xY5pj3PnT72ePgHu719g4Qbn22BXY+N0i87nyWxQiRIxEZlFICcCf1+5cqUoHIjp06eLzpw5U3TJkiWiuJ8T9FSoXbu2aK1atUThUKAOBR2K0wuyL9D7Aj1P0gqOH1SUrFSpkihWwugqiXPwzi6TblSvXl303nvvFcV+lixZUjTaQLdVODroirts2TJROIVwHpyVY0F2CzI466yzRNGdF99LOIhwIKpUqSKaUV1Q75mlsQiDVqvTe8zGY9fkCAcnsvJUMUIjm+NsW+kXMweisDkXVS07b7X1IPpho/6ubLI6Del2nAOAFjTnW/bgW9a99OxCdCIIIYQQEmVkmRNxYm2vU79DNkMbuEpnhkssWhZOxTdWUWyfZU1gwoi9d1lIhx14GejmNv2i3KKhyooVK0S9OhQ4p4oVkNOpeOihh0SxciIZC2ITsMJHN0gnWKmiR8qGDRtEncPHGWecIYpsnUDn3p0UKFBAtE2bNqJdu3YVveyyy0Sjna1bt4refffdoqg46QZ6h+D7VKNGDVHEksBpgPOAzy+zsJAG3xrrnnmHxUZM2o46DSKegaPt/3nxWxYqceZIwOk+bDuE/cps4ES0LHmyE9HQxvtwhCMzIYQQQjyRhU7EyRyxGVp/yyN+fKbOUIvn03lOkq3R9xyFQ+EAN5w88Ux9vxAnu1kqV1rvj2/OtUIWYQYcCjgQcCjQeyOQQ4Ho8NWrV4umtf4ACY4HHnhAFD0njhzR7x2AE9C5c2dR/B0xCm6fX7DAebjoootEL7/8clHUgUDPBqJguG7WrJnotGnTRBHbgNgFVIqFw4AYFWRN5cuXT/R0g2w3OM/bzfiC07w5o2ITHL8HuAqnAr8PiMFI79MFC5yIq6wC5+tnqxNRNQzrQwA6EYQQQgjxRBY4EXi6k2deOHX1t/XOaGm9M3yWHYF7Bxu9e+pnCWFsh1G7/cFqOlPtYzPVjAIfd0b3CAh2u4gaxwp2xowZonAoEL2Pc/CoZJhRUeHkZFDfAd0Zjx/XmCSAbpqoFwA6dOgg+ssvv4iiToEbOXOqo4ZsC1SYbNq0qWjr1q1F0+s8ZNbxHWqgoiiyL+rUqSOK9w+xDqFGN3OYv1irxwt6RGw6pOP+VnMigh3nMw0bjzP6ByTRgi/uqqbj+ot1VEuEp+Es0IkghBBCiCdOoxPhfBqb4jlu3n5Ub2gzXk+WLUQlMf/KIm27i3uH2rok1aux/yA6+fvm2sTj8tIZuwIP1ZUaYiigqAPQoEED0UhfWWYVqPw4YMAAUWd2Bv7evXt3UWRl3HPPPaJwjpzDyHnnnScKpwErY5ybxzl71A8haQNdOMOtnsqAlep0Pb9I60RsS7AYN7MeAjsQqUbOsCLRft9eqK/WQ+9a4V8Ph04EIYQQQjyRBU7EyVNNPDsWmsjX/dG6rF03UVdG2WxBntZzZad+1qzHbT5dLKf+ZfllWh+igMWEZBah6kyQ0wO6Zt50002izuyMXLnUEbv44otF161bJ4qKk87hA7ET7733nmiLFi1ECUlh8X49XjpN0XF9rvXSiPSQJ8T8xdqy/cum6kRcVy78s87oRBBCCCHEE1leJwJP7lwHH7Rg74dm68roszV6Lg09LzK721qmYS/Y2XUUDstFZ+jM9JeWpydcl05EdIPumjfffLMosi3SCrJnBg0aJIq6EjyuyKl4ar7GdLy1XGMjDtt4768P4fbDkEFk8uZTgeSlxtats38DHd+bWrfRcIZOBCGEEEI8ETIVK93YcUR3b5A5EW8v0xnsVuv26X4uzV6Wc8mf1bjslhks/qyMq6xiZWrwcYXKCyKRALIsHn30UdFRo0aJBgKVD1H5smfPnqKoREnIqUDvjCfmqRPxvXXTROxAZnfTzPBRNBvW4xjg8QxKovV86lJVszFerav1Ic7IhT3I8D06bdCJIIQQQognQt6JwM5Ns0qWY7bpyaWxW1Un7FCNyeacydn1jHYi0jthdOweThk3LKLOw+QL1ImwJnOnILjXld7dJNEJsi6+/fZbUVzftm2bKOoToCskKk1effXVogULFhQlJBgWW7fm15aoE/HNej2+juhVX3YzZLNsHLMBOjnGsihi1UHwGw+2f8l7NLbIF6exDtnyanZdor2OnOY1v1tXt3dnhcgZmelEEEIIIcQTIe9EJFhUK7q/zdmrM7ptVmN9ktOJwNI+s16V6xLfbojVc15JMaqYsfpnrg5Qr+wnbSXgu6iQKnB9Otc/KAH+TEhQrFq1SnT79u2ix623BrpDFi1aVJSQ9DB1l45Y32/Q42v8dtUl5lRYa43Tt+rNYdlx9vOYfeNSUd+yKSLHNq8R9R3VmA7f0YOq2c2xiLGeRwWLiTRqpJV337tBB/pzSjtihsJ4wKYTQQghhBBPhLwTgf7v47ar43DxH1bb36Y/gSqdZfYELxkzVpuBJq3Rc8ix6+aJJm/XCn+J+/aI+vfEJFeB/KJDrqghWqOuduOrVUOvuxPsKwvjKS7JcPB1Z/0GEgqYweB7d7k6D9N26zi/zByIpUE6Eeke5cwqTs6hMWnZV2tX4eN/jRA9Y9Mc0Sb7tbfPWcd1PM+fTXcsdy6NgUiyQka74+NFt8XkFd1doqJosbPUwbvs0ktE27VrJ5rTKsOGI3QiCCGEEOKJkHciAHpqdJ+t56AGWIxEquhd/Mfu709iSOerxLuULbvNWC1KN3bZ36LHZo8WLbBBHYhWh9SBqHFst2j+JHVQnLuxN1kdjPiCxUV3lDhTtFLtuqK3ddKeBjVr1xY9AbYUaO4d7P0IcYcOBslMeloFy75LdXxPMgs6uxWMyLSjzn5AkpPVQUia+j/R4hM+FW2xQ8fzK0qo09CwdAnROkU1CylbLot9QIEL7Giibm/rgQTR+Ts0e+PPjTtEZ8cVFm3W8XrRbnd3Ez2jVGnRcIJOBCGEEEI8ETZOBNh6WHf3yfk6Yx28UmewyMoI5Ex4JdmxoZxTNI8++xidsV57cKHoeWfoDLNecU2zqFJIYx7y5dOZrJO9NlNdtPuA6KztOmOdtFU1W71moldcfY1o59tuFyXkdODVgaBzQU4NBuKTj4vVB/X2e2bpuP77Fh3XcfyYAXzi4enFv0El8Y/PRauM6id6R34dl2+uqbEMZQtpZVa/JQ3nIdDPJ5oiWbOnpKMa+zFi1WbRIRv3iRZu0lL0yedfFK1arZpoOHyP6EQQQgghxBNh50SA7eZIvGmxEb9t1qje+XssjNeCIWJiM+blJSfq8+Qc0Vf0zGlfid5VVJ/3uqrlRMtgxop2o/4Zq113zMDhoPhnrHZ9836N7v18yXrR3/fpDPbKB7S3wYOPPCJKSGbiXAkFuzIKhxUUCT0m7tBxEj01plodIAybGdW9OTmXZk0kjflMtPrP6gA8VlKP287mQOSIs7oPFuPgB8e1De//+s9/g8fF6gtZsFVj5h6epE52tas0Bu6FV14VLVZCYzCw9VD8NtGJIIQQQognwtCJOPWcbPx2nSnO3asz14V79X5DrRb7ccdEMjC2fXMIco8bJFpuqDoALzeoJHpV1fKifqcBzkN6gTNhjsb/1mrFwFcX67m0m594WvT+hx4WdSOUZ7Ak/AjkMNCBIBnB3zt13PtolY7fIzapE7vPKhVjfExrb43kHHlEc66eKVro43tFe+fZKnrX2RqLEAPLA7ET+Jm08RhXgz7KMZ5je3CqY/UFzNi4U7T3vA2iVzzeW/Te++8XDeVvE50IQgghhHgi9J0I/5QvuLnYjN06w/tsjc5cB61xcSKwOf+rd9xgzkLsyhmiRT+4TbRvZc2yuKlWBVHfUTtnZ+e4/OfOgn1bnfuBJhtoqH/85O3/b+UW0YfmaKzEsBE/iTZrdZ6oE/9mTQnJTOhEkIwE2XijrWvzPOudtMB0lsXA7T1mx538e4rxzsbVpOMaa5H8qTq4D24dK/rM2eooF8mrTsXxY/r7MXSVOhQV8mtFyfNKFRH1j6wYYFNhf7CSyrsTjoiO2awxEDULaUxGnaKavYf7fTJHK2L+FKM9aZ7o95Zo83OtuVIIQieCEEIIIZ4I2+yMzTZDXbZf9Y9tOlP9ZbPOIDFjdSQ9nGLmaDc422zajLVAn46iN1odiPfPP1sUTT2OWQzEx0s3iXapVko0D6J6A729/imz/mfPYX3e/63XymZdqpUR9W/Hzqk9+PcS0Zl59fn+mj5dlBBCIpXlWk7H98IiHSd/3qxO8wEV/3jvJDlOnYSYuVpZuOTXT4l+WlYfeHEVG2fRrMnG296ztYvtlO1az+GpuupAX1AG3WtxfxU/FlNx8Ihu/+W5a0WX7dNun0/W1eyPxiXRtlk3cPCI/n51Ga3jef2HNPat15NPioYidCIIIYQQ4oksdyKOWgjBpJ3qJGS3FXmcNbvYbTPMeGuege5uy6zC2bJ9en2OxUJgZY8gWMdC359EceJ2e/mwKsxZSF6n3TirPK+xBuPbNxUtnde6rdnbdthiIK4bt0D0zHz69z5Nqojmjg3gSNjz7jYH4tFpy0WT7PbBrWqJ+s8124x13UHtxXHVWH3e/j+OFG3RspUons3/OklIsmzZMtFdu3aJhqkxmGUkJuq4cfbZ6hAWLKg9DUhkAEd5mo3vf2xV/X2rZWsc1e9LoPoRyXmtLsTHPUTvXvG96DO1y4qWKqCxEP6sCbM09h42J2HeGtH5u9RJeLyu9jhq43ckDHvcQXvcq/PVgZi2Q52Mh2tpPaF25bRXEvCP1zn09+Ld6UtFl9XQisUPP6d1LCpX0d+VUIJOBCGEEEI8keVOxBGb+I3YpCuKUVZ5crbVe9h5RHcPjsXOeNtdOAg280vlPPjR+/l7X+Dhqe+oHNMo2kLfPS965YKvRT9pU0/Uny1hoCzEzJ37RR+bodG1dQvrzLdP46qiuZ0xEvb8u23G2mO6Pm5TvD7/2001XxlRvH7weHvdvWevFt1RS2esHw4ZKmr3ohMR4txyyy2iS5fqyoNORHAg+2PPnj2iAwYMED3//PNFYyzanWQtmw+p7rPsiYJxIr795izvVQPWP75vPKT/WWgOxFRzIKbtUk0w5wHLXySxnQA32P3sOEmOzSma9MrVogOSZoveXb+6qH9cdWIWx35zil+ca46E9Tp6rI7GSFxYXp2FBLvfy/PUgZhuDkSP2upcXFKumKgf5/PaD9nMLepMfrxNfw869H5F9LL27UVDCToRhBBCCPFEyGRnwJEYtUVX+r+YztitOhc9MWAEOKY/qZ0I/E8fByfixN/1ZeP2JOu14Tus57yqvKCxBR9V07oQ55exGSSshxMbUswZmGlRvD2mmSNRRHtp+GMk4nQqvuuQxjQ8Nn2l6AZzIN5rpjPj6vY4f90JPJ89PT61idt0JdZljlayXLNZ60iQ0ARfN6yk7777btGBAweKkrRRoEAB0ZEjLSaoRQtR1qkIDbbrMOcbt10H7onWC2OpxbYd1NAGX6J9L9YnqO5EZUpg43tq5yEAMeoAJ+7ZJho38B7R7/OpU3AFst8ClTR2OhJz1JFYuk97HN1apbToPHMopu9QZ/rh2lp/IqADAex3ZOtBtXB6ztDfh9a91InoEoJdnOlEEEIIIcQTIeNEODlkjsOsPfof1FKfb9kYi+yc2W47p7b+oM0knb0r/CsSux0TTtwcq/8pnVvnU3GHdQaZcLPWX9hys51jxXawef91uwHbczgSj5gjUd+chXtqaHTumwvXia6xLIsTDoRVMLOocwCj5J8PzP6jNxw6pvfL88WfokkWXcyVWGjidCI2b1YHqVOnTqJ//qmfIwmON954Q/S+++4TzZlTz32T0GKFZdP9b6OOV2O3qQXxt8U67E+wgRnL2oCxbkESq85v4iYdh8sO1eyMzwtoXZ8LKug4n6pLpwP/sGuVgw8d1f3vNUudgpHrtPdF0Vz6fE/X0zoQ7c60LAxswMQVxwu96VetF9Gw58uiPbo/IBpK0IkghBBCiCdC1olwY7dF587do7rTruMc2xFzIhJsIb/ZzrHhXFqZPPqfXDZ9yhun18vn0RsS49VBuLOm5v8evutiUd9xO3nnnypCdfsnHApTm0nPsayNeydr9H3eHBo1nmAOwtDza4tWLGhZGKlmxLrhEzEd9kS2kk2011v9l3miP42fKFqzZk1REh789ddfotdff73opk26UiKn5rrrrhN97733RIsXPznvnoQGzmERrLNxGTESsy0LY545zWstC2/NARsPUUnSuSHndVi2eOYYSwfZqE5EqW8eFR1WSL9frc9MoxNhsRFHrbfGM5Yd9511WS6ZO4fos/XVibgYsRBpdiL0Pzf9Ok20gTkRj9KJIIQQQkikkIVOBGZmNvUywc74J2TpZItF+caaM1A8wCnTYwfVOciTXyvfHXN1Ihxgx/3TMr3fgaNaB+KK39UpWGVRt+Xy6o58e0Fd0TL5NQskVTaGPxtEb3A6Esft42vyh/bS+PxXrQ1fp3YdURJe9OvXT/Txxx8XDTOjMNMpW1YrDP7yyy+idevq94eENzjK51us20qLcVt5QP+y1ByJeBuGLZTNt9HG9zgbd4vk0D/ktOsl86gTkW2fZq2Nfrab6EvJ6iB0qKYxav76P9gRjL/A3wtDg/BenacxbXN2ajZGp8pniM7fo9l9C/bo7agPkaqypdv32n6nttnvxONWP+j8Xq+Kdrmd2RmEEEIIiRBCzokIjD4udd2HtOJ82bqlffs0JuKMQtpd7eBtF4j6szOc4GZszmaSuw7pjBV5vhssC+N+q52OimYFrZLlB+dqdkYlq1CZjCwLMybwPKliI0xjv9BYiKNHtd5EdmdXUhIWHDmin99VV10l+ttvv4lGO7lyaU8a1NO46aabRGPRm4ZENAnmQOyzSpexNh6vi9cBMocNd8Vy6u2IeSti18G1FnPUaqXGGjxQXysKp4pZwMNSORDWC2O7OtY96mgdiEsrlBQ9aOP+c3PU6VhgzsTjdYJ0JOz5Zm3ZLfrRFnUk2lvFynYdOoiGEvylIYQQQognwi47I934Z5rOl61TzwMH9FxW8xo6Q/2kgToHTUpY33e3t8tmxrusohkciDUHdCb5PupAFNMKe7O2aqXJbn9r1kaxnBrVO8AciYromYFKapgZ234nm4OzbK9WTGs5VmMiduzdK5pqRk1CGnwNUT9i8eLFou2tVv6qVatEo5WHHnpI9LXXXhNlPQjihd69eokmjPxKtMdZmp1R2rp4JlsMGr6H+y2mrc98jYGYYvV/HjVn4VJ/JUobcK2wxX7rifSCORILzZF4uJY6FxeXVUci1fBsXTzfn67dfRdXayz60PMviVatpj2VQgk6EYQQQgjxRBQ7EaYODh/W2IUn7tEo3jwzx4m+2qyGqFs+8Q5zIJ6aqStGvwNx7lmiqXphWOzELJvZOh0Jf4wEsjaAw4nADHl6EZ0Zfz/6D1E6EeGF04kAw4YNE73zzjtFExISRCMVvH68H+iFMWTIENEKFbRrIiFeGDtmjGjfJzX7qXsBHbcvq3rqHhro2jnOYhR6WtfOtk4HAuMt8PfaUEfi2dn6uxBv9YEeq6vjdVU4zvb4Q1Z/4tbRM0Trdlfn5OmnnhQNRehEEEIIIcQT0edEBCDRelaM+UNX9A9eeZnotGtaihayc1bgqGVRPG7dOBGNCyfhRC+MUzsYfkfC+s53+0sdiYL2PGMvayjq7AlywGas5/6ktdWf+3CQ6NU33CBKQhs358GNbt3UGfvoo49EI50SJUqIDh8+XPS8884TDfb9IuRUHLEYh7vv0e65RafrON+rrjoMha1+zzFzDD5drr1tKpsjfJHFMoDkZB3Xs6Vaj9t4bY7E9nh1uGdad8+zzIGoVFBjMXwxWsn4s7n6O/J9stYpeqzv26LntdLfn1CETgQhhBBCPEEnwgXUizi/WVPRm/Lqyv/RhpVEfTZThRPRb8F60SsraA3/moEcCCfmSMy2mepnNgN+12Iq/pnyqtr9PlmyUfTVrbpfixYuFM2Vi1Hr4UBanYgtW7Ti3o033ig6YcIE0XDHGQMBULmze/fuonFx1gOBkAxg4ZzZoo9b7FvrQ1tFH26g2Q9xseoMYLz1j7/BjudOsB0oeoHY88zdvEv0qbka49a2h8ZCPGDHf/YQduDoRBBCCCHEE3QiXEgyh2HkiB9Fe91+q+jHLdUZaFrazo2h5jpiJTBTdc5YMZF0vNu46p9nooG+9a33Wd963D5zu9aB6DJJ60K8MOAT0Y5Wie0UWyQRxKRJk0RRsXHjRnWkIoVrr71WdMCAAaJFizoq/BGSgXz82WDRQS89K9q5iI6zd9VWxzk2zhwJrw6EEzgKFiuxzGLhHpysTnK5SzuKvvTa66IlS1mX0RDGfqkIIYQQQtIGnYggefox7UP/8wcaLfv5hQ1E65UqLJqqC5wTp0Hg4kycuB9mrKozrcJljynqQNS9Tp2Rd99/X/QEzicikUifPn1En3xS88fhnIUrpUuXFh01apRonTrsQktOH+8O+FD0+3f6il4Yp9kUt9XUrI0yBa2eA0C2nOPnM9XoixgIcx6OWN2I0Ws1BmPIJo2By1m3iWivF7UyZY2aNUXx8xzKWUl0IgghhBDiiSh0IlLNFYPi2HGNTbjjtttEd477VbRbNe0j376SnrvKZjNO/wwVioWiPe2J5qX+/5jqf5CnPNJmrAOWabbGGRdfKfreu/1FC+S3LBAS1qR1xYHKquj2iRV8qOKWhYHunB9+qCvBTp06iTq7cwb7/qT1fSTk33w5THtq/DxEYyViVy4QbV1IKwk3La3Zd9UK67ibM5dlDTmPN3OmN+zXCrPzdmgs26SNO0Vnxujjz+lwteh9998vWqas9mr650g2Df3jmE4EIYQQQjwRxU4ESNtMLz5eZ5Yvv/Cc6KzRv4g2PKK11S8qpzPVKjZTLYd6EVbZzO9I4FyZsXa3dg9da105v1m5SXRtfq3cd/Zl2kf+KetClz+f9eIA4TNxJRnIokWLROFIrFixQjRcQHfO11/XaPQcOXTF54QOA8kUXMbNFcu0cvCHn38punm+1pXIt1m7cubZr3UdCljMWpxVnMQGD1s2x57sejxvKaiOdZEaGutz2aWXira74nLR3LmtcmUYQieCEEIIIZ5gdkY6+d8P34t+/eMI0diVmu+bZ9c20bKx+vYWzau11wub7orXLp87D6rzsPKw3i/vmZqfvLOc9t7o3L6d6JXXXifqBldq0c3QoUNF0WMjPl6Pq1Dl3HPPFUWX0jPP1K6GhIQiy1doT4sJf44XnbdEnYoDh4+IHjumWRcYf/Pk1MrBlc5QJ7l+/fqi57VpI5rb/h4J0IkghBBCiCfoRGQQhyxafvSvmrUxf/580ZXbdojmOKoz1tjj2r/+gNVOjytQSLRsEdXm52qvjraX6Dmz7KhgSci/cHOe7rzzTtFPPtFKpgD3y+qve/HiGjP0zTffiLI7JyHhDX+hCCGEEOIJOhFBgjfJ63rp8BF1IrZtV2eiYAHN2ihUUPvGExIMzq+rcwW/ebPWE0FvjVDr9onunA8++KCosx4EIWFFen8YIgA6EYQQQgjxBJ2IDMJ1QsqZKskCJk6cKHrzzTeLbtiwQTSr6NhRuxN+/PHHokWKFBElhIQ3dCIIIYQQ4gk6EREKPlZGvUc3qATZyyqdJiZat1mPpDXLo1Qp7Snz+++/i9auXVuUEBIZ0IkghBBCiCfoRBASwaDb55VXavfX0aNHiwbC6Tg4Ha1Awwa6cw4YMEAUsRnMxiAksqATQQghhBBP0IkIkmRLszixHvMWa4A3+8SjU9/iBbcVIyEpLFyoPV2uvvpq0eXLl4tmFqgD0bdvX9G4uDhRQkhkQSeCEEIIIZ6gExE09jYl20qfC34ShqCnxv333y96xCqpZhSVK1cWHTNmjGjFihVFCSGRCZ0IQgghhHiCTgQhUUjr1q1FJ02aJJqUlCSaXlCR8tZbbxVlLAQhkQ2dCEIIIYR4gk4EIVHIG2+8Ifrss8+KxsfHi3qlaNGiosj6YG8MQqIDOhGEEEII8QQnEYREIVWrVpVLSgXJjKgi2ahRI7mkGJs0NwmJHjiJIIQQQognOIkgJAopX768XDLKiShXrpxcMmp7hJDwgJMIQgghhHiCkwhCopDExES5ZBTYHmMiCIkuOIkghBBCiCc4iSCEEEKIJziJIIQQQognOIkghBBCiCc4iSCEEEKIJziJIIQQQognOIkghBBCiCc4iSCEEEKIJziJIIQQQognOIkghBBCiCc4iSCEEEKIJziJIIQQQognOIkghBBCiCc4iSCEEEKIJziJIIQQQognOIkghBBCiCc4iSCEEEKIJziJIIQQQognOIkghBBCiCc4iSCEEEKIJziJIIQQQognOIkghBBCiCc4iSCEEEKIJziJIIQEJFu2bHJx4/jx43IhhEQXnEQQQgghxBOcRBAShSQnJ8slWALdv1SpUnKJiYmRC0jr8xBCwgtOIgghhBDiiWz/rBK4TCAkypg5c6boJZdcIrpr1y7RQJQrV060UqVKog0bNhS98cYbRevVqycaGxsrSgiJbOhEEEIIIcQTdCIIiUJmzJghetFFF4nu27dPFBQuXFi0YsWKojVr1hSFc9G6dWvRMmXKiBJCohM6EYQQQgjxBJ0IQqKQlStXil5++eWiiYmJolWrVhW94IILRM877zzRxo0bixJCyL+hE0EIIYQQT9CJICQKSUpKEv3ss89ES5QoIdquXTvR7Nm9rS8wnPxXdUtCSORAJ4IQQgghnqATQQghhBBP0IkghBBCiAd8vv8DRhTlT/5OKxsAAAAASUVORK5CYII=;" vertex="1" parent="1">
          <mxGeometry x="346.05" y="110" width="147.9" height="130" as="geometry" />
        </mxCell>
      </root>
    </mxGraphModel>
  </diagram>
</mxfile>
